<svg width="25" height="25" viewBox="0 0 25 25" fill="none" xmlns="http://www.w3.org/2000/svg">
<path d="M19.6118 14.4082L19.2695 14.0438L19.6118 14.4082ZM19.851 7.02734L19.4559 7.33384L19.851 7.02734ZM4.27404 7.02735L3.879 6.72085L4.27404 7.02735ZM4.51317 14.4082L4.17084 14.7726L4.51317 14.4082ZM11.4658 20.9395L11.8081 20.575L11.4658 20.9395ZM11.9662 21.3046L11.8699 21.7953L11.9662 21.3046ZM12.1588 21.3046L12.2551 21.7953L12.1588 21.3046ZM11.8081 20.575L4.85551 14.0438L4.17084 14.7726L11.1234 21.3039L11.8081 20.575ZM4.35973 7.73257L4.66908 7.33384L3.879 6.72085L3.56965 7.11957L4.35973 7.73257ZM19.4559 7.33384L19.7653 7.73256L20.5554 7.11957L20.246 6.72084L19.4559 7.33384ZM19.2695 14.0438L12.3169 20.575L13.0016 21.3039L19.9542 14.7726L19.2695 14.0438ZM19.7653 7.73256C21.2524 9.64933 21.0377 12.3827 19.2695 14.0438L19.9542 14.7726C22.0983 12.7584 22.3587 9.44386 20.5554 7.11957L19.7653 7.73256ZM13.0004 8.02902C14.2231 5.46722 17.7158 5.09109 19.4559 7.33384L20.246 6.72084C18.0497 3.89007 13.6412 4.36481 12.0979 7.59829L13.0004 8.02902ZM11.1246 8.02902C11.5011 8.81784 12.6239 8.81784 13.0004 8.02902L12.0979 7.59829C12.092 7.61078 12.0869 7.61393 12.0846 7.61531C12.0804 7.61783 12.0728 7.62063 12.0625 7.62063C12.0522 7.62063 12.0446 7.61783 12.0404 7.61531C12.0381 7.61393 12.033 7.61078 12.0271 7.59829L11.1246 8.02902ZM4.66908 7.33384C6.40915 5.09109 9.90192 5.46722 11.1246 8.02902L12.0271 7.59829C10.4838 4.36481 6.07529 3.89007 3.879 6.72085L4.66908 7.33384ZM4.85551 14.0438C3.08731 12.3827 2.87258 9.64934 4.35973 7.73257L3.56965 7.11957C1.76631 9.44387 2.02669 12.7584 4.17084 14.7726L4.85551 14.0438ZM11.1234 21.3039C11.2359 21.4095 11.3463 21.514 11.4478 21.5921C11.5559 21.6755 11.6928 21.7605 11.8699 21.7953L12.0625 20.814C12.0985 20.821 12.1048 20.836 12.058 20.7999C12.0044 20.7586 11.9351 20.6943 11.8081 20.575L11.1234 21.3039ZM12.3169 20.575C12.1899 20.6943 12.1206 20.7586 12.067 20.7999C12.0202 20.836 12.0265 20.821 12.0625 20.814L12.2551 21.7953C12.4322 21.7605 12.5691 21.6755 12.6772 21.5921C12.7787 21.514 12.8891 21.4095 13.0016 21.3039L12.3169 20.575ZM11.8699 21.7953C11.9971 21.8202 12.1279 21.8202 12.2551 21.7953L12.0625 20.814L11.8699 21.7953Z" fill="#343F24"/>
</svg>
