<svg width="262" height="247" viewBox="0 0 262 247" fill="none" xmlns="http://www.w3.org/2000/svg">
<g clip-path="url(#clip0_1_474)">
<path d="M42.1352 164.525C42.9132 164.242 43.5481 164.344 44.2242 164.696C44.9003 165.048 45.4333 165.784 45.7821 166.653C46.0897 167.272 46.2131 168.024 46.3111 168.935L46.2856 169.094C45.7839 169.177 45.441 169.285 45.2567 169.418L44.3866 169.768L44.2279 169.742L44.0535 169.308L44.079 169.149C44.6062 168.907 44.7904 168.774 44.8825 168.707C45.1431 168.098 45.2451 167.463 44.9374 166.844C44.763 166.409 44.5632 166.133 44.2712 165.924C43.9792 165.715 43.7284 165.756 43.3854 165.864C42.9504 166.039 42.7407 166.331 42.7563 166.74C42.7308 166.899 42.8386 167.242 42.9209 167.743C43.1109 168.587 43.1011 169.155 43.0502 169.473C42.8816 170.016 42.5798 170.374 41.9605 170.683C41.3413 170.991 40.7063 170.889 40.0969 170.629C39.4208 170.277 38.9545 169.633 38.6057 168.763C38.3235 167.986 38.108 167.3 38.2099 166.666L38.302 166.599C38.5529 166.558 38.9879 166.383 39.9246 166.125L40.0834 166.151L40.2578 166.586L40.2323 166.744C39.8893 166.852 39.7051 166.986 39.5209 167.119C39.2857 167.57 39.2759 168.138 39.5169 168.665C39.6247 169.007 39.8246 169.284 40.1165 169.493C40.4085 169.702 40.6594 169.661 40.9102 169.62C41.2531 169.512 41.4628 169.22 41.3806 168.718C41.3394 168.467 41.2316 168.125 41.1494 167.623C40.9593 166.779 40.9025 166.119 41.0201 165.893C41.2141 165.192 41.608 164.766 42.1352 164.525Z" fill="#343F24"/>
<path d="M38.209 157.549C38.3011 157.483 38.4598 157.508 38.5519 157.441L38.7107 157.467C39.0183 158.086 39.3671 158.955 39.6904 159.983C39.7315 160.234 39.8648 160.418 39.9471 160.92C40.0549 161.262 40.1626 161.605 40.2038 161.856C40.8897 161.64 41.3502 161.306 41.703 160.63C42.0302 160.113 42.1322 159.478 41.85 158.7C41.6756 158.266 41.4346 157.739 40.8761 157.161L40.9937 156.936L41.7874 157.063C42.4125 157.732 42.8788 158.376 43.0689 159.221C43.4588 160.341 43.3059 161.293 42.9277 162.128C42.4828 162.871 41.8126 163.496 40.7171 163.728C39.4374 164.094 38.3929 164.009 37.7424 163.498C36.7998 162.778 36.2668 162.041 36.0767 161.197C35.8201 160.261 35.8554 159.534 36.1826 159.017C36.7196 158.207 37.2723 157.807 38.209 157.549ZM38.6302 159.489C37.3506 159.854 36.9312 160.438 37.1212 161.282C37.3779 162.219 38.0795 162.412 39.3591 162.047L39.4512 161.98C39.4101 161.729 39.2612 161.136 39.0457 160.45C38.9379 160.107 38.8301 159.765 38.7224 159.422C38.6302 159.489 38.6302 159.489 38.6302 159.489Z" fill="#343F24"/>
<path d="M40.5495 147.018C40.7396 147.862 40.8219 148.364 40.7964 148.522C40.7709 148.681 40.812 148.932 40.9198 149.274C41.0276 149.617 41.0687 149.868 41.0432 150.027L40.9511 150.093C40.5415 150.109 40.132 150.125 39.789 150.233C39.9889 150.509 40.5062 150.836 41.2235 151.439C41.4233 151.715 41.5311 152.058 41.5468 152.467C41.6036 153.127 41.5937 153.696 41.2664 154.213C41.0313 154.664 40.5041 154.905 39.9103 155.055C39.8182 155.121 39.6595 155.096 39.4086 155.137C39.1578 155.179 38.907 155.22 38.6561 155.261L37.6783 155.268C36.767 155.367 36.1732 155.516 36.0811 155.583C35.989 155.65 35.9635 155.808 35.938 155.967C35.938 155.967 35.9792 156.218 35.9948 156.627L35.9027 156.694L35.5598 156.802L35.4932 156.71C35.2365 155.774 34.9132 154.745 34.4057 153.85L34.4312 153.692C35.2503 153.66 36.0028 153.536 36.6632 153.478L38.0762 153.297C38.7366 153.24 39.1716 153.065 39.4225 153.023C39.6733 152.982 39.9496 152.782 40.0672 152.557C40.1848 152.331 40.2358 152.014 40.1946 151.763C40.179 151.354 39.9791 151.078 39.6205 150.776C39.3285 150.567 39.0365 150.357 38.6936 150.465C38.4427 150.507 38.284 150.481 38.284 150.481L37.0298 150.688C36.1186 150.787 35.5248 150.936 35.4327 151.003C35.3406 151.07 35.3151 151.228 35.2896 151.387C35.2896 151.387 35.3307 151.638 35.3464 152.047L35.2543 152.114L34.8447 152.13L34.7781 152.038C34.5214 151.102 34.1981 150.073 33.6906 149.179L33.7161 149.02C34.3765 148.962 35.1956 148.93 35.9481 148.806L38.2057 148.434C39.2091 148.269 39.8028 148.12 39.8949 148.053C39.9871 147.986 39.9871 147.986 40.0125 147.827C40.038 147.669 39.9969 147.418 39.9812 147.009L40.0733 146.942L40.5495 147.018Z" fill="#343F24"/>
<path d="M34.1032 138.501C34.2109 138.844 34.2521 139.094 34.3187 139.186C34.3853 139.278 34.452 139.37 34.6107 139.396C34.836 139.513 35.2201 139.656 35.8296 139.916L39.1022 141.334C39.2609 141.359 39.7116 141.594 40.7051 141.996L40.7266 143.383C39.9486 143.666 39.2373 144.041 38.3672 144.39C37.1286 145.006 36.0077 145.397 35.2042 145.839C34.7691 146.013 34.5849 146.147 34.4673 146.372C34.4419 146.531 34.4164 146.69 34.3909 146.848L34.2988 146.915L33.8226 146.839L33.756 146.747C33.7403 146.338 33.7756 145.611 33.6777 144.7C33.6463 143.881 33.6562 143.313 33.5739 142.811L33.666 142.745L34.0756 142.729L34.1422 142.821C34.1578 143.23 34.199 143.481 34.2656 143.573C34.3322 143.665 34.3989 143.757 34.491 143.69C34.6497 143.716 35.5198 143.366 37.0092 142.709C37.8793 142.359 38.4064 142.118 38.5907 141.984C37.8225 141.699 37.1464 141.347 36.4449 141.153C35.2926 140.725 34.6832 140.465 34.4323 140.507C34.2736 140.481 34.3402 140.573 34.2481 140.64C34.2226 140.799 34.1971 140.957 34.2128 141.367L34.1207 141.434L33.7111 141.45L33.6445 141.358C33.6288 140.948 33.6132 140.539 33.623 139.971C33.6328 139.402 33.5505 138.901 33.5349 138.491L33.627 138.425L34.1032 138.501Z" fill="#343F24"/>
<path d="M31.407 134.002C31.7245 134.052 31.9499 134.17 32.1497 134.446C32.3496 134.722 32.3907 134.972 32.3398 135.29C32.2888 135.607 32.1712 135.833 31.9615 136.125C31.6852 136.325 31.501 136.458 31.1835 136.408C30.8661 136.357 30.6407 136.239 30.4408 135.963C30.241 135.687 30.1998 135.437 30.2508 135.119C30.3017 134.802 30.4193 134.576 30.629 134.284C30.7466 134.059 31.0896 133.951 31.407 134.002ZM40.8272 133.633C40.8173 134.201 40.782 134.928 40.7212 135.814C40.6605 136.699 40.6252 137.426 40.5487 137.902L40.4566 137.969L39.9804 137.893L39.9138 137.801C39.9902 137.325 39.8825 136.982 39.9079 136.824C39.8413 136.731 39.7747 136.639 39.616 136.614C38.981 136.513 38.3461 136.411 37.6191 136.377L36.5746 136.291C35.6888 136.231 35.1205 136.222 34.8697 136.263C34.7776 136.33 34.6854 136.397 34.66 136.556C34.66 136.556 34.609 136.873 34.558 137.19L34.4659 137.257L34.0564 137.273L33.9897 137.181C33.9839 136.203 33.8193 135.2 33.6548 134.198L33.8135 134.223C34.6071 134.35 35.4008 134.476 35.9691 134.486L38.2168 134.682C38.5343 134.732 39.1026 134.742 39.6709 134.751C39.8296 134.776 39.9217 134.71 40.0139 134.643C40.106 134.576 40.1569 134.259 40.2334 133.783L40.3255 133.716L40.8272 133.633Z" fill="#343F24"/>
<path d="M40.6717 122.946C41.3733 123.14 41.9572 123.558 42.3315 124.269C42.7058 124.98 42.7371 125.799 42.4921 126.818C42.2981 127.519 42.0119 128.288 41.5004 128.938L41.4083 129.005C41.0242 128.862 40.6401 128.72 40.4814 128.694L39.4624 128.45L39.3958 128.358L39.4722 127.882L39.5643 127.815C40.1992 127.917 40.5167 127.967 40.5167 127.967C41.136 127.659 41.4633 127.142 41.6573 126.44C41.7337 125.964 41.7847 125.647 41.5848 125.371C41.4771 125.028 41.1851 124.819 40.8676 124.768C40.3914 124.692 40.0485 124.8 39.9054 125.184C39.7878 125.409 39.6702 125.635 39.435 126.086C39.0568 126.921 38.8216 127.371 38.4532 127.638C37.9927 127.971 37.491 128.054 36.8561 127.953C36.1545 127.759 35.7293 127.366 35.4216 126.747C35.114 126.128 35.0827 125.309 35.2356 124.357C35.363 123.564 35.7157 122.888 36.1097 122.462L36.2018 122.395C36.4271 122.513 36.9699 122.681 37.8302 122.899L37.8968 122.992L37.8204 123.468L37.7283 123.534C37.4108 123.484 37.0934 123.433 36.8425 123.474C36.4075 123.649 36.0802 124.167 35.9116 124.709C35.7686 125.093 35.8763 125.436 35.9841 125.779C36.0919 126.122 36.3172 126.239 36.6347 126.29C37.0188 126.432 37.2951 126.232 37.5969 125.874C37.7145 125.648 37.9242 125.356 38.0927 124.813C38.471 123.978 38.7062 123.528 38.9825 123.328C39.4685 122.835 39.9702 122.753 40.6717 122.946Z" fill="#343F24"/>
<path d="M41.4686 114.934C41.5353 115.026 41.6274 114.96 41.8527 115.077L41.9193 115.169C41.884 115.896 41.6645 116.756 41.2608 117.75C41.2353 117.908 41.0922 118.293 41.0413 118.61C40.8982 118.994 40.8472 119.311 40.7296 119.537C41.4312 119.73 41.9995 119.74 42.6188 119.431C43.238 119.123 43.6319 118.698 43.9181 117.93C44.1533 117.479 44.0965 116.819 44.0397 116.159L44.2905 116.117L44.849 116.695C45.039 117.539 44.9782 118.424 44.6921 119.193C44.355 120.278 43.7514 120.996 42.9479 121.437C42.1444 121.879 41.2587 121.819 40.173 121.483C38.862 121.029 38.1448 120.426 37.9548 119.582C37.5648 118.462 37.559 117.484 37.8451 116.716C38.1568 115.789 38.6428 115.297 39.262 114.989C39.8147 114.589 40.5417 114.624 41.4686 114.934ZM40.62 116.671C39.3757 116.309 38.6231 116.433 38.337 117.202C38.0254 118.128 38.4917 118.773 39.7361 119.134L39.8948 119.159C40.0124 118.934 40.181 118.391 40.4671 117.623C40.6102 117.239 40.6612 116.921 40.7121 116.604C40.6866 116.763 40.6867 116.763 40.62 116.671Z" fill="#343F24"/>
<path d="M49.395 107.654C49.1089 108.422 48.8737 108.873 48.7561 109.098C48.7306 109.257 48.613 109.482 48.4033 109.774C48.1936 110.066 48.2348 110.317 48.0506 110.45L47.9585 110.517C47.6665 110.308 47.2824 110.165 46.9904 109.956C47.0982 110.298 47.2471 110.892 47.4371 111.736C47.3862 112.054 47.2431 112.438 47.1 112.822C46.8394 113.431 46.4455 113.857 45.9183 114.098C45.3911 114.34 44.9149 114.263 44.3055 114.003C44.2389 113.911 44.0801 113.886 43.8548 113.769C43.6294 113.651 43.4041 113.534 43.1787 113.417L42.3439 113.039C41.5091 112.662 40.9918 112.335 40.8076 112.468C40.6488 112.443 40.5567 112.51 40.5312 112.668C40.4391 112.735 40.4137 112.894 40.204 113.186L40.1118 113.253L39.7278 113.11L39.6611 113.018C39.9728 112.091 40.2844 111.164 40.4628 110.053L40.647 109.92C41.3231 110.272 41.907 110.691 42.5831 111.043L43.8686 111.655C44.478 111.915 44.9288 112.15 45.0875 112.175C45.405 112.226 45.5637 112.251 45.9066 112.143C46.0908 112.01 46.2751 111.876 46.4848 111.584C46.6278 111.2 46.6788 110.883 46.6631 110.473C46.5554 110.13 46.3555 109.854 46.1301 109.737C45.9048 109.62 45.8382 109.528 45.746 109.594L44.6193 109.007C43.6101 108.195 43.0672 108.027 42.9085 108.002C42.7498 107.977 42.6577 108.043 42.6322 108.202C42.5401 108.269 42.5146 108.427 42.3049 108.719L42.2128 108.786L41.8287 108.643L41.7621 108.551C42.0737 107.624 42.3853 106.698 42.5637 105.587L42.7479 105.453C43.3319 105.872 44.008 106.224 44.684 106.576L46.7122 107.632C47.6137 108.102 48.1565 108.27 48.3152 108.295C48.4073 108.229 48.474 108.321 48.4994 108.162C48.5915 108.095 48.7091 107.87 48.9443 107.419L49.0364 107.352L49.395 107.654Z" fill="#343F24"/>
<path d="M49.0783 96.9411C48.9352 97.3252 48.8177 97.5506 48.8843 97.6426C48.9509 97.7346 48.9254 97.8933 48.992 97.9853C49.1253 98.1694 49.2997 98.6042 49.6328 99.0643L51.514 102.05C51.5806 102.142 51.9137 102.603 52.4212 103.497L51.6745 104.599C50.8809 104.472 50.0206 104.254 49.2269 104.127C47.8905 103.832 46.7793 103.655 45.7603 103.411C45.2841 103.335 45.0333 103.376 44.8491 103.51C44.757 103.576 44.6649 103.643 44.5473 103.868L44.4552 103.935L44.0045 103.7L43.9378 103.608C44.2396 103.249 44.659 102.665 45.1039 101.922C45.6154 101.272 45.9427 100.754 46.0858 100.37L46.1779 100.303L46.5365 100.605L46.6031 100.697C46.3934 100.989 46.2758 101.214 46.2503 101.373C46.2249 101.532 46.2249 101.532 46.2915 101.624C46.3581 101.716 47.3105 101.868 48.8723 102.28C49.7326 102.499 50.3675 102.6 50.5263 102.625C50.152 101.914 49.6856 101.27 49.2859 100.718C48.6451 99.6391 48.2454 99.087 48.02 98.9696C47.9534 98.8776 47.8613 98.9443 47.7692 99.011C47.6771 99.0776 47.5595 99.303 47.3498 99.5951L47.2577 99.6618L46.8991 99.3604L46.8324 99.2684C47.0421 98.9763 47.3439 98.6175 47.6712 98.1C47.9985 97.5826 48.3003 97.2238 48.4434 96.8397L48.5355 96.773L49.0783 96.9411Z" fill="#343F24"/>
<path d="M57.3102 96.8723C56.9829 97.3897 56.4968 97.8819 55.8932 98.5994C55.2896 99.3169 54.8702 99.9011 54.5684 100.26L54.4763 100.327L54.1177 100.025L54.1432 99.8664C54.445 99.5076 54.6547 99.2156 54.6802 99.0569C54.7057 98.8981 54.639 98.8061 54.5724 98.7141C54.1472 98.3207 53.6553 97.8352 53.0714 97.4164L52.2875 96.7216C51.5703 96.1188 51.053 95.792 50.8943 95.7667C50.7355 95.7414 50.6434 95.808 50.5513 95.8747C50.4592 95.9414 50.3671 96.0081 50.0653 96.3669L49.9732 96.4336L49.6146 96.1321L49.7067 96.0655C50.2437 95.2559 50.714 94.3543 51.1178 93.3607L51.302 93.2274C51.9271 93.8969 52.511 94.3156 52.9363 94.7091L54.7293 96.2161C54.9292 96.4922 55.2878 96.7936 55.8717 97.2124C56.005 97.3964 56.0971 97.3297 56.2558 97.3551C56.3479 97.2884 56.6243 97.0883 56.9261 96.7296L57.0182 96.6629L57.3102 96.8723ZM49.4423 91.6283C49.7343 91.8377 49.7754 92.0884 49.8166 92.3391C49.7656 92.6566 49.7147 92.974 49.5971 93.1994C49.2953 93.5581 49.1111 93.6915 48.7015 93.7075C48.4506 93.7489 48.1332 93.6982 47.8412 93.4888C47.7079 93.3048 47.5081 93.0287 47.559 92.7113C47.61 92.3938 47.661 92.0764 47.7786 91.851C47.9883 91.559 48.2391 91.5176 48.582 91.4096C48.8995 91.4603 49.217 91.5109 49.4423 91.6283Z" fill="#343F24"/>
<path d="M63.3771 87.9923C63.9356 88.5698 64.1511 89.2553 63.9571 89.9568C63.8297 90.7504 63.3182 91.4012 62.5558 92.0934C62.0698 92.5855 61.3584 92.9603 60.5804 93.2431L60.4217 93.2177C60.1552 92.8496 59.9553 92.5736 59.8221 92.3895L59.2891 91.6533L59.3146 91.4946L59.683 91.2279L59.8417 91.2532C60.267 91.6466 60.4002 91.8307 60.4668 91.9227C61.1018 92.0241 61.7876 91.808 62.2737 91.3159C62.6421 91.0491 62.7852 90.665 62.8361 90.3476C62.8871 90.0302 62.7793 89.6874 62.5795 89.4114C62.313 89.0433 61.9955 88.9926 61.5604 89.1673C61.3762 89.3007 61.0333 89.4087 60.6648 89.6754C59.8614 90.1169 59.3342 90.3583 59.0167 90.3076C58.5151 90.3903 57.9977 90.0636 57.5725 89.6701C57.0806 89.1847 56.9317 88.5912 57.1258 87.8897C57.3198 87.1882 57.6726 86.512 58.3428 85.8865C58.9209 85.3277 59.5402 85.0196 60.134 84.8702L60.2927 84.8955C60.426 85.0796 60.7591 85.5397 61.2921 86.2759L61.2666 86.4346L60.8982 86.7013L60.7394 86.676C60.5396 86.3999 60.3142 86.2826 60.0889 86.1652C59.5872 86.2479 59.1521 86.4226 58.5995 86.8227C58.3232 87.0228 58.1135 87.3149 58.0625 87.6323C58.0115 87.9497 58.0527 88.2004 58.2526 88.4765C58.4524 88.7526 58.8365 88.8953 59.2049 88.6285C59.3892 88.4952 59.7321 88.3871 60.1926 88.0537C60.9961 87.6122 61.5233 87.3708 61.7741 87.3295C62.4345 87.2721 62.9774 87.4402 63.3771 87.9923Z" fill="#343F24"/>
<path d="M68.6676 81.9184C68.7342 82.0104 68.8008 82.1025 68.8675 82.1945L68.842 82.3532C68.356 82.8453 67.6857 83.4708 66.7647 84.1377C66.5805 84.2711 66.3962 84.4044 66.0278 84.6712C65.6594 84.9379 65.4752 85.0713 65.2909 85.2047C65.6907 85.7568 66.208 86.0835 66.843 86.1849C67.4779 86.2862 68.1383 86.2289 68.7831 85.7621C69.1515 85.4954 69.5454 85.0699 69.8982 84.3937L70.2156 84.4444L70.4978 85.2219C70.1195 86.0568 69.608 86.7077 68.8712 87.2412C67.9501 87.908 67.0134 88.1654 66.1276 88.1054C65.2673 87.8867 64.458 87.3506 63.7918 86.4303C62.9923 85.326 62.7356 84.3898 63.0217 83.6216C63.3588 82.536 63.8958 81.7264 64.6327 81.1929C65.3695 80.6595 66.0554 80.4434 66.8491 80.5701C67.484 80.6714 68.1346 81.1822 68.6676 81.9184ZM66.9685 82.868C66.2357 81.8558 65.4675 81.5704 64.8227 82.0372C64.0859 82.5706 64.1172 83.3895 64.8501 84.4018L64.9167 84.4938C65.193 84.2937 65.6281 84.119 66.2728 83.6522C66.5491 83.4522 66.9176 83.1854 67.1018 83.0521C67.0351 82.96 67.0351 82.96 66.9685 82.868Z" fill="#343F24"/>
<path d="M79.375 80.6176C78.6637 80.9924 78.2031 81.3258 78.111 81.3925C78.0189 81.4592 77.7426 81.6593 77.3996 81.7673C77.0567 81.8753 76.8725 82.0087 76.7804 82.0754L76.7137 81.9834C76.606 81.6406 76.3395 81.2725 76.2317 80.9298C76.022 81.2218 75.8535 81.7646 75.5418 82.6916C75.3321 82.9836 75.0558 83.1837 74.6208 83.3584C74.0015 83.6665 73.4077 83.8159 72.8649 83.6478C72.3221 83.4798 71.9635 83.1784 71.6558 82.5596C71.5892 82.4675 71.5226 82.3755 71.4148 82.0328C71.2816 81.8487 71.1738 81.506 71.0405 81.3219L70.5997 80.519C70.2254 79.8082 69.9589 79.4401 69.7335 79.3227C69.6669 79.2307 69.5082 79.2054 69.324 79.3387C69.2318 79.4054 69.0731 79.3801 68.7047 79.6468L68.6381 79.5548L68.3716 79.1867L68.397 79.028C69.226 78.4278 70.055 77.8277 70.7507 77.0435L71.1348 77.1862C71.4169 77.9637 71.7246 78.5825 72.1243 79.1347L72.7396 80.3723C73.0473 80.9911 73.3138 81.3592 73.447 81.5433C73.6469 81.8193 73.8722 81.9367 74.031 81.962C74.3484 82.0127 74.5326 81.8794 74.7835 81.838C75.0598 81.638 75.4282 81.3712 75.5713 80.9871C75.7144 80.603 75.6732 80.3523 75.5655 80.0095C75.4322 79.8255 75.4577 79.6668 75.3911 79.5747L74.8424 78.4291C74.3094 77.6929 74.0684 77.1661 73.9097 77.1408C73.843 77.0488 73.6843 77.0234 73.5001 77.1568C73.408 77.2235 73.2493 77.1981 72.8808 77.4649L72.7221 77.4395L72.4556 77.0714L72.4811 76.9127C73.31 76.3126 74.0469 75.7791 74.8347 74.9282L75.1522 74.9789C75.4598 75.5977 75.742 76.3752 76.1417 76.9274L77.1979 78.9679C77.7054 79.8628 77.9464 80.3896 78.1052 80.4149C78.1718 80.5069 78.2639 80.4403 78.2639 80.4403C78.356 80.3736 78.6069 80.3322 79.0419 80.1575L79.2006 80.1829L79.375 80.6176Z" fill="#343F24"/>
<path d="M85.2836 71.7117C84.9151 71.9784 84.823 72.0451 84.7309 72.1118C84.6388 72.1785 84.5467 72.2452 84.5878 72.4959C84.5624 72.6546 84.4859 73.1308 84.4506 73.8576L84.2075 77.3999C84.182 77.5586 84.1722 78.1267 84.178 79.1043L82.9649 79.5618C82.2732 78.8003 81.7147 78.2228 81.0896 77.5533C80.1059 76.5824 79.3476 75.7288 78.6558 74.9673C78.3893 74.5992 78.0719 74.5485 77.9131 74.5232C77.7544 74.4979 77.6623 74.5645 77.4115 74.6059L77.2371 74.1711L77.3292 74.1044C77.7642 73.9297 78.4501 73.7136 79.2281 73.4309C80.0061 73.1481 80.5333 72.9067 80.9683 72.732L81.1271 72.7574L81.3015 73.1921L81.2093 73.2588C80.8664 73.3669 80.6822 73.5002 80.5901 73.5669C80.498 73.6336 80.4059 73.7003 80.4725 73.7923C80.5391 73.8843 81.0721 74.6205 82.2557 75.8675C82.8808 76.537 83.306 76.9304 83.4393 77.1145C83.4746 76.3876 83.5354 75.5021 83.5707 74.7752C83.6824 73.5722 83.559 72.82 83.5845 72.6613C83.5179 72.5693 83.4512 72.4773 83.3591 72.5439C83.2004 72.5186 83.0162 72.652 82.6732 72.76L82.5145 72.7347L82.3401 72.2999L82.4322 72.2332C82.7752 72.1252 83.2102 71.9505 83.7374 71.7091C84.2645 71.4677 84.6996 71.2929 85.1346 71.1182L85.2013 71.2102L85.2836 71.7117Z" fill="#343F24"/>
<path d="M92.0243 76.3699C91.4971 76.6113 90.8367 76.6686 89.9 76.926C88.9632 77.1835 88.3694 77.3328 87.9344 77.5076L87.8678 77.4155L87.6934 76.9808L87.7855 76.9141C88.2205 76.7394 88.5635 76.6313 88.6556 76.5646C88.7477 76.4979 88.7732 76.3392 88.7065 76.2472C88.5576 75.6537 88.5008 74.9936 88.2853 74.308L88.0286 73.3718C87.7719 72.4356 87.5976 72.0008 87.4643 71.8167C87.3977 71.7247 87.2389 71.6994 87.0802 71.674C87.0802 71.674 86.8294 71.7154 86.4864 71.8234L86.4198 71.7314L86.312 71.3886L86.4042 71.3219C87.2743 70.9725 88.2365 70.5564 89.0654 69.9562L89.2242 69.9816C89.4142 70.8258 89.5376 71.578 89.6866 72.1715L90.3077 74.3867C90.4154 74.7295 90.5898 75.1642 90.7387 75.7577C90.7799 76.0085 90.9386 76.0338 90.9386 76.0338C91.0973 76.0591 91.3482 76.0178 91.8499 75.9351L91.9165 76.0271L92.0243 76.3699ZM88.6285 67.6076C88.7363 67.9504 88.6187 68.1758 88.5011 68.4012C88.2914 68.6932 88.1072 68.8266 87.7643 68.9346C87.4213 69.0427 87.1038 68.992 86.8785 68.8746C86.5865 68.6652 86.4533 68.4812 86.3455 68.1384C86.2377 67.7957 86.3553 67.5703 86.4729 67.3449C86.6826 67.0528 86.8668 66.9194 87.2098 66.8114C87.5527 66.7034 87.8702 66.7541 88.0955 66.8714C88.3875 67.0808 88.5208 67.2649 88.6285 67.6076Z" fill="#343F24"/>
<path d="M102.23 72.6266C102.353 73.3788 102.092 73.9883 101.514 74.5471C100.936 75.106 100.158 75.3887 99.1547 75.5541C98.4943 75.6115 97.6086 75.5515 96.8149 75.4248L96.7483 75.3327C96.7326 74.9233 96.7169 74.5139 96.6758 74.2631L96.5779 73.3522L96.67 73.2855L97.0795 73.2695L97.1462 73.3615C97.2285 73.863 97.3362 74.2058 97.3107 74.3645C97.8026 74.8499 98.3454 75.018 99.0979 74.8939C99.5075 74.8779 99.9425 74.7032 100.152 74.4111C100.429 74.2111 100.48 73.8936 100.464 73.4842C100.448 73.0748 100.248 72.7987 99.7721 72.7227C99.6134 72.6973 99.2959 72.6467 98.7276 72.6373C97.8419 72.5773 97.2991 72.4093 96.915 72.2666C96.4643 72.0319 96.1311 71.5718 96.0743 70.9116C96.0175 70.2514 96.2782 69.6419 96.6721 69.2165C97.1581 68.7243 97.9361 68.4416 98.8474 68.3429C99.6665 68.3109 100.394 68.3455 100.936 68.5136L101.003 68.6056C100.977 68.7643 100.968 69.3324 101.066 70.2434L100.974 70.31L100.564 70.326L100.497 70.234C100.39 69.8913 100.348 69.6405 100.307 69.3898C99.9487 69.0884 99.4058 68.9204 98.8375 68.911C98.428 68.927 98.1517 69.1271 97.8753 69.3271C97.599 69.5272 97.548 69.8446 97.5892 70.0953C97.6048 70.5048 97.8968 70.7142 98.373 70.7902C98.5318 70.8155 99.008 70.8915 99.5763 70.9009C100.462 70.9609 101.005 71.1289 101.389 71.2716C101.84 71.5063 102.173 71.9665 102.23 72.6266Z" fill="#343F24"/>
<path d="M109.951 70.6844C110.017 70.7764 109.925 70.8431 109.966 71.0938L109.874 71.1605C109.188 71.3766 108.277 71.4753 107.14 71.4566C106.982 71.4313 106.572 71.4473 106.163 71.4633C105.753 71.4793 105.436 71.4286 105.185 71.47C105.242 72.1301 105.457 72.8157 105.882 73.2091C106.374 73.6945 106.984 73.9546 107.644 73.8972C108.212 73.9066 108.739 73.6652 109.425 73.4491L109.559 73.6332L109.206 74.3093C108.402 74.7508 107.624 75.0335 106.739 74.9735C105.602 74.9549 104.675 74.6441 104.025 74.1333C103.399 73.4638 103.117 72.6863 103.07 71.458C103.049 70.071 103.427 69.2361 104.072 68.7693C104.993 68.1024 105.863 67.753 106.682 67.721C107.66 67.7143 108.269 67.9743 108.761 68.4598C109.729 69.0213 110.011 69.7988 109.951 70.6844ZM108.02 70.539C108.066 69.244 107.599 68.5998 106.713 68.5398C105.828 68.4798 105.383 69.2227 105.338 70.5177L105.312 70.6764C105.63 70.7271 106.198 70.7364 106.925 70.7711C107.335 70.7551 107.677 70.6471 108.02 70.539C107.928 70.6057 108.02 70.539 108.02 70.539Z" fill="#343F24"/>
<path d="M119.481 75.7056C118.596 75.6456 118.119 75.5696 117.961 75.5442C117.802 75.5189 117.551 75.5602 117.234 75.5096C116.916 75.4589 116.665 75.5002 116.507 75.4749L116.44 75.3829C116.583 74.9988 116.567 74.5893 116.618 74.2719C116.342 74.472 115.815 74.7134 115.078 75.2468C114.735 75.3549 114.325 75.3709 114.008 75.3202C113.373 75.2188 112.764 74.9588 112.497 74.5907C112.164 74.1306 111.99 73.6958 112.092 73.061C112.025 72.9689 112.142 72.7435 112.168 72.5848C112.219 72.2674 112.244 72.1087 112.295 71.7913L112.448 70.839C112.601 69.8868 112.611 69.3186 112.544 69.2266C112.478 69.1346 112.411 69.0426 112.252 69.0172C112.252 69.0172 111.935 68.9666 111.617 68.9159L111.551 68.8239L111.535 68.4144L111.627 68.3477C112.605 68.341 113.583 68.3344 114.678 68.1023L114.904 68.2197C114.776 69.0132 114.582 69.7147 114.547 70.4416L114.41 71.8033C114.308 72.4381 114.324 72.8475 114.273 73.165C114.314 73.4157 114.355 73.6664 114.488 73.8505C114.621 74.0345 114.939 74.0852 115.256 74.1359C115.666 74.1199 116.075 74.1039 116.352 73.9038C116.628 73.7037 116.838 73.4117 116.889 73.0943C116.914 72.9355 116.94 72.7768 116.965 72.6181L117.169 71.3485C117.322 70.3962 117.332 69.8281 117.265 69.736C117.199 69.644 117.132 69.552 116.973 69.5266C116.973 69.5266 116.656 69.476 116.338 69.4253L116.272 69.3333L116.256 68.9238L116.348 68.8571C117.326 68.8505 118.304 68.8438 119.399 68.6117L119.533 68.7958C119.339 69.4973 119.303 70.2241 119.176 71.0177L118.886 73.3316C118.799 74.3759 118.723 74.852 118.764 75.1028C118.831 75.1948 118.831 75.1948 118.897 75.2868C119.056 75.3121 119.281 75.4295 119.691 75.4135L119.758 75.5055L119.481 75.7056Z" fill="#343F24"/>
<path d="M129.461 71.8468C129.051 71.8628 128.892 71.8375 128.734 71.8121C128.641 71.8788 128.549 71.9455 128.365 72.0789C128.181 72.2122 127.971 72.5043 127.552 73.0885L125.322 75.8252C125.229 75.8919 124.902 76.4094 124.299 77.1269L122.962 76.8322C122.931 76.0133 122.741 75.1691 122.709 74.3502C122.529 72.9378 122.298 71.8429 122.133 70.8399C122.118 70.4305 121.918 70.1544 121.785 69.9704C121.718 69.8784 121.559 69.853 121.401 69.8277L121.334 69.7357L121.477 69.3516L121.569 69.2849C122.045 69.3609 122.655 69.621 123.515 69.8397C124.217 70.033 124.918 70.2264 125.328 70.2104L125.394 70.3024L125.251 70.6865L125.159 70.7532C124.775 70.6105 124.524 70.6519 124.366 70.6265C124.207 70.6012 124.115 70.6679 124.181 70.7599C124.156 70.9186 124.254 71.8295 124.475 73.4926C124.573 74.4035 124.655 74.905 124.696 75.1557C125.208 74.5049 125.627 73.9207 126.206 73.3619C126.927 72.419 127.346 71.8348 127.464 71.6094C127.489 71.4507 127.489 71.4507 127.33 71.4254C127.264 71.3333 126.946 71.2827 126.562 71.14L126.496 71.048L126.639 70.6638L126.731 70.5972C127.115 70.7399 127.591 70.8159 128.134 70.9839C128.677 71.152 129.153 71.228 129.537 71.3707L129.604 71.4627L129.461 71.8468Z" fill="#343F24"/>
<path d="M132.192 79.6881C131.649 79.52 131.04 79.26 130.113 78.9492C129.278 78.5718 128.576 78.3784 128.1 78.3024L128.034 78.2104L128.177 77.8263L128.269 77.7596C128.812 77.9276 129.037 78.045 129.129 77.9783C129.288 78.0037 129.313 77.845 129.405 77.7783C129.666 77.1688 129.927 76.5593 130.187 75.9498L130.591 74.9562C130.903 74.0293 131.071 73.4865 131.097 73.3277C131.122 73.169 130.964 73.1437 130.897 73.0517C130.897 73.0517 130.672 72.9343 130.287 72.7916L130.221 72.6996L130.364 72.3155L130.456 72.2488C131.383 72.5595 132.427 72.6449 133.472 72.7302L133.605 72.9143C133.227 73.7492 132.966 74.3587 132.706 74.9682L131.873 77.1141C131.73 77.4982 131.586 77.8823 131.485 78.5171C131.459 78.6758 131.434 78.8345 131.5 78.9265C131.567 79.0186 131.859 79.228 132.335 79.304L132.402 79.396L132.192 79.6881ZM134.556 70.543C134.505 70.8604 134.228 71.0604 133.978 71.1018C133.635 71.2098 133.384 71.2512 133.158 71.1338C132.841 71.0831 132.641 70.8071 132.441 70.531C132.241 70.2549 132.292 69.9375 132.41 69.7121C132.461 69.3947 132.737 69.1946 133.08 69.0866C133.423 68.9786 133.674 68.9372 133.966 69.1466C134.283 69.1973 134.483 69.4734 134.683 69.7494C134.658 69.9081 134.607 70.2256 134.556 70.543Z" fill="#343F24"/>
<path d="M142.581 82.4052C142.228 83.0814 141.676 83.4815 140.923 83.6055C140.171 83.7296 139.31 83.5109 138.409 83.0414C137.733 82.6893 137.241 82.2039 136.616 81.5344L136.641 81.3757C136.943 81.0169 137.153 80.7248 137.271 80.4994L137.715 79.7566L137.807 79.6899L138.258 79.9246L138.325 80.0166C138.09 80.4674 137.947 80.8515 137.947 80.8515C138.003 81.5117 138.495 81.9971 139.079 82.4159C139.53 82.6506 139.847 82.7013 140.19 82.5933C140.533 82.4852 140.717 82.3519 140.927 82.0598C141.07 81.6757 141.121 81.3583 140.855 80.9902C140.721 80.8061 140.429 80.5968 140.071 80.2953C139.42 79.7845 139.021 79.2324 138.821 78.9563C138.58 78.4295 138.656 77.9534 138.917 77.3439C139.27 76.6677 139.73 76.3343 140.39 76.2769C141.143 76.1529 141.845 76.3463 142.746 76.8157C143.489 77.2598 144.006 77.5866 144.406 78.1387L144.38 78.2974C144.196 78.4308 143.869 78.9483 143.424 79.6911L143.332 79.7578L142.948 79.6151L142.881 79.5231C143.091 79.231 143.142 78.9136 143.167 78.7549C143.085 78.2534 142.818 77.8853 142.209 77.6253C141.825 77.4826 141.6 77.3652 141.19 77.3812C140.939 77.4226 140.663 77.6226 140.545 77.848C140.402 78.2321 140.443 78.4829 140.71 78.851C140.843 79.035 141.135 79.2444 141.56 79.6378C142.211 80.1486 142.703 80.6341 142.81 80.9768C143.077 81.3449 143.001 81.821 142.581 82.4052Z" fill="#343F24"/>
<path d="M150.171 85.3256C150.079 85.3923 150.053 85.551 149.961 85.6177L149.869 85.6844C149.26 85.4243 148.425 85.0469 147.482 84.3267C147.257 84.2093 147.124 84.0253 146.673 83.7906C146.381 83.5812 146.089 83.3718 145.864 83.2544C145.444 83.8386 145.342 84.4734 145.399 85.1336C145.456 85.7938 145.856 86.3459 146.44 86.7647C146.798 87.0661 147.408 87.3262 148.135 87.3608L148.176 87.6116L147.464 87.9863C146.579 87.9263 145.81 87.6409 145.068 87.1968C144.125 86.4766 143.592 85.7404 143.402 84.8962C143.212 84.052 143.524 83.1251 144.153 82.2489C144.899 81.1472 145.728 80.5471 146.614 80.6071C147.751 80.6257 148.703 80.7777 149.354 81.2885C150.163 81.8247 150.563 82.3768 150.686 83.129C150.902 83.8145 150.774 84.6081 150.171 85.3256ZM148.578 84.0946C149.324 82.993 149.36 82.2661 148.617 81.822C147.808 81.2859 147.188 81.594 146.375 82.6036L146.283 82.6703C146.483 82.9463 146.934 83.1811 147.517 83.5998C147.809 83.8092 148.101 84.0186 148.486 84.1613C148.578 84.0946 148.578 84.0946 148.578 84.0946Z" fill="#343F24"/>
<path d="M154.893 94.9506C154.242 94.4398 153.883 94.1384 153.75 93.9543C153.684 93.8623 153.392 93.6529 153.166 93.5355C152.874 93.3261 152.741 93.1421 152.582 93.1168L152.516 93.0247C152.792 92.8247 153.094 92.4659 153.37 92.2659C153.053 92.2152 152.484 92.2059 151.506 92.2125C151.122 92.0698 150.83 91.8605 150.631 91.5844C150.139 91.0989 149.806 90.6388 149.815 90.0707C149.733 89.5692 149.902 89.0264 150.388 88.5342C150.48 88.4676 150.572 88.4009 150.782 88.1088C150.966 87.9754 151.176 87.6833 151.36 87.55L151.963 86.8324C152.567 86.1149 152.961 85.6895 152.986 85.5308C153.012 85.3721 152.945 85.28 152.879 85.188C152.812 85.096 152.679 84.9119 152.387 84.7025L152.32 84.6105L152.53 84.3184L152.688 84.3438C153.406 84.9466 154.307 85.416 155.367 85.9108L155.408 86.1616C154.83 86.7204 154.344 87.2125 153.858 87.7047L152.953 88.7809C152.467 89.2731 152.257 89.5652 152.14 89.7906C152.022 90.016 151.904 90.2413 151.946 90.4921C151.987 90.7428 152.12 90.9269 152.32 91.2029C152.612 91.4123 152.904 91.6217 153.313 91.6057C153.723 91.5897 153.974 91.5483 154.183 91.2563C154.368 91.1229 154.393 90.9642 154.485 90.8975L155.365 89.9799C155.969 89.2624 156.363 88.8369 156.388 88.6782C156.414 88.5195 156.347 88.4275 156.28 88.3355C156.214 88.2434 156.081 88.0594 155.789 87.85L155.722 87.758L155.932 87.4659L156.09 87.4912C156.808 88.0941 157.709 88.5635 158.769 89.0583L158.81 89.309C158.324 89.8012 157.746 90.36 157.26 90.8521L155.777 92.4872C155.081 93.2714 154.687 93.6969 154.661 93.8556C154.569 93.9223 154.636 94.0143 154.703 94.1063C154.769 94.1984 154.902 94.3824 155.261 94.6838L155.328 94.7758L154.893 94.9506Z" fill="#343F24"/>
<path d="M165.376 97.6001C165.084 97.3907 164.858 97.2734 164.792 97.1814C164.725 97.0893 164.633 97.156 164.382 97.1974C164.131 97.2387 163.788 97.3467 163.102 97.5628L159.698 98.4844C159.606 98.5511 159.013 98.7005 158.076 98.9579L157.184 97.9203C157.537 97.2441 157.982 96.5012 158.36 95.6664C158.974 94.3807 159.536 93.4124 160.006 92.5109C160.149 92.1268 160.267 91.9014 160.226 91.6506C160.159 91.5586 160.093 91.4666 159.959 91.2825L159.985 91.1238L160.353 90.8571L160.512 90.8824C160.778 91.2505 161.27 91.736 161.803 92.4722C162.27 93.1163 162.695 93.5097 162.961 93.8778L162.936 94.0366L162.568 94.3033L162.409 94.278C162.209 94.0019 161.984 93.8845 161.917 93.7925C161.85 93.7005 161.758 93.7672 161.666 93.8338C161.574 93.9005 161.129 94.6434 160.306 96.2212C159.861 96.964 159.6 97.5735 159.575 97.7322C160.353 97.4495 161.105 97.3254 161.791 97.1094C162.979 96.8106 163.598 96.5025 163.782 96.3691C163.875 96.3025 163.808 96.2104 163.833 96.0517C163.767 95.9597 163.634 95.7757 163.367 95.4076L163.393 95.2489L163.761 94.9821L163.92 95.0075C164.12 95.2835 164.453 95.7437 164.811 96.0451C165.144 96.5052 165.503 96.8066 165.77 97.1747L165.744 97.3334L165.376 97.6001Z" fill="#343F24"/>
<path d="M163.123 105.542C162.789 105.082 162.39 104.53 161.857 103.794C161.324 103.058 160.924 102.506 160.658 102.137L160.683 101.979L161.051 101.712L161.21 101.737C161.477 102.105 161.677 102.381 161.835 102.407C161.902 102.499 161.994 102.432 162.245 102.391C162.705 102.057 163.325 101.749 163.969 101.283L164.798 100.682C165.535 100.149 165.996 99.8154 166.113 99.59C166.205 99.5233 166.139 99.4313 166.098 99.1806C166.031 99.0886 165.964 98.9965 165.698 98.6285L165.723 98.4698L166.092 98.203L166.251 98.2283C166.85 99.0566 167.567 99.6594 168.351 100.354L168.326 100.513C167.522 100.954 166.97 101.354 166.509 101.688L164.6 102.93C164.324 103.13 163.956 103.396 163.403 103.797C163.219 103.93 163.193 104.089 163.193 104.089C163.168 104.247 163.368 104.523 163.634 104.891L163.609 105.05L163.123 105.542ZM170.301 99.3633C170.025 99.5633 169.774 99.6047 169.457 99.554C169.139 99.5033 168.847 99.2939 168.714 99.1099C168.514 98.8338 168.473 98.5831 168.524 98.2657C168.575 97.9482 168.692 97.7229 168.969 97.5228C169.245 97.3227 169.496 97.2814 169.813 97.3321C170.131 97.3828 170.423 97.5921 170.556 97.7762C170.756 98.0523 170.797 98.303 170.746 98.6204C170.695 98.9378 170.577 99.1632 170.301 99.3633Z" fill="#343F24"/>
<path d="M170.099 113.818C169.387 114.193 168.66 114.158 167.984 113.806C167.308 113.454 166.683 112.784 166.334 111.915C166.026 111.296 165.836 110.452 165.713 109.699L165.738 109.541C166.174 109.366 166.516 109.258 166.701 109.125L167.571 108.775L167.73 108.8L167.904 109.235L167.878 109.394C167.351 109.635 167.167 109.769 167.075 109.835C166.814 110.445 166.871 111.105 167.179 111.724C167.353 112.159 167.645 112.368 167.937 112.577C168.229 112.787 168.572 112.679 168.915 112.571C169.35 112.396 169.493 112.012 169.385 111.669C169.411 111.51 169.303 111.168 169.154 110.574C168.964 109.73 168.815 109.137 168.958 108.752C169.035 108.276 169.429 107.851 170.048 107.543C170.667 107.235 171.235 107.244 171.912 107.596C172.588 107.948 173.146 108.526 173.495 109.395C173.869 110.106 174.085 110.792 173.983 111.426L173.891 111.493C173.64 111.534 173.113 111.776 172.335 112.059L172.268 111.967L172.094 111.532L172.119 111.373C172.395 111.173 172.672 110.973 172.764 110.906C172.999 110.456 172.917 109.954 172.676 109.427C172.568 109.084 172.276 108.875 171.984 108.666C171.692 108.456 171.441 108.498 171.165 108.698C170.822 108.806 170.679 109.19 170.694 109.599C170.736 109.85 170.843 110.193 170.926 110.694C171.116 111.538 171.265 112.132 171.214 112.449C171.02 113.151 170.626 113.576 170.099 113.818Z" fill="#343F24"/>
<path d="M174.46 120.618C174.368 120.685 174.209 120.659 174.117 120.726L173.958 120.701C173.558 120.149 173.21 119.279 172.794 118.318C172.661 118.133 172.62 117.883 172.445 117.448C172.338 117.105 172.23 116.762 172.097 116.578C171.477 116.887 170.925 117.287 170.664 117.896C170.403 118.506 170.301 119.14 170.517 119.826C170.691 120.261 171.024 120.721 171.583 121.298L171.465 121.524L170.672 121.397C170.021 120.886 169.488 120.15 169.206 119.373C168.816 118.252 168.81 117.275 169.163 116.598C169.541 115.764 170.278 115.23 171.24 114.814C172.453 114.356 173.431 114.35 174.174 114.794C175.116 115.514 175.742 116.184 176.024 116.961C176.373 117.831 176.337 118.558 176.077 119.167C175.975 119.802 175.33 120.269 174.46 120.618ZM173.972 118.587C175.185 118.129 175.604 117.545 175.414 116.701C175.066 115.832 174.364 115.638 173.151 116.096L173.059 116.162C173.1 116.413 173.249 117.007 173.556 117.625C173.664 117.968 173.772 118.311 173.972 118.587C173.88 118.654 173.88 118.654 173.972 118.587Z" fill="#343F24"/>
<path d="M172.844 131.186C172.654 130.341 172.479 129.907 172.505 129.748C172.53 129.589 172.397 129.405 172.289 129.062C172.182 128.72 172.14 128.469 172.074 128.377L172.166 128.31C172.575 128.294 172.918 128.186 173.261 128.078C172.969 127.869 172.544 127.475 171.801 127.031C171.602 126.755 171.494 126.412 171.386 126.07C171.171 125.384 171.339 124.841 171.574 124.391C171.809 123.94 172.27 123.606 172.864 123.457C172.956 123.39 173.115 123.416 173.365 123.374C173.616 123.333 173.867 123.292 174.118 123.25L174.963 123.059C175.899 122.802 176.401 122.719 176.585 122.586C176.677 122.519 176.703 122.361 176.728 122.202C176.728 122.202 176.687 121.951 176.671 121.542L176.764 121.475L177.107 121.367L177.173 121.459C177.43 122.395 177.845 123.357 178.353 124.252L178.327 124.41C177.575 124.535 176.822 124.659 176.07 124.783L174.723 125.056C174.13 125.205 173.628 125.288 173.444 125.421C173.193 125.463 172.983 125.755 172.866 125.98C172.748 126.206 172.789 126.456 172.738 126.774C172.846 127.117 172.954 127.459 173.312 127.761C173.604 127.97 173.922 128.021 174.239 128.071C174.49 128.03 174.582 127.963 174.649 128.055L175.903 127.849C176.84 127.591 177.341 127.509 177.526 127.375C177.618 127.309 177.643 127.15 177.669 126.991C177.669 126.991 177.628 126.74 177.612 126.331L177.704 126.264L178.047 126.156L178.114 126.248C178.37 127.185 178.786 128.146 179.293 129.041L179.268 129.2C178.515 129.324 177.855 129.381 177.01 129.572L174.819 130.036C173.816 130.201 173.289 130.443 173.197 130.509C173.104 130.576 173.104 130.576 173.079 130.735C173.054 130.894 173.095 131.144 173.202 131.487L173.11 131.554L172.844 131.186Z" fill="#343F24"/>
<path d="M179.777 139.21C179.67 138.867 179.628 138.617 179.562 138.525C179.495 138.433 179.429 138.341 179.27 138.315C179.044 138.198 178.66 138.055 178.051 137.795L174.753 136.536C174.594 136.511 174.051 136.343 173.124 136.032L173.011 134.712C173.722 134.337 174.434 133.962 175.304 133.613C176.542 132.997 177.53 132.422 178.426 131.914C178.861 131.739 178.978 131.513 179.096 131.288C179.121 131.129 179.147 130.971 179.172 130.812L179.264 130.745L179.674 130.729L179.74 130.821C179.756 131.231 179.88 131.983 179.819 132.868C179.85 133.687 179.999 134.281 180.015 134.69L179.923 134.757L179.513 134.773L179.446 134.681C179.431 134.272 179.39 134.021 179.323 133.929C179.256 133.837 179.19 133.745 179.098 133.811C178.939 133.786 178.135 134.228 176.713 134.977C175.909 135.419 175.382 135.66 175.198 135.793C175.966 136.079 176.668 136.272 177.436 136.557C178.588 136.986 179.29 137.179 179.54 137.138C179.632 137.071 179.725 137.004 179.725 137.004C179.75 136.846 179.776 136.687 179.76 136.277L179.852 136.211L180.262 136.195L180.328 136.287C180.344 136.696 180.359 137.106 180.35 137.674C180.34 138.242 180.422 138.743 180.438 139.153L180.346 139.219L179.777 139.21Z" fill="#343F24"/>
<path d="M173.386 144.538C173.396 143.969 173.431 143.243 173.4 142.424C173.46 141.538 173.404 140.878 173.413 140.31L173.506 140.243L173.915 140.227L173.982 140.319C174.064 140.821 174.013 141.138 174.08 141.23C174.146 141.322 174.213 141.414 174.464 141.373C175.099 141.474 175.759 141.417 176.486 141.451L177.464 141.445C178.442 141.438 179.01 141.447 179.102 141.381C179.194 141.314 179.287 141.247 179.312 141.089C179.312 141.089 179.363 140.771 179.347 140.362L179.439 140.295L179.849 140.279L179.916 140.371C179.921 141.349 180.178 142.285 180.409 143.38L180.292 143.605C179.406 143.545 178.679 143.511 178.111 143.501L175.837 143.464C175.52 143.413 175.018 143.496 174.358 143.553C174.199 143.528 174.107 143.595 174.015 143.661C173.989 143.82 173.872 144.045 173.862 144.614L173.77 144.68L173.386 144.538ZM182.816 143.601C182.498 143.551 182.273 143.433 181.981 143.224C181.781 142.948 181.648 142.764 181.632 142.354C181.683 142.037 181.734 141.719 182.01 141.519C182.287 141.319 182.471 141.186 182.788 141.237C183.106 141.287 183.331 141.405 183.623 141.614C183.823 141.89 183.956 142.074 183.972 142.484C183.921 142.801 183.87 143.118 183.594 143.318C183.317 143.519 183.133 143.652 182.816 143.601Z" fill="#343F24"/>
<path d="M174.27 155.26C173.476 155.133 172.892 154.714 172.585 154.095C172.21 153.384 172.179 152.566 172.265 151.521C172.367 150.886 172.653 150.118 173.098 149.375L173.19 149.309C173.574 149.451 173.892 149.502 174.209 149.553L175.07 149.772L175.136 149.864L175.06 150.34L174.968 150.406C174.492 150.33 174.082 150.346 174.015 150.254C173.396 150.562 173.069 151.08 172.941 151.873C172.865 152.35 172.973 152.692 173.081 153.035C173.28 153.311 173.48 153.587 173.89 153.571C174.366 153.647 174.642 153.447 174.852 153.155C174.878 152.996 175.087 152.704 175.256 152.161C175.542 151.393 175.869 150.876 176.079 150.584C176.473 150.158 176.974 150.076 177.609 150.177C178.244 150.278 178.828 150.697 179.136 151.316C179.444 151.935 179.567 152.687 179.414 153.639C179.287 154.433 179.026 155.042 178.699 155.56L178.607 155.626C178.381 155.509 177.905 155.433 177.045 155.214L176.978 155.122L177.055 154.646L177.147 154.579C177.464 154.63 177.782 154.681 178.033 154.639C178.401 154.373 178.795 153.947 178.805 153.379C178.948 152.995 178.84 152.652 178.64 152.376C178.44 152.1 178.307 151.916 177.99 151.865C177.672 151.815 177.329 151.923 177.094 152.374C176.976 152.599 176.925 152.916 176.665 153.526C176.379 154.294 176.118 154.904 175.842 155.104C175.407 155.278 174.905 155.361 174.27 155.26Z" fill="#343F24"/>
<path d="M173.948 163.347C173.882 163.255 173.79 163.322 173.564 163.204L173.498 163.112C173.533 162.385 173.66 161.592 173.931 160.414C173.956 160.256 174.007 159.938 174.15 159.554C174.293 159.17 174.344 158.852 174.37 158.694C173.668 158.5 173.075 158.65 172.547 158.891C171.928 159.199 171.601 159.717 171.407 160.418C171.33 160.894 171.228 161.529 171.444 162.215L171.26 162.348L170.609 161.837C170.419 160.993 170.388 160.174 170.607 159.314C170.944 158.228 171.481 157.419 172.285 156.977C173.088 156.536 174 156.437 175.085 156.773C176.33 157.135 177.139 157.671 177.488 158.54C177.878 159.661 177.976 160.572 177.756 161.432C177.537 162.292 177.025 162.943 176.472 163.343C175.628 163.534 174.809 163.566 173.948 163.347ZM174.664 161.426C175.908 161.788 176.686 161.505 176.906 160.645C177.125 159.785 176.659 159.141 175.414 158.779L175.256 158.754C175.138 158.979 174.969 159.522 174.775 160.223C174.632 160.608 174.581 160.925 174.53 161.242C174.505 161.401 174.664 161.426 174.664 161.426Z" fill="#343F24"/>
<path d="M166.448 171.021C166.734 170.253 166.969 169.802 166.994 169.643C167.02 169.484 167.137 169.259 167.281 168.875C167.331 168.557 167.449 168.332 167.567 168.107L167.659 168.04C167.951 168.249 168.335 168.392 168.719 168.535C168.611 168.192 168.462 167.599 168.18 166.821C168.231 166.504 168.215 166.094 168.425 165.802C168.686 165.193 169.08 164.767 169.607 164.526C170.134 164.284 170.61 164.36 171.22 164.62C171.286 164.712 171.445 164.738 171.67 164.855C171.896 164.972 172.121 165.09 172.346 165.207L173.181 165.585C174.016 165.962 174.559 166.13 174.718 166.155C174.81 166.089 174.902 166.022 174.994 165.955C175.086 165.889 175.111 165.73 175.255 165.346L175.347 165.279L175.731 165.422L175.797 165.514C175.486 166.441 175.241 167.46 175.154 168.504L174.97 168.637C174.294 168.285 173.618 167.933 173.009 167.673L171.723 167.061C171.114 166.801 170.73 166.658 170.412 166.608C170.095 166.557 169.844 166.598 169.66 166.732C169.475 166.865 169.291 166.998 169.148 167.382C169.005 167.767 168.954 168.084 169.128 168.519C169.236 168.862 169.436 169.138 169.661 169.255C169.887 169.372 170.046 169.398 170.046 169.398L171.264 169.918C172.099 170.295 172.642 170.463 172.801 170.489C172.96 170.514 172.985 170.355 173.077 170.289C173.169 170.222 173.195 170.063 173.338 169.679L173.43 169.612L173.814 169.755L173.881 169.847C173.569 170.774 173.324 171.793 173.238 172.837L173.054 172.971C172.377 172.618 171.768 172.358 171.092 172.006L169.038 171.109C168.045 170.706 167.594 170.471 167.343 170.513C167.251 170.579 167.251 170.579 167.159 170.646C167.067 170.713 166.949 170.938 166.806 171.322L166.714 171.389L166.448 171.021Z" fill="#343F24"/>
<path d="M167.423 181.676C167.566 181.292 167.592 181.133 167.617 180.974C167.55 180.882 167.576 180.724 167.509 180.632C167.376 180.447 167.11 180.079 166.869 179.553L164.895 176.633C164.829 176.541 164.496 176.081 163.896 175.253L164.576 174.059C165.37 174.186 166.163 174.313 167.049 174.373C168.411 174.509 169.522 174.686 170.567 174.771C171.043 174.847 171.294 174.806 171.478 174.673C171.57 174.606 171.662 174.539 171.78 174.314L171.872 174.247L172.164 174.456L172.23 174.549C171.995 174.999 171.668 175.517 171.131 176.326C170.778 177.003 170.451 177.52 170.216 177.971L170.124 178.037L169.832 177.828L169.765 177.736C169.975 177.444 170.092 177.219 170.118 177.06C170.143 176.901 170.143 176.901 170.077 176.809C170.01 176.717 169.058 176.565 167.378 176.378C166.426 176.226 165.95 176.15 165.699 176.192C166.165 176.836 166.632 177.48 167.031 178.032C167.764 179.044 168.164 179.597 168.389 179.714C168.456 179.806 168.548 179.739 168.64 179.673C168.732 179.606 168.85 179.381 169.059 179.088L169.152 179.022L169.536 179.164L169.602 179.256C169.393 179.549 169.157 179.999 168.922 180.45C168.595 180.968 168.36 181.418 168.15 181.71L168.058 181.777L167.423 181.676Z" fill="#343F24"/>
<path d="M159.181 182.313C159.509 181.796 159.928 181.212 160.44 180.561C161.043 179.843 161.396 179.167 161.606 178.875L161.698 178.808L162.056 179.11L162.123 179.202C161.821 179.561 161.678 179.945 161.678 179.945C161.653 180.103 161.719 180.195 161.878 180.221C162.303 180.614 162.887 181.033 163.471 181.452L164.347 182.08C165.064 182.683 165.515 182.917 165.74 183.035C165.899 183.06 165.991 182.993 166.083 182.927C166.175 182.86 166.201 182.701 166.503 182.343L166.595 182.276L166.887 182.485L166.953 182.577C166.416 183.387 166.013 184.38 165.701 185.307L165.517 185.441C164.8 184.838 164.216 184.419 163.79 184.026L161.972 182.677C161.68 182.468 161.321 182.167 160.804 181.84C160.579 181.722 160.579 181.722 160.486 181.789C160.394 181.856 160.118 182.056 159.883 182.507L159.791 182.573L159.181 182.313ZM167.469 186.973C167.177 186.764 167.043 186.58 167.028 186.17C166.987 185.919 167.037 185.602 167.247 185.31C167.457 185.018 167.641 184.885 167.984 184.776C168.327 184.668 168.552 184.786 168.844 184.995C169.136 185.205 169.27 185.389 169.285 185.798C169.326 186.049 169.275 186.366 169.066 186.658C168.856 186.95 168.672 187.084 168.329 187.192C167.919 187.208 167.602 187.157 167.469 186.973Z" fill="#343F24"/>
<path d="M153.7 191.613C153.142 191.035 152.926 190.35 152.961 189.623C153.089 188.829 153.442 188.153 154.137 187.369C154.623 186.877 155.268 186.41 156.072 185.968L156.23 185.994C156.497 186.362 156.697 186.638 156.922 186.755L157.547 187.425L157.522 187.583L157.22 187.942L157.061 187.917C156.636 187.523 156.411 187.406 156.344 187.314C155.617 187.279 155.09 187.521 154.604 188.013C154.302 188.372 154.092 188.664 154.041 188.981C153.99 189.299 154.098 189.641 154.39 189.851C154.749 190.152 155.066 190.203 155.501 190.028C155.685 189.895 155.962 189.695 156.397 189.52C157.134 188.987 157.661 188.745 158.07 188.729C158.572 188.646 159.115 188.814 159.607 189.3C160.099 189.785 160.247 190.379 160.212 191.106C160.177 191.833 159.732 192.575 159.062 193.201C158.484 193.76 157.931 194.16 157.404 194.401L157.245 194.376C157.112 194.192 156.779 193.732 156.154 193.062L156.179 192.904L156.481 192.545L156.64 192.57C156.932 192.78 157.065 192.964 157.29 193.081C157.766 193.157 158.294 192.916 158.687 192.49C158.897 192.198 159.107 191.906 159.158 191.589C159.209 191.271 159.168 191.02 158.876 190.811C158.584 190.602 158.266 190.551 157.831 190.726C157.647 190.859 157.371 191.059 156.91 191.392C156.173 191.926 155.646 192.167 155.303 192.275C154.668 192.174 154.125 192.006 153.7 191.613Z" fill="#343F24"/>
<path d="M148.769 197.987C148.702 197.895 148.635 197.803 148.569 197.711L148.594 197.553C149.014 196.968 149.684 196.343 150.538 195.584C150.723 195.451 150.907 195.317 151.209 194.959C151.577 194.692 151.761 194.558 151.879 194.333C151.387 193.848 150.87 193.521 150.235 193.419C149.6 193.318 148.914 193.534 148.361 193.934C147.993 194.201 147.665 194.719 147.313 195.395L146.995 195.344L146.872 194.592C147.158 193.824 147.603 193.081 148.34 192.547C149.194 191.788 150.131 191.531 151.017 191.591C151.902 191.651 152.712 192.187 153.403 192.949C154.295 193.986 154.552 194.923 154.332 195.783C153.995 196.868 153.525 197.77 152.88 198.237C152.143 198.77 151.524 199.078 150.797 199.044C150.044 199.168 149.394 198.657 148.769 197.987ZM150.493 196.879C151.318 197.825 152.086 198.11 152.664 197.551C153.401 197.018 153.37 196.199 152.478 195.161L152.412 195.069C152.135 195.269 151.767 195.536 151.122 196.003C150.846 196.203 150.544 196.562 150.36 196.695C150.427 196.787 150.427 196.787 150.493 196.879Z" fill="#343F24"/>
<path d="M138.275 199.975C138.92 199.508 139.447 199.266 139.539 199.2C139.631 199.133 139.908 198.933 140.184 198.733C140.46 198.533 140.645 198.399 140.829 198.266L140.895 198.358C141.003 198.701 141.27 199.069 141.47 199.345C141.587 199.12 141.781 198.418 142.001 197.558C142.21 197.266 142.487 197.066 142.855 196.799C143.408 196.399 144.002 196.25 144.544 196.418C145.021 196.494 145.538 196.82 145.846 197.439C145.912 197.531 145.979 197.623 146.179 197.899C146.312 198.083 146.512 198.359 146.553 198.61L146.994 199.413C147.435 200.216 147.768 200.676 147.993 200.793C148.06 200.885 148.152 200.819 148.403 200.777C148.495 200.711 148.587 200.644 149.022 200.469L149.181 200.495L149.447 200.863L149.422 201.021C148.593 201.622 147.923 202.247 147.135 203.098L146.976 203.073C146.602 202.362 146.294 201.743 145.894 201.191L145.187 200.02C144.787 199.468 144.521 199.1 144.388 198.916C144.188 198.64 143.962 198.522 143.712 198.564C143.461 198.605 143.21 198.646 142.934 198.846C142.565 199.113 142.355 199.405 142.304 199.722C142.161 200.107 142.202 200.357 142.402 200.633C142.536 200.817 142.602 200.909 142.669 201.001L143.31 202.08C143.751 202.883 144.084 203.343 144.309 203.461C144.376 203.553 144.468 203.486 144.719 203.445C144.811 203.378 144.995 203.245 145.338 203.137L145.497 203.162L145.763 203.53L145.738 203.689C144.909 204.289 144.238 204.915 143.451 205.765L143.292 205.74C142.984 205.121 142.61 204.41 142.21 203.858L140.97 201.951C140.462 201.056 140.129 200.596 139.97 200.571C139.904 200.479 139.812 200.545 139.812 200.545C139.72 200.612 139.469 200.653 139.1 200.92L138.942 200.895L138.275 199.975Z" fill="#343F24"/>
<path d="M132.885 209.207C133.253 208.94 133.346 208.873 133.438 208.806C133.53 208.74 133.555 208.581 133.581 208.422C133.606 208.264 133.683 207.787 133.626 207.127L133.618 203.626C133.644 203.468 133.561 202.966 133.556 201.989L134.794 201.372C135.353 201.95 135.911 202.527 136.628 203.13C137.612 204.101 138.462 204.888 139.246 205.583C139.605 205.884 139.83 206.002 139.989 206.027C140.148 206.052 140.24 205.986 140.424 205.852L140.583 205.878L140.757 206.312L140.665 206.379C140.23 206.554 139.611 206.862 138.741 207.211C138.029 207.586 137.502 207.827 137.067 208.002L136.908 207.977L136.734 207.542L136.759 207.383C137.102 207.275 137.287 207.142 137.379 207.075C137.471 207.009 137.496 206.85 137.496 206.85C137.43 206.758 136.804 206.088 135.529 204.908C134.904 204.239 134.478 203.845 134.253 203.728C134.284 204.547 134.249 205.273 134.28 206.092C134.327 207.321 134.384 207.981 134.425 208.232C134.492 208.324 134.559 208.416 134.651 208.349C134.743 208.282 134.994 208.241 135.337 208.133L135.495 208.158L135.67 208.593L135.578 208.66C135.235 208.768 134.8 208.942 134.272 209.184C133.745 209.425 133.31 209.6 132.942 209.867L132.783 209.841L132.885 209.207Z" fill="#343F24"/>
<path d="M129.832 213.521C129.724 213.178 129.75 213.02 129.893 212.636C130.103 212.344 130.287 212.21 130.563 212.01C130.906 211.902 131.224 211.953 131.449 212.07C131.674 212.187 131.966 212.397 132.074 212.74C132.182 213.082 132.131 213.4 132.013 213.625C131.803 213.917 131.619 214.051 131.343 214.251C131 214.359 130.749 214.4 130.457 214.191C130.073 214.048 129.94 213.864 129.832 213.521ZM125.843 204.908C126.37 204.667 127.056 204.451 127.9 204.26C128.77 203.911 129.456 203.695 129.891 203.52L129.958 203.612L130.132 204.047L130.04 204.113C129.605 204.288 129.262 204.396 129.237 204.555C129.145 204.621 129.119 204.78 129.186 204.872C129.335 205.466 129.55 206.151 129.766 206.837L130.089 207.865C130.438 208.735 130.587 209.328 130.745 209.353C130.812 209.445 130.971 209.471 131.063 209.404C131.063 209.404 131.314 209.363 131.749 209.188L131.815 209.28L131.923 209.623L131.831 209.689C130.961 210.039 130.065 210.547 129.144 211.214L128.986 211.189C128.796 210.344 128.58 209.659 128.431 209.065L127.718 206.917C127.61 206.574 127.436 206.139 127.195 205.612C127.061 205.428 126.995 205.336 126.903 205.403C126.744 205.378 126.493 205.419 126.058 205.594L125.899 205.568L125.843 204.908Z" fill="#343F24"/>
<path d="M116.011 209.361C115.888 208.608 116.082 207.907 116.66 207.348C117.238 206.789 117.949 206.415 118.953 206.249C119.705 206.125 120.432 206.16 121.318 206.22L121.385 206.312C121.4 206.721 121.416 207.131 121.457 207.381L121.555 208.292L121.463 208.359L120.961 208.442L120.895 208.35C120.812 207.848 120.705 207.505 120.638 207.413C120.146 206.928 119.511 206.827 118.759 206.951C118.257 207.033 117.981 207.233 117.704 207.433C117.495 207.726 117.377 207.951 117.485 208.294C117.501 208.703 117.859 209.005 118.269 208.989C118.427 209.014 118.837 208.998 119.313 209.074C120.199 209.134 120.767 209.143 121.059 209.353C121.51 209.587 121.843 210.047 121.992 210.641C122.115 211.393 121.947 211.936 121.461 212.428C120.975 212.92 120.263 213.295 119.26 213.46C118.508 213.584 117.781 213.55 117.146 213.448L117.079 213.356C117.105 213.198 117.048 212.537 116.858 211.693L116.95 211.627L117.359 211.611L117.426 211.703C117.534 212.045 117.575 212.296 117.708 212.48C118.067 212.782 118.61 212.95 119.203 212.8C119.613 212.784 119.889 212.584 120.166 212.384C120.442 212.184 120.493 211.867 120.452 211.616C120.436 211.206 120.144 210.997 119.668 210.921C119.509 210.896 119.1 210.912 118.531 210.902C117.645 210.842 117.077 210.833 116.785 210.624C116.401 210.481 116.16 209.954 116.011 209.361Z" fill="#343F24"/>
<path d="M108.307 211.713C108.24 211.621 108.266 211.462 108.291 211.303L108.383 211.236C109.069 211.02 109.914 210.83 111.051 210.848C111.209 210.874 111.552 210.766 111.962 210.75C112.371 210.734 112.622 210.692 112.873 210.651C112.816 209.991 112.509 209.372 112.083 208.979C111.592 208.493 111.049 208.325 110.23 208.357C109.728 208.44 109.134 208.589 108.515 208.897L108.382 208.713L108.668 207.945C109.405 207.411 110.183 207.129 111.002 207.097C112.164 206.957 113.091 207.267 113.741 207.778C114.458 208.381 114.807 209.251 114.88 210.32C114.993 211.641 114.682 212.567 114.104 213.126C113.249 213.885 112.379 214.235 111.468 214.333C110.557 214.432 109.855 214.239 109.363 213.753C108.687 213.401 108.379 212.782 108.307 211.713ZM110.329 211.791C110.443 213.112 110.909 213.756 111.821 213.657C112.732 213.558 113.151 212.974 113.038 211.654L113.063 211.495C112.746 211.444 112.244 211.527 111.425 211.559C111.015 211.575 110.672 211.683 110.421 211.725C110.329 211.791 110.329 211.791 110.329 211.791Z" fill="#343F24"/>
<path d="M98.514 207.301C99.3332 207.269 99.8094 207.345 100.06 207.303C100.219 207.329 100.47 207.287 100.787 207.338C101.105 207.389 101.356 207.347 101.514 207.373L101.581 207.465C101.53 207.782 101.453 208.258 101.403 208.576C101.679 208.375 102.139 208.042 102.876 207.509C103.219 207.401 103.629 207.385 103.946 207.435C104.673 207.47 105.124 207.705 105.549 208.098C105.974 208.491 106.057 208.993 106.114 209.653C106.18 209.745 106.155 209.904 106.037 210.129C105.986 210.447 105.961 210.605 106.002 210.856L105.941 211.742C105.88 212.627 105.87 213.195 106.004 213.379C106.07 213.471 106.137 213.563 106.296 213.589C106.296 213.589 106.613 213.639 106.931 213.69L106.997 213.782L107.013 214.192L106.921 214.258C105.943 214.265 104.939 214.43 103.844 214.662L103.619 214.545C103.746 213.752 103.781 213.025 103.817 212.298L103.887 210.844C103.989 210.209 103.907 209.708 103.866 209.457C103.825 209.206 103.783 208.956 103.492 208.746C103.358 208.562 103.041 208.512 102.723 208.461C102.314 208.477 101.971 208.585 101.694 208.785C101.418 208.985 101.208 209.277 101.158 209.594C101.199 209.845 101.173 210.004 101.081 210.071L101.036 211.366C100.975 212.251 100.965 212.819 101.099 213.003C101.165 213.095 101.232 213.187 101.391 213.213C101.391 213.213 101.708 213.263 102.025 213.314L102.092 213.406L102.108 213.816L102.016 213.882C101.038 213.889 100.034 214.054 98.939 214.286L98.7136 214.169C98.7489 213.442 98.943 212.741 98.9116 211.922L99.1097 209.675C99.1959 208.63 99.2058 208.062 99.1391 207.97C99.0725 207.878 99.0725 207.878 99.0059 207.786C98.8471 207.761 98.6218 207.643 98.2122 207.659L98.1456 207.567L98.514 207.301Z" fill="#343F24"/>
<path d="M88.8411 211.78C89.2507 211.764 89.4094 211.789 89.5015 211.722C89.5936 211.656 89.6857 211.589 89.87 211.456C90.0542 211.322 90.2639 211.03 90.6833 210.446L92.6881 207.592C92.7802 207.525 93.1075 207.008 93.6445 206.198L94.981 206.493C95.1044 207.245 95.2945 208.089 95.4845 208.934C95.7568 210.279 96.0547 211.466 96.1526 212.377C96.2349 212.879 96.3681 213.063 96.5935 213.18C96.6601 213.272 96.8189 213.297 96.9776 213.323L97.0442 213.415L96.9678 213.891L96.8757 213.958C96.3995 213.882 95.6979 213.688 94.9043 213.561C94.1106 213.435 93.4757 213.333 93.0916 213.191L93.025 213.099L93.1014 212.623L93.1935 212.556C93.511 212.607 93.8284 212.657 93.9205 212.591C94.0793 212.616 94.1048 212.457 94.1048 212.457C94.1302 212.298 93.9402 211.454 93.7188 209.791C93.5288 208.947 93.3799 208.353 93.3387 208.103C92.8272 208.754 92.4078 209.338 92.055 210.014C91.4005 211.049 90.9811 211.633 90.9556 211.792C90.9301 211.95 90.9301 211.95 91.0888 211.976C91.1555 212.068 91.4729 212.118 91.7904 212.169L91.857 212.261L91.7806 212.737L91.6885 212.804C91.3044 212.661 90.8282 212.585 90.352 212.509C89.8092 212.341 89.2409 212.332 88.9234 212.281L88.8568 212.189L88.8411 211.78Z" fill="#343F24"/>
<path d="M83.7632 213.491C83.8142 213.174 84.0905 212.974 84.2747 212.84C84.551 212.64 84.8685 212.691 85.186 212.742C85.5034 212.792 85.7033 213.068 85.9032 213.345C86.103 213.621 86.0521 213.938 86.0011 214.255C85.9501 214.573 85.6738 214.773 85.4896 214.906C85.2133 215.106 84.8958 215.056 84.5784 215.005C84.2609 214.954 84.061 214.678 83.8611 214.402C83.7534 214.059 83.7122 213.809 83.7632 213.491ZM85.5841 204.178C86.127 204.346 86.8285 204.54 87.6888 204.758C88.5491 204.977 89.2506 205.17 89.7268 205.246L89.7934 205.338L89.6504 205.723L89.5583 205.789C89.0821 205.713 88.7646 205.663 88.6059 205.637C88.5138 205.704 88.4217 205.771 88.3962 205.929C88.1355 206.539 88.0336 207.174 87.7729 207.783L87.4613 208.71C87.1497 209.637 87.0732 210.113 87.1144 210.364C87.181 210.456 87.2476 210.548 87.3142 210.64C87.3142 210.64 87.5396 210.757 87.9237 210.9L87.9903 210.992L87.8472 211.376L87.7551 211.443C86.8027 211.291 85.7582 211.205 84.7137 211.12L84.5805 210.936C84.8666 210.168 85.1528 209.4 85.3213 208.857L85.9956 206.685C86.0465 206.368 86.2151 205.825 86.3836 205.282C86.4091 205.124 86.4346 204.965 86.368 204.873C86.3013 204.781 85.9839 204.73 85.5332 204.496L85.4665 204.404L85.5841 204.178Z" fill="#343F24"/>
<path d="M75.0008 202.163C75.3535 201.487 75.8395 200.995 76.5921 200.871C77.3446 200.747 78.2303 200.807 79.1318 201.276C79.7412 201.537 80.3918 202.047 81.0169 202.717L81.0835 202.809C80.8483 203.26 80.7308 203.485 80.6132 203.71L80.2349 204.545L80.1428 204.612L79.7587 204.469L79.6921 204.377C79.9273 203.926 79.9782 203.609 80.0037 203.45C79.7882 202.765 79.4551 202.305 78.779 201.953C78.3949 201.81 78.0108 201.667 77.6679 201.775C77.3249 201.883 77.1407 202.017 76.931 202.309C76.7879 202.693 76.8036 203.102 77.0956 203.312C77.2288 203.496 77.5208 203.705 77.9715 203.94C78.6221 204.451 79.0473 204.844 79.3138 205.212C79.5549 205.739 79.5705 206.148 79.3099 206.758C79.0492 207.367 78.4966 207.768 77.9028 207.917C77.2169 208.133 76.4232 208.006 75.5218 207.537C74.8457 207.185 74.2618 206.766 73.8365 206.373L73.862 206.214C74.0462 206.08 74.2148 205.538 74.6597 204.795L74.7518 204.728L75.1359 204.871L75.2025 204.963C75.0594 205.347 74.9418 205.572 74.9163 205.731C74.9986 206.232 75.4238 206.626 75.9667 206.794C76.3508 206.937 76.6682 206.987 76.9191 206.946C77.1699 206.905 77.4462 206.705 77.5638 206.479C77.7069 206.095 77.5991 205.752 77.3071 205.543C77.1739 205.359 76.8819 205.15 76.3646 204.823C75.714 204.312 75.2888 203.919 75.0889 203.642C74.6636 203.249 74.6735 202.681 75.0008 202.163Z" fill="#343F24"/>
<path d="M67.2693 199.627C67.3614 199.561 67.3869 199.402 67.479 199.335L67.5711 199.269C68.2726 199.462 69.0153 199.906 69.9834 200.467C70.2087 200.585 70.4341 200.702 70.7261 200.912C71.018 201.121 71.4021 201.264 71.4687 201.356C71.8215 200.68 71.9234 200.045 71.7745 199.451C71.6256 198.858 71.2259 198.306 70.6419 197.887C70.1912 197.652 69.6484 197.484 68.8547 197.357L68.8136 197.107L69.4583 196.64C70.3441 196.7 71.1378 196.827 71.9471 197.363C72.9151 197.924 73.6069 198.686 73.7969 199.53C74.2123 200.491 73.9928 201.352 73.3382 202.387C72.6582 203.58 71.9213 204.114 71.0101 204.212C69.9401 204.286 68.9877 204.134 68.245 203.69C67.5023 203.246 66.9438 202.668 66.8204 201.916C66.6049 201.23 66.7323 200.437 67.2693 199.627ZM68.8624 200.858C68.1157 201.96 68.2392 202.712 68.9819 203.156C69.7245 203.6 70.5025 203.318 71.0905 202.191L71.116 202.032C70.824 201.822 70.4654 201.521 69.7893 201.169C69.4973 200.96 69.1133 200.817 68.8879 200.7C68.9545 200.792 68.9545 200.792 68.8624 200.858Z" fill="#343F24"/>
<path d="M61.8344 190.376C62.485 190.887 62.8436 191.188 63.0689 191.306C63.1356 191.398 63.4276 191.607 63.6529 191.725C63.9449 191.934 64.1702 192.051 64.2369 192.143L64.3035 192.235C64.0938 192.527 63.7254 192.794 63.5157 193.086C63.8331 193.137 64.4935 193.08 65.3127 193.048C65.6968 193.19 65.9221 193.308 66.2807 193.609C66.8647 194.028 67.1057 194.555 67.188 195.056C67.2703 195.557 67.1017 196.1 66.6823 196.684C66.5902 196.751 66.5647 196.91 66.3805 197.043C66.2629 197.269 66.0787 197.402 65.869 197.694L65.4496 198.278C64.846 198.996 64.5187 199.513 64.4933 199.672C64.4678 199.831 64.5344 199.923 64.601 200.015C64.6677 200.107 64.7343 200.199 65.0929 200.5L65.1595 200.592L64.9498 200.884L64.8577 200.951C64.0484 200.415 63.147 199.945 62.1534 199.543L62.0202 199.359C62.5983 198.8 63.0177 198.216 63.5037 197.723L64.4091 196.647C64.8285 196.063 65.0382 195.771 65.1558 195.546C65.2734 195.32 65.3244 195.003 65.2832 194.752C65.2421 194.501 65.1088 194.317 64.8168 194.108C64.5249 193.898 64.1408 193.756 63.7312 193.772C63.3216 193.788 63.0708 193.829 62.8611 194.121C62.6769 194.255 62.6514 194.413 62.5593 194.48L61.746 195.49C61.1424 196.207 60.8151 196.725 60.7896 196.883C60.7641 197.042 60.8308 197.134 60.8974 197.226C60.964 197.318 61.0306 197.41 61.3892 197.711L61.4559 197.803L61.2462 198.096L61.0874 198.07C60.2781 197.534 59.3767 197.065 58.3832 196.662L58.2499 196.478C58.7359 195.986 59.2474 195.335 59.7334 194.843L61.1504 193.116C61.8461 192.331 62.0812 191.881 62.1067 191.722C62.1988 191.655 62.1322 191.563 62.0656 191.471C61.999 191.379 61.8657 191.195 61.5071 190.894L61.4405 190.802L61.8344 190.376Z" fill="#343F24"/>
<path d="M51.41 188.387C51.702 188.596 51.9273 188.714 51.994 188.806C52.0606 188.898 52.1527 188.831 52.4035 188.79C52.6544 188.748 52.9973 188.64 53.6832 188.424L57.046 187.252C57.1382 187.185 57.7319 187.036 58.602 186.686L59.5858 187.657C59.233 188.333 58.8547 189.168 58.5686 189.936C58.0473 191.155 57.5514 192.216 57.1477 193.209C57.0046 193.593 56.9537 193.911 56.9948 194.162C57.0614 194.254 57.128 194.346 57.2613 194.53L57.2358 194.688L56.8674 194.955L56.7341 194.771C56.4676 194.403 55.9758 193.918 55.3507 193.248C54.7922 192.671 54.367 192.277 54.1005 191.909L54.126 191.75L54.4278 191.392L54.5865 191.417C54.8785 191.626 55.0117 191.81 55.0783 191.902C55.145 191.994 55.2371 191.928 55.3292 191.861C55.4213 191.794 55.7995 190.959 56.5306 189.448C56.9088 188.613 57.144 188.163 57.195 187.845C56.417 188.128 55.7311 188.344 54.9531 188.627C53.8321 189.018 53.2129 189.326 53.0286 189.459C52.9365 189.526 53.0032 189.618 52.9777 189.776C53.0443 189.868 53.1775 190.053 53.444 190.421L53.4186 190.579L53.1168 190.938L52.958 190.913C52.7582 190.637 52.3329 190.243 52.0664 189.875C51.6412 189.482 51.3747 189.114 51.0161 188.812L51.0416 188.654L51.41 188.387Z" fill="#343F24"/>
<path d="M46.2727 186.916C46.549 186.716 46.7999 186.674 47.1174 186.725C47.4348 186.776 47.6602 186.893 47.86 187.169C48.0599 187.445 48.1011 187.696 48.0501 188.013C47.9991 188.331 47.8815 188.556 47.6052 188.756C47.3289 188.956 47.0781 188.998 46.7606 188.947C46.4431 188.896 46.2178 188.779 46.0179 188.503C45.818 188.227 45.7769 187.976 45.8279 187.659C45.9454 187.433 46.063 187.208 46.2727 186.916ZM53.1181 180.277C53.5434 180.67 53.9431 181.222 54.4761 181.958C55.0091 182.694 55.501 183.18 55.7675 183.548L55.742 183.707L55.3735 183.973L55.2148 183.948C54.9483 183.58 54.6563 183.371 54.5897 183.279C54.5231 183.187 54.431 183.253 54.2468 183.387C53.6941 183.787 53.2336 184.12 52.5888 184.587L51.7599 185.187C51.023 185.721 50.6291 186.146 50.4449 186.279C50.3528 186.346 50.4194 186.438 50.5526 186.622C50.6193 186.714 50.7525 186.898 50.9524 187.174L50.9269 187.333L50.5585 187.6L50.3998 187.574C49.708 186.813 48.9908 186.21 48.1149 185.582L48.2991 185.449C49.0359 184.915 49.5886 184.515 50.0491 184.182L51.8246 182.756C52.101 182.556 52.4694 182.289 52.9554 181.797C53.1396 181.664 53.1651 181.505 53.0985 181.413C53.0319 181.321 52.9241 180.978 52.6576 180.61L52.6831 180.451L53.1181 180.277Z" fill="#343F24"/>
<path d="M213.924 55.2977C213.632 55.0883 213.289 55.1963 213.172 55.4217L202.559 70.8192C194.489 82.5531 174.606 85.7275 162.75 87.5788C159.238 88.1576 156.32 88.5871 154.606 89.1273C149.62 90.7731 148.403 99.3687 147.144 107.714C146.456 111.999 145.886 116.058 144.843 118.496C143.801 120.934 142.501 122.436 141.155 122.71C139.967 123.008 138.958 122.196 138.958 122.196C138.892 122.104 138.733 122.079 138.574 122.053L138.415 122.028L138.349 121.936C137.99 121.635 137.565 121.241 137.206 120.94C137.048 120.915 136.981 120.822 136.848 120.638L136.434 115.608C136.052 111.396 135.445 107.067 134.705 102.554L134.078 99.3609C133.929 98.7674 133.846 98.2659 133.697 97.6724C133.615 97.171 133.466 96.5775 133.317 95.984C133.168 95.3905 133.086 94.889 132.845 94.3622C132.671 93.9275 132.522 93.334 132.281 92.8072C132.132 92.2137 131.891 91.6869 131.65 91.1601C131.409 90.6333 131.168 90.1065 130.927 89.5797C130.66 89.2116 130.261 88.6594 129.702 88.0819L128.785 87.2031C128.242 87.035 127.792 86.8003 127.474 86.7496C126.931 86.5816 126.522 86.5976 126.02 86.6803C125.61 86.6963 125.175 86.871 124.623 87.2711C123.819 87.7126 123.241 88.2714 122.822 88.8556C122.52 89.2143 122.31 89.5064 122.167 89.8905C122.024 90.2746 121.906 90.5 121.697 90.7921C121.436 91.4016 121.334 92.0364 121.299 92.7633C121.054 93.7822 121.009 95.0772 121.122 96.3976C121.261 97.5592 121.401 98.7208 121.79 99.8411C122.022 100.936 122.345 101.964 122.827 103.018C123.15 104.046 123.632 105.1 124.114 106.153C124.596 107.207 125.012 108.169 125.586 109.156C126.068 110.209 126.483 111.171 127.058 112.158C127.632 113.145 128.231 113.973 128.898 114.893C129.564 115.813 130.163 116.641 130.83 117.562C131.496 118.482 132.254 119.335 133.038 120.03C133.305 120.398 133.597 120.608 133.796 120.884C133.996 121.16 134.355 121.461 134.714 121.763L135.231 128.682C135.283 130.888 135.27 133.002 135.164 135.182C135.058 137.363 135.044 139.477 134.938 141.657C134.826 142.86 134.74 143.905 134.654 144.949C134.567 145.993 134.481 147.037 134.303 148.148L133.701 151.389L133.099 154.63C132.931 155.173 132.762 155.716 132.686 156.192C132.517 156.735 132.441 157.211 132.272 157.754L131.194 160.918C130.959 161.369 130.791 161.912 130.555 162.363C130.32 162.814 130.085 163.264 129.85 163.715C129.523 164.233 129.221 164.591 128.986 165.042C128.684 165.401 128.29 165.826 127.988 166.185L126.816 166.893L125.721 167.125C125.244 167.049 125.019 166.932 124.794 166.815C124.502 166.605 124.21 166.396 124.077 166.212C123.451 165.542 123.077 164.832 122.728 163.962C122.579 163.369 122.405 162.934 122.205 162.658L121.774 161.287C121.533 160.76 121.359 160.325 121.184 159.89C121.01 159.456 120.928 158.954 120.753 158.519C120.363 157.399 120.04 156.371 119.942 155.46C119.86 154.958 119.685 154.524 119.603 154.022C119.429 153.587 119.346 153.086 119.198 152.492C118.966 151.397 118.735 150.302 118.545 149.458C118.314 148.363 118.241 147.294 118.01 146.199C117.846 145.196 117.614 144.101 117.475 142.939L116.915 139.838L116.447 136.671L114.85 123.801C114.686 122.798 114.613 121.728 114.541 120.659C114.468 119.589 114.396 118.519 114.323 117.45L113.479 111.048L113.571 110.981C113.448 110.229 113.14 109.61 112.489 109.1C111.839 108.589 111.137 108.396 110.226 108.494C109.407 108.526 108.696 108.901 108.025 109.527C107.355 110.152 107.069 110.92 107.1 111.739L107.071 113.444L107.175 115.332L107.237 116.97L107.208 118.674C107.347 119.836 107.419 120.906 107.492 121.975C107.564 123.045 107.637 124.114 107.868 125.209C108.079 127.441 108.291 129.672 108.595 131.836C108.898 134.001 109.202 136.166 109.506 138.33C109.562 138.99 109.66 139.901 109.717 140.561C109.831 141.882 109.786 143.177 109.648 144.538C109.552 146.151 107.216 164.253 107.216 164.253L107.063 165.205L106.54 163.901C106.099 163.098 101.737 156.298 101.178 155.72C101.178 155.72 87.1595 140.623 86.5598 139.795C92.3568 134.616 91.4203 128.281 91.0559 127.002C90.1369 123.6 88.2871 121.433 86.3255 120.468C85.6494 120.116 85.04 119.856 84.4051 119.755C82.367 119.267 80.2016 119.572 78.477 120.68C77.4893 121.255 76.7015 122.106 76.0469 123.141C75.6276 123.725 71.5414 129.91 77.0927 138.935C73.7554 139.948 67.6315 139.052 64.7586 138.187C30.4688 127.667 21.7365 130.342 10.2602 140.474C31.3429 125.772 47.6546 139.77 70.8294 143.469C74.9565 144.128 77.992 143.473 79.2717 143.108C79.2717 143.108 78.1523 152.614 77.5837 159.197C77.3348 161.762 77.3366 164.285 77.4306 166.742C77.6381 170.519 78.3845 176.01 81.6393 181.087C81.6393 181.087 85.4741 188.129 93.7223 188.469C97.3575 188.642 106.474 186.109 108.554 173.663C108.554 173.663 109.23 160.831 109.393 159.31L109.801 156.771L110.275 154.324L110.814 149.445L111.028 147.607C111.326 148.794 111.531 150.048 111.829 151.235L112.707 154.386L113.651 157.63C113.8 158.223 113.975 158.658 114.124 159.252C114.365 159.778 114.606 160.305 114.78 160.74C115.17 161.86 115.652 162.914 116.226 163.901L117.2 165.44C117.267 165.532 117.4 165.716 117.467 165.808C117.533 165.9 117.666 166.084 117.733 166.176C117.933 166.452 118.133 166.728 118.266 166.912C118.466 167.188 118.599 167.372 118.799 167.648C119.024 167.766 119.224 168.042 119.491 168.41C119.824 168.87 120.408 169.289 121.084 169.641C121.376 169.85 121.76 169.993 121.985 170.11C122.369 170.253 122.687 170.304 123.163 170.38C123.931 170.665 124.75 170.633 125.595 170.442C126.44 170.252 127.151 169.877 127.77 169.569L128.323 169.169L128.441 168.943L128.625 168.81C128.717 168.743 128.993 168.543 129.387 168.118C129.873 167.626 130.267 167.2 130.594 166.683C130.922 166.165 131.249 165.648 131.668 165.064C132.231 164.095 132.727 163.035 133.089 161.791C133.881 159.394 134.489 157.131 134.794 155.226C134.973 154.115 135.151 153.004 135.33 151.893C135.508 150.782 135.686 149.671 135.773 148.627C135.951 147.516 136.037 146.472 136.057 145.336C136.143 144.291 136.163 143.155 136.341 142.044C136.453 140.841 136.539 139.797 136.559 138.661C136.578 137.524 136.665 136.48 136.592 135.41C136.704 134.207 136.724 133.071 136.651 132.001C136.579 130.932 136.598 129.796 136.618 128.659L136.503 124.816C137.271 125.101 138.131 125.32 139.058 125.63C140.62 126.042 142.007 126.02 143.312 125.496L143.404 125.429C143.906 125.346 144.182 125.146 144.459 124.946C144.735 124.746 145.011 124.546 145.221 124.254C145.313 124.187 145.431 123.962 145.523 123.895C150.266 119.199 150.999 107.027 151.368 100.168L151.387 99.0312C151.625 94.5114 152.673 93.051 153.226 92.6509C153.594 92.3841 153.753 92.4095 153.753 92.4095C153.912 92.4348 154.162 92.3935 154.347 92.2601C154.347 92.2601 157.212 89.6247 172.954 87.9054C189.356 86.1288 199.635 76.8635 199.727 76.7968L199.819 76.7302L213.571 55.9739C214.232 55.9165 214.216 55.5071 213.924 55.2977ZM82.0294 133.537C79.917 129.456 80.4678 126.533 81.434 124.571C82.022 123.444 83.6093 123.697 83.815 124.951C83.9639 125.544 84.0207 126.205 84.1696 126.798C85.1199 131.019 84.7278 133.968 83.4441 135.879C83.1365 135.26 82.4703 134.34 82.0294 133.537ZM103.523 170.012C103.523 170.012 105.148 178.654 98.1474 183.722C96.7658 184.722 95.3019 185.221 93.7303 185.377C90.587 185.689 87.4476 184.456 85.2137 182.146C80.1208 176.857 79.6135 169.369 79.3608 166.887C78.8732 158.264 82.3659 145.636 82.3659 145.636C85.9931 148.901 92.0384 154.342 92.0384 154.342C92.0384 154.342 100.686 161.827 103.523 170.012ZM132.815 115.844C132.374 115.041 131.908 114.397 131.467 113.594C130.385 111.712 129.37 109.922 128.539 107.999C128.057 106.946 127.642 105.984 127.226 105.022C126.811 104.061 126.396 103.099 126.072 102.071L125.236 99.1702L124.742 96.1615C124.752 95.5933 124.669 95.0918 124.654 94.6824C124.638 94.273 124.648 93.7048 124.724 93.2287C124.785 92.3431 124.979 91.6416 125.491 90.9908C125.885 90.5653 126.161 90.3653 126.253 90.2986L126.437 90.1652L126.504 90.2572C126.596 90.1905 126.596 90.1905 126.663 90.2826C126.663 90.2826 126.729 90.3746 126.821 90.3079C126.888 90.3999 126.888 90.3999 126.955 90.4919C127.021 90.584 127.021 90.584 127.088 90.676C127.446 90.9774 127.805 91.2788 127.979 91.7136C128.246 92.0817 128.42 92.5165 128.687 92.8846C128.953 93.2526 129.194 93.7795 129.369 94.2142C129.543 94.649 129.718 95.0838 129.959 95.6106C130.133 96.0454 130.282 96.6389 130.523 97.1657C130.938 98.1272 131.195 99.0635 131.518 100.092C131.775 101.028 132.006 102.123 132.212 103.377C132.443 104.472 132.608 105.474 132.839 106.569C133.003 107.572 133.235 108.667 133.374 109.829L134.218 116.231L134.414 118.052C133.814 117.224 133.281 116.488 132.815 115.844Z" fill="#343F24"/>
</g>
<defs>
<clipPath id="clip0_1_474">
<rect width="214.946" height="148.423" fill="white" transform="translate(0.0388184 126.356) rotate(-35.9044)"/>
</clipPath>
</defs>
</svg>
