<svg width="109" height="116" viewBox="0 0 109 116" fill="none" xmlns="http://www.w3.org/2000/svg">
<g clip-path="url(#clip0_9_2652)">
<path d="M19.6584 76.6878C20.0217 76.5558 20.3182 76.6031 20.6339 76.7675C20.9496 76.9319 21.1985 77.2757 21.3614 77.6818C21.505 77.9708 21.5627 78.322 21.6084 78.7474L21.5965 78.8215C21.3622 78.8601 21.2021 78.9106 21.1161 78.9729L20.7097 79.1361L20.6356 79.1242L20.5542 78.9212L20.5661 78.8471C20.8122 78.7343 20.8983 78.6721 20.9413 78.6409C21.063 78.3563 21.1106 78.0598 20.9669 77.7709C20.8855 77.5678 20.7922 77.4389 20.6558 77.3411C20.5195 77.2434 20.4023 77.2627 20.2422 77.3131C20.039 77.3947 19.9411 77.5311 19.9484 77.7223C19.9365 77.7964 19.9868 77.9565 20.0253 78.1906C20.114 78.5849 20.1094 78.8502 20.0856 78.9984C20.0069 79.2519 19.866 79.4194 19.5768 79.5633C19.2876 79.7072 18.9911 79.6599 18.7065 79.5384C18.3908 79.374 18.173 79.0732 18.0101 78.6671C17.8784 78.304 17.7777 77.9839 17.8253 77.6874L17.8683 77.6563C17.9855 77.637 18.1886 77.5554 18.6261 77.4352L18.7002 77.447L18.7816 77.6501L18.7697 77.7242C18.6096 77.7746 18.5236 77.8369 18.4375 77.8992C18.3277 78.1097 18.3231 78.375 18.4357 78.621C18.486 78.7811 18.5793 78.91 18.7157 79.0078C18.852 79.1056 18.9692 79.0863 19.0863 79.0669C19.2465 79.0165 19.3444 78.8801 19.306 78.6459C19.2867 78.5288 19.2364 78.3688 19.198 78.1346C19.1092 77.7404 19.0827 77.4321 19.1376 77.3268C19.2282 76.9992 19.4122 76.8006 19.6584 76.6878Z" fill="white"/>
<path d="M17.8248 73.4302C17.8678 73.3991 17.9419 73.4109 17.9849 73.3798L18.059 73.3916C18.2027 73.6806 18.3656 74.0867 18.5165 74.5669C18.5358 74.6839 18.598 74.7699 18.6364 75.0041C18.6867 75.1641 18.7371 75.3242 18.7563 75.4413C19.0766 75.3404 19.2916 75.1847 19.4564 74.8689C19.6092 74.6273 19.6568 74.3308 19.525 73.9677C19.4436 73.7647 19.3311 73.5187 19.0703 73.249L19.1252 73.1437L19.4958 73.2029C19.7877 73.5155 20.0055 73.8164 20.0942 74.2106C20.2763 74.7337 20.2049 75.1784 20.0283 75.5683C19.8205 75.9152 19.5076 76.2073 18.996 76.3157C18.3984 76.4863 17.9106 76.4465 17.6068 76.208C17.1667 75.8716 16.9178 75.5279 16.829 75.1336C16.7092 74.6964 16.7256 74.357 16.8785 74.1153C17.1292 73.7373 17.3873 73.5504 17.8248 73.4302ZM18.0215 74.3358C17.4239 74.5065 17.228 74.7792 17.3168 75.1735C17.4366 75.6107 17.7643 75.701 18.3618 75.5303L18.4049 75.4992C18.3856 75.3821 18.3161 75.105 18.2155 74.7848C18.1651 74.6248 18.1148 74.4647 18.0645 74.3047C18.0215 74.3358 18.0215 74.3358 18.0215 74.3358Z" fill="white"/>
<path d="M18.9179 68.5119C19.0066 68.9062 19.045 69.1403 19.0331 69.2145C19.0212 69.2886 19.0404 69.4057 19.0908 69.5657C19.1411 69.7258 19.1603 69.8429 19.1484 69.917L19.1054 69.9481C18.9141 69.9556 18.7229 69.9631 18.5627 70.0135C18.6561 70.1424 18.8976 70.295 19.2326 70.5765C19.3259 70.7054 19.3762 70.8655 19.3835 71.0567C19.4101 71.365 19.4055 71.6303 19.2526 71.872C19.1428 72.0825 18.8966 72.1952 18.6194 72.265C18.5763 72.2961 18.5022 72.2843 18.3851 72.3036C18.2679 72.3229 18.1508 72.3422 18.0337 72.3615L17.577 72.3646C17.1515 72.4107 16.8742 72.4805 16.8312 72.5116C16.7882 72.5428 16.7763 72.6169 16.7644 72.691C16.7644 72.691 16.7836 72.8081 16.7909 72.9993L16.7479 73.0304L16.5877 73.0809L16.5566 73.0379C16.4368 72.6007 16.2858 72.1205 16.0488 71.7026L16.0607 71.6285C16.4432 71.6135 16.7946 71.5556 17.103 71.5288L17.7628 71.4441C18.0712 71.4173 18.2744 71.3357 18.3915 71.3164C18.5087 71.2971 18.6377 71.2037 18.6926 71.0984C18.7475 70.9932 18.7713 70.845 18.7521 70.7279C18.7448 70.5367 18.6515 70.4078 18.484 70.267C18.3477 70.1692 18.2113 70.0714 18.0512 70.1219C17.934 70.1412 17.8599 70.1294 17.8599 70.1294L17.2742 70.2259C16.8487 70.272 16.5714 70.3418 16.5284 70.3729C16.4854 70.404 16.4735 70.4782 16.4616 70.5523C16.4616 70.5523 16.4808 70.6694 16.4881 70.8606L16.4451 70.8917L16.2538 70.8992L16.2227 70.8562C16.1028 70.419 15.9519 69.9388 15.7149 69.5209L15.7268 69.4468C16.0352 69.42 16.4177 69.4051 16.7691 69.3471L17.8233 69.1734C18.2919 69.0961 18.5692 69.0264 18.6122 68.9952C18.6552 68.9641 18.6552 68.9641 18.6671 68.89C18.679 68.8159 18.6598 68.6988 18.6525 68.5076L18.6955 68.4764L18.9179 68.5119Z" fill="white"/>
<path d="M15.9074 64.5352C15.9578 64.6953 15.977 64.8123 16.0081 64.8553C16.0392 64.8983 16.0703 64.9413 16.1444 64.9531C16.2497 65.0079 16.429 65.0745 16.7136 65.196L18.2419 65.858C18.316 65.8698 18.5265 65.9795 18.9904 66.1675L19.0005 66.8153C18.6372 66.9473 18.305 67.1223 17.8986 67.2855C17.3203 67.5732 16.7968 67.7557 16.4216 67.9619C16.2184 68.0435 16.1324 68.1057 16.0775 68.211C16.0656 68.2851 16.0537 68.3592 16.0418 68.4333L15.9988 68.4645L15.7764 68.429L15.7453 68.386C15.738 68.1948 15.7545 67.8554 15.7087 67.43C15.6941 67.0476 15.6987 66.7823 15.6603 66.5481L15.7033 66.517L15.8945 66.5095L15.9256 66.5525C15.933 66.7437 15.9522 66.8608 15.9833 66.9037C16.0144 66.9467 16.0455 66.9897 16.0885 66.9585C16.1626 66.9704 16.569 66.8072 17.2645 66.5001C17.6708 66.337 17.917 66.2242 18.003 66.1619C17.6443 66.0287 17.3286 65.8643 17.001 65.774C16.4629 65.574 16.1783 65.4526 16.0611 65.4719C15.987 65.4601 16.0181 65.503 15.9751 65.5342C15.9632 65.6083 15.9513 65.6824 15.9586 65.8736L15.9156 65.9048L15.7243 65.9122L15.6932 65.8693C15.6859 65.6781 15.6786 65.4869 15.6832 65.2215C15.6878 64.9562 15.6494 64.722 15.642 64.5308L15.6851 64.4997L15.9074 64.5352Z" fill="white"/>
<path d="M14.6484 62.4338C14.7967 62.4574 14.9019 62.5122 14.9952 62.6412C15.0886 62.7701 15.1078 62.8872 15.084 63.0354C15.0602 63.1836 15.0053 63.2889 14.9074 63.4253C14.7783 63.5187 14.6923 63.581 14.544 63.5573C14.3958 63.5336 14.2906 63.4788 14.1972 63.3499C14.1039 63.221 14.0847 63.1039 14.1085 62.9557C14.1323 62.8075 14.1872 62.7022 14.2851 62.5658C14.34 62.4605 14.5002 62.4101 14.6484 62.4338ZM19.0474 62.2618C19.0429 62.5271 19.0264 62.8666 18.998 63.2801C18.9696 63.6937 18.9531 64.0331 18.9174 64.2554L18.8744 64.2866L18.652 64.2511L18.6209 64.2081C18.6566 63.9857 18.6063 63.8257 18.6182 63.7516C18.5871 63.7086 18.556 63.6656 18.4818 63.6538C18.1853 63.6065 17.8888 63.5591 17.5493 63.5429L17.0616 63.5031C16.6479 63.4751 16.3825 63.4707 16.2654 63.49C16.2224 63.5212 16.1794 63.5523 16.1675 63.6264C16.1675 63.6264 16.1437 63.7746 16.1199 63.9229L16.0769 63.954L15.8856 63.9615L15.8545 63.9185C15.8518 63.462 15.7749 62.9937 15.6981 62.5253L15.7722 62.5371C16.1428 62.5963 16.5134 62.6555 16.7788 62.6598L17.8285 62.7514C17.9767 62.775 18.2421 62.7794 18.5075 62.7837C18.5816 62.7956 18.6246 62.7644 18.6676 62.7333C18.7107 62.7021 18.7345 62.5539 18.7702 62.3316L18.8132 62.3004L19.0474 62.2618Z" fill="white"/>
<path d="M18.9749 57.271C19.3025 57.3613 19.5752 57.5569 19.7499 57.8888C19.9247 58.2208 19.9393 58.6032 19.8249 59.079C19.7343 59.4066 19.6007 59.7653 19.3618 60.0693L19.3188 60.1004C19.1395 60.0338 18.9601 59.9671 18.886 59.9553L18.4101 59.8413L18.379 59.7983L18.4147 59.576L18.4577 59.5449C18.7542 59.5922 18.9025 59.6159 18.9025 59.6159C19.1916 59.472 19.3445 59.2303 19.4351 58.9027C19.4708 58.6804 19.4946 58.5322 19.4013 58.4033C19.3509 58.2432 19.2146 58.1454 19.0663 58.1217C18.844 58.0862 18.6838 58.1367 18.617 58.3161C18.5621 58.4213 18.5072 58.5266 18.3973 58.7371C18.2207 59.127 18.1109 59.3375 17.9388 59.462C17.7238 59.6177 17.4895 59.6564 17.193 59.609C16.8654 59.5187 16.6668 59.335 16.5232 59.046C16.3795 58.757 16.3649 58.3746 16.4363 57.93C16.4958 57.5594 16.6605 57.2436 16.8444 57.0449L16.8875 57.0138C16.9927 57.0686 17.2462 57.1471 17.6479 57.2492L17.679 57.2922L17.6433 57.5145L17.6003 57.5457C17.4521 57.522 17.3038 57.4983 17.1867 57.5176C16.9835 57.5992 16.8307 57.8409 16.752 58.0944C16.6852 58.2737 16.7355 58.4338 16.7858 58.5939C16.8361 58.7539 16.9414 58.8087 17.0896 58.8324C17.269 58.899 17.398 58.8056 17.539 58.6381C17.5939 58.5328 17.6918 58.3964 17.7705 58.1429C17.9471 57.7531 18.057 57.5425 18.186 57.4491C18.413 57.2193 18.6472 57.1807 18.9749 57.271Z" fill="white"/>
<path d="M19.347 53.5296C19.3781 53.5726 19.4211 53.5414 19.5264 53.5962L19.5575 53.6392C19.541 53.9786 19.4385 54.3804 19.2499 54.8443C19.238 54.9185 19.1712 55.0978 19.1474 55.2461C19.0806 55.4254 19.0568 55.5737 19.0019 55.6789C19.3295 55.7692 19.5949 55.7736 19.8841 55.6297C20.1733 55.4858 20.3572 55.2872 20.4908 54.9284C20.6007 54.7179 20.5741 54.4096 20.5476 54.1013L20.6648 54.082L20.9256 54.3517C21.0143 54.7459 20.9859 55.1595 20.8523 55.5182C20.6949 56.0252 20.413 56.3602 20.0378 56.5664C19.6626 56.7726 19.2489 56.7445 18.742 56.5876C18.1298 56.3758 17.7948 56.0943 17.7061 55.7001C17.524 55.1769 17.5213 54.7204 17.6549 54.3617C17.8004 53.9288 18.0274 53.699 18.3166 53.5552C18.5746 53.3683 18.9141 53.3845 19.347 53.5296ZM18.9507 54.3405C18.3696 54.1717 18.0182 54.2297 17.8846 54.5884C17.7391 55.0212 17.9568 55.3221 18.5379 55.4908L18.6121 55.5027C18.667 55.3974 18.7457 55.1439 18.8793 54.7852C18.9461 54.6058 18.9699 54.4576 18.9937 54.3094C18.9818 54.3835 18.9818 54.3835 18.9507 54.3405Z" fill="white"/>
<path d="M23.0485 50.13C22.9149 50.4887 22.8051 50.6992 22.7501 50.8045C22.7382 50.8786 22.6833 50.9838 22.5854 51.1202C22.4875 51.2566 22.5067 51.3737 22.4207 51.436L22.3777 51.4671C22.2413 51.3694 22.0619 51.3027 21.9256 51.2049C21.9759 51.365 22.0455 51.6421 22.1342 52.0364C22.1104 52.1846 22.0436 52.364 21.9768 52.5433C21.8551 52.828 21.6711 53.0266 21.4249 53.1394C21.1788 53.2521 20.9564 53.2166 20.6718 53.0952C20.6407 53.0522 20.5665 53.0404 20.4613 52.9856C20.3561 52.9307 20.2508 52.8759 20.1456 52.8211L19.7558 52.6449C19.3659 52.4686 19.1243 52.3161 19.0383 52.3783C18.9642 52.3665 18.9212 52.3976 18.9093 52.4718C18.8663 52.5029 18.8544 52.577 18.7564 52.7134L18.7134 52.7445L18.5341 52.6779L18.503 52.6349C18.6485 52.2021 18.794 51.7692 18.8773 51.2504L18.9633 51.1882C19.279 51.3526 19.5517 51.5481 19.8674 51.7125L20.4678 51.9984C20.7524 52.1199 20.9628 52.2295 21.037 52.2413C21.1852 52.265 21.2593 52.2768 21.4195 52.2263C21.5055 52.1641 21.5915 52.1018 21.6895 51.9654C21.7563 51.786 21.7801 51.6378 21.7728 51.4466C21.7224 51.2865 21.6291 51.1576 21.5239 51.1028C21.4186 51.048 21.3875 51.005 21.3445 51.0362L20.8183 50.7621C20.347 50.3828 20.0935 50.3044 20.0194 50.2925C19.9453 50.2807 19.9023 50.3119 19.8904 50.386C19.8474 50.4171 19.8355 50.4912 19.7375 50.6276L19.6945 50.6588L19.5152 50.5921L19.4841 50.5491C19.6296 50.1163 19.7751 49.6834 19.8584 49.1646L19.9444 49.1024C20.2171 49.2979 20.5328 49.4623 20.8486 49.6268L21.7957 50.12C22.2166 50.3392 22.4701 50.4177 22.5443 50.4295C22.5873 50.3984 22.6184 50.4414 22.6303 50.3673C22.6733 50.3361 22.7282 50.2309 22.838 50.0203L22.881 49.9892L23.0485 50.13Z" fill="white"/>
<path d="M22.9005 45.1274C22.8337 45.3068 22.7788 45.412 22.8099 45.455C22.841 45.498 22.8291 45.5721 22.8602 45.6151C22.9224 45.701 23.0039 45.904 23.1594 46.1189L24.0379 47.5134C24.069 47.5563 24.2246 47.7712 24.4616 48.1891L24.1129 48.7035C23.7423 48.6444 23.3405 48.5422 22.9699 48.4831C22.3458 48.3454 21.8269 48.2626 21.3511 48.1486C21.1287 48.1132 21.0115 48.1325 20.9255 48.1947C20.8825 48.2259 20.8395 48.257 20.7846 48.3623L20.7416 48.3934L20.5311 48.2838L20.5 48.2408C20.6409 48.0733 20.8368 47.8005 21.0445 47.4536C21.2834 47.1497 21.4362 46.908 21.503 46.7287L21.546 46.6975L21.7135 46.8383L21.7446 46.8812C21.6467 47.0176 21.5918 47.1229 21.5799 47.197C21.568 47.2711 21.568 47.2711 21.5991 47.3141C21.6302 47.3571 22.0749 47.4281 22.8043 47.6205C23.206 47.7226 23.5025 47.77 23.5767 47.7818C23.4019 47.4498 23.1841 47.149 22.9974 46.8912C22.6982 46.3873 22.5115 46.1295 22.4063 46.0747C22.3752 46.0317 22.3322 46.0629 22.2891 46.094C22.2461 46.1251 22.1912 46.2304 22.0933 46.3668L22.0503 46.3979L21.8828 46.2572L21.8517 46.2142C21.9496 46.0778 22.0906 45.9103 22.2434 45.6686C22.3962 45.427 22.5372 45.2594 22.604 45.0801L22.647 45.0489L22.9005 45.1274Z" fill="white"/>
<path d="M26.7446 45.095C26.5918 45.3367 26.3648 45.5665 26.083 45.9016C25.8011 46.2367 25.6052 46.5094 25.4643 46.677L25.4213 46.7081L25.2538 46.5674L25.2657 46.4933C25.4067 46.3257 25.5046 46.1893 25.5165 46.1152C25.5284 46.0411 25.4973 45.9981 25.4662 45.9552C25.2676 45.7714 25.0379 45.5447 24.7652 45.3492L24.3992 45.0247C24.0642 44.7432 23.8227 44.5906 23.7485 44.5788C23.6744 44.5669 23.6314 44.5981 23.5884 44.6292C23.5454 44.6604 23.5024 44.6915 23.3614 44.859L23.3184 44.8902L23.1509 44.7494L23.194 44.7183C23.4447 44.3402 23.6644 43.9192 23.8529 43.4552L23.9389 43.3929C24.2308 43.7056 24.5035 43.9011 24.7021 44.0849L25.5394 44.7886C25.6328 44.9176 25.8002 45.0583 26.0729 45.2539C26.1351 45.3398 26.1782 45.3087 26.2523 45.3205C26.2953 45.2894 26.4243 45.1959 26.5653 45.0284L26.6083 44.9973L26.7446 45.095ZM23.0705 42.6462C23.2068 42.744 23.2261 42.8611 23.2453 42.9782C23.2215 43.1264 23.1977 43.2746 23.1428 43.3799C23.0018 43.5474 22.9158 43.6097 22.7245 43.6172C22.6074 43.6365 22.4592 43.6128 22.3228 43.515C22.2606 43.4291 22.1672 43.3002 22.191 43.1519C22.2148 43.0037 22.2386 42.8555 22.2936 42.7502C22.3915 42.6138 22.5086 42.5945 22.6688 42.5441C22.817 42.5677 22.9653 42.5914 23.0705 42.6462Z" fill="white"/>
<path d="M29.578 40.9483C29.8388 41.218 29.9394 41.5381 29.8488 41.8657C29.7893 42.2363 29.5504 42.5402 29.1945 42.8634C28.9675 43.0933 28.6353 43.2683 28.272 43.4003L28.1979 43.3885C28.0734 43.2166 27.9801 43.0877 27.9178 43.0017L27.6689 42.6579L27.6808 42.5838L27.8529 42.4593L27.927 42.4711C28.1256 42.6548 28.1878 42.7408 28.2189 42.7837C28.5154 42.8311 28.8357 42.7302 29.0627 42.5003C29.2347 42.3758 29.3015 42.1964 29.3253 42.0482C29.3491 41.9 29.2988 41.7399 29.2055 41.611C29.081 41.4391 28.9328 41.4154 28.7296 41.497C28.6436 41.5593 28.4834 41.6097 28.3114 41.7343C27.9362 41.9405 27.69 42.0532 27.5418 42.0295C27.3075 42.0681 27.0659 41.9156 26.8673 41.7318C26.6376 41.5051 26.5681 41.228 26.6587 40.9004C26.7493 40.5728 26.9141 40.257 27.2271 39.9649C27.497 39.704 27.7862 39.5601 28.0635 39.4903L28.1376 39.5022C28.1998 39.5881 28.3554 39.803 28.6043 40.1468L28.5924 40.2209L28.4204 40.3454L28.3462 40.3336C28.2529 40.2047 28.1477 40.1499 28.0424 40.0951C27.8081 40.1337 27.605 40.2153 27.3469 40.4021C27.2179 40.4956 27.12 40.632 27.0962 40.7802C27.0724 40.9284 27.0916 41.0455 27.1849 41.1744C27.2782 41.3033 27.4576 41.37 27.6297 41.2454C27.7157 41.1831 27.8758 41.1327 28.0909 40.977C28.4661 40.7708 28.7123 40.6581 28.8294 40.6388C29.1378 40.612 29.3913 40.6905 29.578 40.9483Z" fill="white"/>
<path d="M32.0485 38.1119C32.0796 38.1549 32.1107 38.1979 32.1419 38.2408L32.1299 38.315C31.903 38.5448 31.59 38.8369 31.1599 39.1483C31.0739 39.2106 30.9878 39.2728 30.8158 39.3974C30.6437 39.522 30.5577 39.5843 30.4717 39.6465C30.6584 39.9044 30.8999 40.057 31.1964 40.1043C31.4929 40.1516 31.8013 40.1248 32.1024 39.9068C32.2745 39.7823 32.4584 39.5836 32.6232 39.2678L32.7714 39.2915L32.9032 39.6546C32.7265 40.0445 32.4877 40.3484 32.1436 40.5975C31.7135 40.9089 31.276 41.0292 30.8624 41.0011C30.4606 40.899 30.0827 40.6486 29.7716 40.2189C29.3982 39.7032 29.2784 39.266 29.412 38.9073C29.5694 38.4003 29.8202 38.0223 30.1643 37.7731C30.5084 37.524 30.8287 37.4231 31.1993 37.4823C31.4958 37.5296 31.7996 37.7681 32.0485 38.1119ZM31.2551 38.5554C30.9128 38.0827 30.5541 37.9494 30.253 38.1674C29.9089 38.4165 29.9236 38.7989 30.2658 39.2716L30.2969 39.3146C30.4259 39.2212 30.6291 39.1396 30.9302 38.9216C31.0592 38.8282 31.2313 38.7036 31.3173 38.6413C31.2862 38.5983 31.2862 38.5983 31.2551 38.5554Z" fill="white"/>
<path d="M37.0485 37.5047C36.7163 37.6797 36.5013 37.8354 36.4583 37.8665C36.4152 37.8976 36.2862 37.9911 36.1261 38.0415C35.9659 38.092 35.8799 38.1543 35.8369 38.1854L35.8058 38.1424C35.7554 37.9824 35.631 37.8105 35.5807 37.6504C35.4827 37.7868 35.404 38.0403 35.2585 38.4731C35.1606 38.6095 35.0315 38.703 34.8284 38.7845C34.5392 38.9284 34.2619 38.9982 34.0084 38.9197C33.7549 38.8412 33.5875 38.7005 33.4438 38.4115C33.4127 38.3685 33.3816 38.3256 33.3312 38.1655C33.269 38.0795 33.2187 37.9195 33.1565 37.8335L32.9506 37.4586C32.7758 37.1267 32.6514 36.9548 32.5461 36.9C32.515 36.857 32.4409 36.8452 32.3549 36.9074C32.3118 36.9386 32.2377 36.9267 32.0657 37.0513L32.0346 37.0083L31.9101 36.8364L31.922 36.7623C32.3091 36.4821 32.6962 36.2018 33.0211 35.8356L33.2005 35.9022C33.3322 36.2653 33.4759 36.5543 33.6626 36.8121L33.9499 37.3901C34.0936 37.6791 34.218 37.851 34.2802 37.9369C34.3736 38.0658 34.4788 38.1206 34.5529 38.1325C34.7012 38.1561 34.7872 38.0939 34.9044 38.0745C35.0334 37.9811 35.2054 37.8566 35.2723 37.6772C35.3391 37.4978 35.3199 37.3807 35.2695 37.2207C35.2073 37.1347 35.2192 37.0606 35.1881 37.0176L34.9319 36.4827C34.683 36.1389 34.5704 35.8929 34.4963 35.881C34.4652 35.8381 34.3911 35.8262 34.305 35.8885C34.262 35.9196 34.1879 35.9078 34.0159 36.0324L33.9417 36.0205L33.8173 35.8486L33.8292 35.7745C34.2163 35.4943 34.5604 35.2451 34.9283 34.8478L35.0765 34.8714C35.2202 35.1604 35.352 35.5235 35.5386 35.7814L36.0319 36.7343C36.2689 37.1522 36.3814 37.3982 36.4555 37.41C36.4866 37.453 36.5297 37.4218 36.5297 37.4218C36.5727 37.3907 36.6898 37.3714 36.893 37.2898L36.9671 37.3016L37.0485 37.5047Z" fill="white"/>
<path d="M39.8078 33.3458C39.6357 33.4703 39.5927 33.5015 39.5497 33.5326C39.5067 33.5637 39.4637 33.5949 39.4829 33.712C39.471 33.7861 39.4353 34.0084 39.4188 34.3479L39.3053 36.002C39.2934 36.0761 39.2888 36.3415 39.2915 36.798L38.725 37.0116C38.402 36.656 38.1412 36.3863 37.8493 36.0737C37.3899 35.6203 37.0358 35.2217 36.7127 34.8661C36.5883 34.6942 36.44 34.6705 36.3659 34.6587C36.2918 34.6468 36.2488 34.678 36.1317 34.6973L36.0502 34.4943L36.0932 34.4631C36.2964 34.3815 36.6167 34.2806 36.98 34.1486C37.3433 34.0165 37.5895 33.9038 37.7926 33.8222L37.8668 33.8341L37.9482 34.0371L37.9052 34.0682C37.745 34.1187 37.659 34.181 37.616 34.2121C37.573 34.2432 37.53 34.2744 37.5611 34.3174C37.5922 34.3603 37.8411 34.7041 38.3938 35.2864C38.6857 35.5991 38.8843 35.7828 38.9465 35.8688C38.963 35.5293 38.9914 35.1158 39.0079 34.7763C39.0601 34.2146 39.0024 33.8633 39.0143 33.7892C38.9832 33.7462 38.9521 33.7033 38.9091 33.7344C38.835 33.7226 38.749 33.7848 38.5888 33.8353L38.5147 33.8235L38.4332 33.6204L38.4763 33.5893C38.6364 33.5388 38.8396 33.4572 39.0857 33.3445C39.3319 33.2318 39.5351 33.1502 39.7382 33.0686L39.7693 33.1116L39.8078 33.3458Z" fill="white"/>
<path d="M42.9556 35.5208C42.7094 35.6336 42.401 35.6604 41.9635 35.7806C41.5261 35.9008 41.2488 35.9705 41.0457 36.0521L41.0145 36.0091L40.9331 35.8061L40.9761 35.775C41.1793 35.6934 41.3394 35.6429 41.3824 35.6118C41.4255 35.5807 41.4374 35.5065 41.4062 35.4636C41.3367 35.1864 41.3102 34.8781 41.2095 34.558L41.0897 34.1208C40.9698 33.6836 40.8884 33.4806 40.8261 33.3946C40.795 33.3516 40.7209 33.3398 40.6468 33.328C40.6468 33.328 40.5296 33.3473 40.3695 33.3977L40.3384 33.3548L40.2881 33.1947L40.3311 33.1636C40.7374 33.0004 41.1867 32.8061 41.5738 32.5258L41.648 32.5376C41.7367 32.9319 41.7944 33.2831 41.8639 33.5603L42.1539 34.5947C42.2043 34.7548 42.2857 34.9578 42.3552 35.235C42.3745 35.3521 42.4486 35.3639 42.4486 35.3639C42.5227 35.3757 42.6398 35.3564 42.8741 35.3178L42.9052 35.3608L42.9556 35.5208ZM41.3698 31.429C41.4201 31.5891 41.3652 31.6943 41.3103 31.7996C41.2124 31.936 41.1264 31.9983 40.9662 32.0487C40.8061 32.0992 40.6578 32.0755 40.5526 32.0207C40.4162 31.9229 40.354 31.837 40.3037 31.6769C40.2534 31.5169 40.3083 31.4116 40.3632 31.3063C40.4611 31.17 40.5471 31.1077 40.7073 31.0572C40.8674 31.0068 41.0157 31.0304 41.1209 31.0852C41.2573 31.183 41.3195 31.269 41.3698 31.429Z" fill="white"/>
<path d="M47.7213 33.7728C47.779 34.1241 47.6572 34.4087 47.3873 34.6697C47.1173 34.9306 46.754 35.0627 46.2854 35.1399C45.977 35.1667 45.5634 35.1387 45.1928 35.0795L45.1617 35.0365C45.1544 34.8453 45.147 34.6541 45.1278 34.537L45.0821 34.1117L45.1251 34.0805L45.3164 34.0731L45.3475 34.116C45.3859 34.3502 45.4362 34.5103 45.4243 34.5844C45.654 34.8111 45.9075 34.8895 46.2589 34.8316C46.4502 34.8241 46.6533 34.7426 46.7513 34.6062C46.8803 34.5127 46.9041 34.3645 46.8968 34.1733C46.8895 33.9821 46.7961 33.8532 46.5738 33.8177C46.4996 33.8059 46.3514 33.7822 46.086 33.7778C45.6724 33.7498 45.4189 33.6713 45.2395 33.6047C45.029 33.4951 44.8735 33.2802 44.847 32.9719C44.8204 32.6637 44.9422 32.379 45.1261 32.1804C45.3531 31.9505 45.7164 31.8185 46.1419 31.7724C46.5244 31.7575 46.8639 31.7736 47.1174 31.8521L47.1485 31.8951C47.1366 31.9692 47.1321 32.2345 47.1778 32.6599L47.1348 32.691L46.9435 32.6985L46.9124 32.6555C46.8621 32.4955 46.8429 32.3784 46.8237 32.2613C46.6562 32.1205 46.4027 32.0421 46.1373 32.0377C45.9461 32.0452 45.817 32.1386 45.688 32.232C45.5589 32.3255 45.5351 32.4737 45.5544 32.5908C45.5617 32.782 45.698 32.8798 45.9204 32.9153C45.9945 32.9271 46.2169 32.9626 46.4823 32.9669C46.8959 32.995 47.1494 33.0734 47.3288 33.1401C47.5392 33.2497 47.6948 33.4646 47.7213 33.7728Z" fill="white"/>
<path d="M51.3268 32.8658C51.3579 32.9088 51.3149 32.9399 51.3341 33.057L51.2911 33.0881C50.9708 33.189 50.5453 33.2351 50.0145 33.2264C49.9404 33.2146 49.7491 33.2221 49.5579 33.2295C49.3666 33.237 49.2184 33.2134 49.1012 33.2327C49.1277 33.541 49.2284 33.8611 49.427 34.0448C49.6567 34.2715 49.9413 34.3929 50.2497 34.3662C50.515 34.3705 50.7612 34.2578 51.0815 34.1569L51.1437 34.2428L50.979 34.5586C50.6038 34.7647 50.2405 34.8968 49.8268 34.8688C49.2961 34.8601 48.8632 34.7149 48.5594 34.4764C48.2675 34.1638 48.1357 33.8007 48.1138 33.2271C48.1038 32.5793 48.2804 32.1895 48.5815 31.9715C49.0116 31.6601 49.4179 31.4969 49.8005 31.4819C50.2571 31.4788 50.5417 31.6003 50.7714 31.827C51.2235 32.0892 51.3552 32.4523 51.3268 32.8658ZM50.4254 32.7979C50.4465 32.1932 50.2287 31.8924 49.8151 31.8643C49.4014 31.8363 49.1937 32.1832 49.1726 32.788L49.1607 32.8621C49.309 32.8858 49.5744 32.8901 49.9139 32.9063C50.1051 32.8988 50.2653 32.8484 50.4254 32.7979C50.4254 32.7979 50.3824 32.8291 50.4254 32.7979Z" fill="white"/>
<path d="M55.7775 35.2108C55.3638 35.1828 55.1414 35.1473 55.0673 35.1354C54.9932 35.1236 54.8761 35.1429 54.7278 35.1193C54.5796 35.0956 54.4624 35.1149 54.3883 35.1031L54.3572 35.0601C54.424 34.8807 54.4167 34.6895 54.4405 34.5413C54.3114 34.6347 54.0653 34.7474 53.7212 34.9966C53.561 35.047 53.3698 35.0545 53.2215 35.0308C52.925 34.9835 52.6404 34.8621 52.516 34.6902C52.3604 34.4753 52.279 34.2723 52.3266 33.9758C52.2955 33.9328 52.3504 33.8276 52.3623 33.7535C52.3861 33.6052 52.398 33.5311 52.4218 33.3829L52.4932 32.9382C52.5646 32.4935 52.5691 32.2282 52.538 32.1852C52.5069 32.1423 52.4758 32.0993 52.4017 32.0875C52.4017 32.0875 52.2534 32.0638 52.1052 32.0401L52.0741 31.9972L52.0668 31.806L52.1098 31.7748C52.5664 31.7717 53.0231 31.7686 53.5346 31.6602L53.6399 31.715C53.5804 32.0856 53.4898 32.4132 53.4733 32.7526L53.4092 33.3885C53.3616 33.6849 53.3689 33.8761 53.3451 34.0244C53.3643 34.1415 53.3835 34.2585 53.4457 34.3445C53.508 34.4304 53.6562 34.4541 53.8045 34.4778C53.9957 34.4703 54.187 34.4628 54.316 34.3694C54.4451 34.276 54.543 34.1396 54.5668 33.9914C54.5787 33.9172 54.5906 33.8431 54.6025 33.769L54.6977 33.1761C54.7691 32.7314 54.7737 32.4661 54.7426 32.4231C54.7115 32.3802 54.6803 32.3372 54.6062 32.3253C54.6062 32.3253 54.458 32.3017 54.3097 32.278L54.2786 32.235L54.2713 32.0438L54.3143 32.0127C54.771 32.0096 55.2276 32.0065 55.7392 31.8981L55.8014 31.984C55.7108 32.3116 55.6943 32.6511 55.6348 33.0216L55.4993 34.1022C55.459 34.5899 55.4233 34.8122 55.4425 34.9293C55.4736 34.9723 55.4736 34.9723 55.5048 35.0152C55.5789 35.0271 55.6841 35.0819 55.8754 35.0744L55.9065 35.1174L55.7775 35.2108Z" fill="white"/>
<path d="M60.4377 33.409C60.2464 33.4165 60.1723 33.4046 60.0981 33.3928C60.0551 33.424 60.0121 33.4551 59.9261 33.5174C59.8401 33.5797 59.7421 33.7161 59.5463 33.9888L58.5048 35.2669C58.4618 35.298 58.309 35.5396 58.0271 35.8747L57.403 35.7371C57.3884 35.3547 57.2996 34.9605 57.285 34.5781C57.2008 33.9185 57.0929 33.4072 57.016 32.9388C57.0087 32.7476 56.9154 32.6187 56.8531 32.5328C56.822 32.4898 56.7479 32.478 56.6738 32.4661L56.6427 32.4232L56.7095 32.2438L56.7525 32.2126C56.9749 32.2481 57.2595 32.3696 57.6612 32.4717C57.9888 32.562 58.3164 32.6523 58.5077 32.6448L58.5388 32.6878L58.472 32.8672L58.429 32.8983C58.2496 32.8317 58.1325 32.851 58.0583 32.8392C57.9842 32.8273 57.9412 32.8585 57.9723 32.9014C57.9604 32.9756 58.0062 33.4009 58.1095 34.1776C58.1553 34.603 58.1937 34.8371 58.2129 34.9542C58.4518 34.6503 58.6476 34.3775 58.9176 34.1165C59.2544 33.6762 59.4502 33.4034 59.5051 33.2982C59.517 33.224 59.517 33.224 59.4429 33.2122C59.4118 33.1692 59.2636 33.1456 59.0842 33.0789L59.0531 33.036L59.1199 32.8566L59.1629 32.8255C59.3423 32.8921 59.5646 32.9276 59.8181 33.0061C60.0716 33.0845 60.294 33.12 60.4733 33.1867L60.5045 33.2296L60.4377 33.409Z" fill="white"/>
<path d="M61.713 37.0705C61.4596 36.992 61.175 36.8706 60.7421 36.7255C60.3523 36.5492 60.0247 36.4589 59.8023 36.4234L59.7712 36.3805L59.838 36.2011L59.881 36.1699C60.1345 36.2484 60.2397 36.3032 60.2827 36.2721C60.3569 36.2839 60.3688 36.2098 60.4118 36.1787C60.5335 35.894 60.6552 35.6094 60.7769 35.3248L60.9655 34.8608C61.111 34.4279 61.1897 34.1745 61.2016 34.1003C61.2135 34.0262 61.1394 34.0144 61.1083 33.9714C61.1083 33.9714 61.003 33.9166 60.8237 33.85L60.7926 33.807L60.8594 33.6276L60.9024 33.5965C61.3352 33.7416 61.823 33.7815 62.3108 33.8213L62.373 33.9073C62.1964 34.2971 62.0746 34.5818 61.9529 34.8664L61.5639 35.8685C61.4971 36.0479 61.4303 36.2272 61.3827 36.5237C61.3708 36.5978 61.3589 36.6719 61.39 36.7149C61.4211 36.7579 61.5575 36.8556 61.7799 36.8911L61.811 36.9341L61.713 37.0705ZM62.8169 32.7999C62.7931 32.9481 62.664 33.0416 62.5469 33.0609C62.3868 33.1113 62.2696 33.1306 62.1644 33.0758C62.0161 33.0522 61.9228 32.9232 61.8295 32.7943C61.7361 32.6654 61.7599 32.5172 61.8148 32.4119C61.8386 32.2637 61.9677 32.1703 62.1278 32.1198C62.288 32.0694 62.4051 32.0501 62.5414 32.1478C62.6897 32.1715 62.783 32.3004 62.8764 32.4293C62.8645 32.5035 62.8407 32.6517 62.8169 32.7999Z" fill="white"/>
<path d="M66.5647 38.3394C66.4 38.6551 66.1419 38.842 65.7905 38.8999C65.4391 38.9578 65.0373 38.8557 64.6164 38.6365C64.3007 38.4721 64.071 38.2454 63.7791 37.9327L63.791 37.8586C63.9319 37.6911 64.0298 37.5547 64.0847 37.4494L64.2925 37.1025L64.3355 37.0714L64.546 37.181L64.5771 37.2239C64.4673 37.4345 64.4005 37.6138 64.4005 37.6138C64.427 37.9221 64.6567 38.1488 64.9294 38.3444C65.1398 38.454 65.2881 38.4776 65.4482 38.4272C65.6084 38.3767 65.6944 38.3145 65.7923 38.1781C65.8592 37.9987 65.883 37.8505 65.7585 37.6786C65.6963 37.5926 65.5599 37.4949 65.3925 37.3541C65.0887 37.1156 64.902 36.8577 64.8086 36.7288C64.6961 36.4828 64.7318 36.2605 64.8535 35.9758C65.0183 35.6601 65.2333 35.5044 65.5417 35.4776C65.8931 35.4197 66.2207 35.51 66.6417 35.7292C66.9885 35.9366 67.2301 36.0892 67.4168 36.347L67.4049 36.4211C67.3189 36.4834 67.166 36.725 66.9583 37.072L66.9153 37.1031L66.7359 37.0365L66.7048 36.9935C66.8027 36.8571 66.8265 36.7089 66.8384 36.6347C66.8 36.4006 66.6755 36.2287 66.3909 36.1072C66.2116 36.0406 66.1063 35.9858 65.9151 35.9933C65.7979 36.0126 65.6689 36.106 65.614 36.2113C65.5472 36.3906 65.5664 36.5077 65.6908 36.6796C65.7531 36.7655 65.8894 36.8633 66.088 37.0471C66.3918 37.2856 66.6215 37.5123 66.6718 37.6723C66.7963 37.8442 66.7606 38.0666 66.5647 38.3394Z" fill="white"/>
<path d="M70.1089 39.7032C70.0659 39.7344 70.054 39.8085 70.011 39.8396L69.9679 39.8708C69.6833 39.7493 69.2935 39.5731 68.8533 39.2368C68.7481 39.182 68.6859 39.096 68.4754 38.9864C68.3391 38.8886 68.2027 38.7908 68.0975 38.736C67.9016 39.0088 67.854 39.3053 67.8805 39.6136C67.9071 39.9219 68.0937 40.1797 68.3664 40.3753C68.5339 40.516 68.8185 40.6375 69.158 40.6536L69.1772 40.7707L68.845 40.9457C68.4314 40.9177 68.0727 40.7844 67.7259 40.5771C67.2857 40.2407 67.0368 39.897 66.948 39.5027C66.8593 39.1085 67.0048 38.6756 67.2986 38.2665C67.6473 37.752 68.0344 37.4717 68.448 37.4998C68.9788 37.5085 69.4235 37.5795 69.7274 37.818C70.1053 38.0684 70.292 38.3262 70.3496 38.6775C70.4503 38.9976 70.3908 39.3682 70.1089 39.7032ZM69.3649 39.1284C69.7136 38.614 69.7301 38.2745 69.3833 38.0671C69.0053 37.8168 68.7161 37.9606 68.3363 38.4321L68.2933 38.4632C68.3867 38.5922 68.5971 38.7018 68.8698 38.8973C69.0062 38.9951 69.1425 39.0929 69.3219 39.1595C69.3649 39.1284 69.3649 39.1284 69.3649 39.1284Z" fill="white"/>
<path d="M72.314 44.198C72.0102 43.9595 71.8427 43.8188 71.7805 43.7328C71.7494 43.6898 71.613 43.5921 71.5078 43.5372C71.3714 43.4395 71.3092 43.3535 71.2351 43.3417L71.204 43.2987C71.333 43.2053 71.474 43.0378 71.603 42.9443C71.4547 42.9207 71.1894 42.9163 70.7327 42.9194C70.5533 42.8528 70.417 42.755 70.3237 42.6261C70.094 42.3994 69.9384 42.1845 69.943 41.9192C69.9046 41.685 69.9833 41.4316 70.2102 41.2017C70.2533 41.1706 70.2963 41.1395 70.3942 41.0031C70.4802 40.9408 70.5781 40.8044 70.6642 40.7421L70.946 40.407C71.2279 40.072 71.4119 39.8733 71.4238 39.7992C71.4357 39.7251 71.4046 39.6821 71.3734 39.6391C71.3423 39.5961 71.2801 39.5102 71.1438 39.4124L71.1126 39.3694L71.2106 39.233L71.2847 39.2449C71.6196 39.5264 72.0406 39.7456 72.5356 39.9767L72.5548 40.0937C72.2849 40.3547 72.0579 40.5845 71.831 40.8143L71.4081 41.3169C71.1812 41.5468 71.0833 41.6832 71.0283 41.7884C70.9734 41.8937 70.9185 41.9989 70.9377 42.116C70.9569 42.2331 71.0192 42.319 71.1125 42.448C71.2489 42.5457 71.3852 42.6435 71.5765 42.636C71.7677 42.6286 71.8849 42.6093 71.9828 42.4729C72.0688 42.4106 72.0807 42.3365 72.1237 42.3053L72.5346 41.8768C72.8165 41.5418 73.0005 41.3431 73.0124 41.269C73.0243 41.1949 72.9931 41.1519 72.962 41.1089C72.9309 41.0659 72.8687 40.98 72.7324 40.8822L72.7012 40.8392L72.7992 40.7028L72.8733 40.7147C73.2082 40.9962 73.6292 41.2154 74.1242 41.4465L74.1434 41.5635C73.9165 41.7934 73.6465 42.0543 73.4196 42.2841L72.7268 43.0477C72.4019 43.4139 72.2179 43.6126 72.206 43.6867C72.163 43.7179 72.1941 43.7608 72.2252 43.8038C72.2564 43.8468 72.3186 43.9327 72.486 44.0735L72.5172 44.1164L72.314 44.198Z" fill="white"/>
<path d="M77.2094 45.4351C77.073 45.3373 76.9678 45.2825 76.9367 45.2396C76.9055 45.1966 76.8625 45.2277 76.7454 45.247C76.6283 45.2663 76.4681 45.3168 76.1478 45.4177L74.5582 45.8481C74.5152 45.8792 74.2379 45.949 73.8005 46.0692L73.3841 45.5846C73.5489 45.2689 73.7566 44.922 73.9332 44.5321C74.2197 43.9317 74.4824 43.4795 74.702 43.0585C74.7688 42.8791 74.8237 42.7739 74.8045 42.6568C74.7734 42.6138 74.7423 42.5709 74.6801 42.4849L74.692 42.4108L74.864 42.2862L74.9381 42.2981C75.0626 42.47 75.2923 42.6967 75.5412 43.0404C75.759 43.3413 75.9575 43.525 76.082 43.6969L76.0701 43.771L75.898 43.8955L75.8239 43.8837C75.7306 43.7548 75.6253 43.7 75.5942 43.657C75.5631 43.614 75.5201 43.6452 75.4771 43.6763C75.4341 43.7075 75.2263 44.0544 74.8419 44.7912C74.6342 45.1381 74.5125 45.4227 74.5006 45.4968C74.8639 45.3648 75.2153 45.3068 75.5356 45.2059C76.0902 45.0664 76.3794 44.9225 76.4654 44.8603C76.5084 44.8291 76.4773 44.7862 76.4892 44.712C76.4581 44.6691 76.3958 44.5831 76.2714 44.4112L76.2833 44.3371L76.4553 44.2125L76.5295 44.2244C76.6228 44.3533 76.7784 44.5682 76.9458 44.7089C77.1014 44.9238 77.2689 45.0645 77.3933 45.2364L77.3814 45.3105L77.2094 45.4351Z" fill="white"/>
<path d="M76.1573 49.1437C76.0017 48.9289 75.815 48.671 75.5661 48.3272C75.3172 47.9834 75.1305 47.7256 75.0061 47.5537L75.018 47.4796L75.19 47.355L75.2642 47.3669C75.3886 47.5388 75.4819 47.6677 75.5561 47.6795C75.5872 47.7225 75.6302 47.6913 75.7473 47.672C75.9624 47.5163 76.2516 47.3725 76.5527 47.1545L76.9398 46.8742C77.2839 46.6251 77.4989 46.4694 77.5539 46.3641C77.5969 46.333 77.5658 46.29 77.5465 46.1729C77.5154 46.13 77.4843 46.087 77.3599 45.9151L77.3718 45.841L77.5438 45.7164L77.6179 45.7282C77.8979 46.115 78.2329 46.3965 78.5989 46.721L78.587 46.7951C78.2118 47.0013 77.9537 47.1881 77.7387 47.3438L76.8473 47.9236C76.7183 48.0171 76.5462 48.1416 76.2881 48.3285C76.2021 48.3908 76.1902 48.4649 76.1902 48.4649C76.1783 48.539 76.2717 48.6679 76.3961 48.8398L76.3842 48.9139L76.1573 49.1437ZM79.5095 46.2582C79.3804 46.3517 79.2633 46.371 79.1151 46.3473C78.9668 46.3236 78.8305 46.2259 78.7682 46.1399C78.6749 46.011 78.6557 45.8939 78.6795 45.7457C78.7033 45.5974 78.7582 45.4922 78.8872 45.3988C79.0163 45.3053 79.1334 45.286 79.2817 45.3097C79.4299 45.3334 79.5663 45.4311 79.6285 45.5171C79.7218 45.646 79.741 45.7631 79.7172 45.9113C79.6934 46.0596 79.6385 46.1648 79.5095 46.2582Z" fill="white"/>
<path d="M79.4148 53.0083C79.0826 53.1833 78.7431 53.1671 78.4274 53.0027C78.1117 52.8383 77.8197 52.5256 77.6569 52.1195C77.5132 51.8306 77.4245 51.4363 77.3668 51.0851L77.3787 51.011C77.5819 50.9294 77.742 50.8789 77.8281 50.8166L78.2344 50.6535L78.3085 50.6653L78.3899 50.8683L78.378 50.9424C78.1319 51.0552 78.0458 51.1174 78.0028 51.1486C77.8811 51.4332 77.9076 51.7415 78.0513 52.0305C78.1327 52.2335 78.2691 52.3313 78.4054 52.4291C78.5418 52.5269 78.7019 52.4764 78.8621 52.426C79.0652 52.3444 79.1321 52.165 79.0817 52.0049C79.0936 51.9308 79.0433 51.7708 78.9738 51.4936C78.885 51.0994 78.8155 50.8222 78.8823 50.6429C78.918 50.4205 79.1019 50.2218 79.3911 50.078C79.6803 49.9341 79.9457 49.9384 80.2614 50.1029C80.5771 50.2673 80.8379 50.537 81.0008 50.943C81.1756 51.275 81.2762 51.5951 81.2286 51.8916L81.1856 51.9227C81.0685 51.942 80.8223 52.0547 80.459 52.1868L80.4279 52.1438L80.3464 51.9408L80.3583 51.8667C80.4874 51.7732 80.6164 51.6798 80.6594 51.6487C80.7693 51.4382 80.7308 51.204 80.6183 50.958C80.568 50.7979 80.4316 50.7001 80.2953 50.6024C80.1589 50.5046 80.0418 50.5239 79.9127 50.6173C79.7526 50.6678 79.6858 50.8471 79.6931 51.0383C79.7123 51.1554 79.7626 51.3155 79.801 51.5496C79.8898 51.9439 79.9593 52.221 79.9355 52.3693C79.8449 52.6969 79.661 52.8955 79.4148 53.0083Z" fill="white"/>
<path d="M81.4514 56.1843C81.4084 56.2154 81.3343 56.2036 81.2913 56.2347L81.2172 56.2229C81.0305 55.9651 80.8676 55.559 80.6736 55.11C80.6114 55.024 80.5922 54.9069 80.5107 54.7039C80.4604 54.5438 80.4101 54.3838 80.3479 54.2978C80.0587 54.4417 79.8006 54.6285 79.6789 54.9132C79.5572 55.1978 79.5096 55.4942 79.6102 55.8144C79.6916 56.0174 79.8472 56.2323 80.108 56.5019L80.0531 56.6072L79.6825 56.548C79.3787 56.3095 79.1298 55.9657 78.998 55.6026C78.8159 55.0795 78.8132 54.6229 78.9779 54.3072C79.1546 53.9173 79.4987 53.6682 79.948 53.4739C80.5145 53.2602 80.9711 53.2571 81.3179 53.4645C81.7581 53.8008 82.05 54.1134 82.1818 54.4765C82.3446 54.8826 82.3282 55.222 82.2064 55.5067C82.1588 55.8031 81.8578 56.0211 81.4514 56.1843ZM81.2236 55.2358C81.7901 55.0221 81.9859 54.7493 81.8972 54.3551C81.7343 53.949 81.4067 53.8587 80.8402 54.0724L80.7972 54.1035C80.8164 54.2206 80.886 54.4977 81.0296 54.7867C81.0799 54.9468 81.1303 55.1068 81.2236 55.2358C81.1806 55.2669 81.1806 55.2669 81.2236 55.2358Z" fill="white"/>
<path d="M80.6968 61.1189C80.6081 60.7247 80.5266 60.5216 80.5385 60.4475C80.5504 60.3734 80.4882 60.2875 80.4379 60.1274C80.3876 59.9673 80.3683 59.8503 80.3372 59.8073L80.3802 59.7761C80.5715 59.7687 80.7317 59.7182 80.8918 59.6678C80.7555 59.57 80.5569 59.3863 80.2101 59.1789C80.1167 59.05 80.0664 58.8899 80.0161 58.7298C79.9154 58.4097 79.9941 58.1562 80.104 57.9457C80.2138 57.7352 80.4288 57.5795 80.7061 57.5097C80.7491 57.4786 80.8233 57.4904 80.9404 57.4711C81.0575 57.4518 81.1747 57.4325 81.2918 57.4132L81.6862 57.3241C82.1237 57.2039 82.3579 57.1653 82.444 57.103C82.487 57.0719 82.4989 56.9978 82.5108 56.9237C82.5108 56.9237 82.4916 56.8066 82.4843 56.6154L82.5273 56.5842L82.6874 56.5338L82.7185 56.5768C82.8384 57.014 83.0324 57.463 83.2694 57.8809L83.2575 57.955C82.9061 58.013 82.5547 58.0709 82.2032 58.1288L81.5745 58.2565C81.2973 58.3262 81.063 58.3649 80.977 58.4271C80.8598 58.4464 80.7619 58.5828 80.707 58.6881C80.6521 58.7934 80.6713 58.9104 80.6475 59.0587C80.6978 59.2187 80.7481 59.3788 80.9156 59.5195C81.052 59.6173 81.2002 59.641 81.3485 59.6646C81.4656 59.6453 81.5086 59.6142 81.5397 59.6572L82.1254 59.5606C82.5628 59.4404 82.7971 59.4018 82.8831 59.3395C82.9261 59.3084 82.938 59.2343 82.9499 59.1602C82.9499 59.1602 82.9307 59.0431 82.9234 58.8519L82.9664 58.8207L83.1266 58.7703L83.1577 58.8133C83.2776 59.2505 83.4715 59.6995 83.7085 60.1174L83.6966 60.1915C83.3452 60.2494 83.0368 60.2762 82.6424 60.3653L81.6193 60.582C81.1507 60.6593 80.9046 60.772 80.8616 60.8031C80.8185 60.8343 80.8185 60.8343 80.8066 60.9084C80.7947 60.9825 80.814 61.0996 80.8643 61.2597L80.8213 61.2908L80.6968 61.1189Z" fill="white"/>
<path d="M83.9346 64.866C83.8843 64.7059 83.8651 64.5888 83.834 64.5459C83.8029 64.5029 83.7718 64.4599 83.6976 64.4481C83.5924 64.3933 83.413 64.3267 83.1284 64.2052L81.5883 63.6173C81.5142 63.6055 81.2607 63.527 80.8278 63.3819L80.7748 62.7653C81.107 62.5903 81.4392 62.4153 81.8455 62.2521C82.4239 61.9644 82.8851 61.6959 83.3033 61.4586C83.5065 61.377 83.5614 61.2718 83.6163 61.1665C83.6282 61.0924 83.6401 61.0183 83.652 60.9442L83.695 60.913L83.8863 60.9056L83.9174 60.9485C83.9247 61.1397 83.9824 61.491 83.954 61.9046C83.9686 62.287 84.0382 62.5641 84.0455 62.7553L84.0025 62.7864L83.8112 62.7939L83.7801 62.7509C83.7728 62.5597 83.7536 62.4427 83.7224 62.3997C83.6913 62.3567 83.6602 62.3137 83.6172 62.3449C83.5431 62.333 83.1679 62.5392 82.5035 62.8892C82.1283 63.0954 81.8821 63.2081 81.7961 63.2704C82.1548 63.4037 82.4824 63.494 82.8411 63.6272C83.3792 63.8272 83.7068 63.9175 83.824 63.8982C83.867 63.867 83.91 63.8359 83.91 63.8359C83.9219 63.7618 83.9338 63.6876 83.9265 63.4964L83.9695 63.4653L84.1607 63.4578L84.1919 63.5008C84.1992 63.692 84.2065 63.8832 84.2019 64.1485C84.1973 64.4138 84.2357 64.648 84.243 64.8392L84.2 64.8703L83.9346 64.866Z" fill="white"/>
<path d="M80.95 67.3541C80.9546 67.0888 80.9711 66.7494 80.9564 66.367C80.9848 65.9534 80.9583 65.6452 80.9629 65.3798L81.0059 65.3487L81.1971 65.3412L81.2283 65.3842C81.2667 65.6184 81.2429 65.7666 81.274 65.8096C81.3051 65.8525 81.3362 65.8955 81.4534 65.8762C81.7499 65.9235 82.0583 65.8968 82.3978 65.9129L82.8544 65.9098C83.3111 65.9067 83.5765 65.9111 83.6195 65.8799C83.6625 65.8488 83.7055 65.8176 83.7174 65.7435C83.7174 65.7435 83.7412 65.5953 83.7339 65.4041L83.7769 65.373L83.9682 65.3655L83.9993 65.4085C84.002 65.865 84.1219 66.3022 84.2298 66.8135L84.1749 66.9188C83.7613 66.8907 83.4218 66.8745 83.1564 66.8702L82.0948 66.8528C81.9466 66.8291 81.7123 66.8677 81.4039 66.8945C81.3298 66.8827 81.2868 66.9138 81.2438 66.945C81.2319 67.0191 81.1769 67.1243 81.1724 67.3896L81.1293 67.4208L80.95 67.3541ZM85.3536 66.9169C85.2053 66.8932 85.1001 66.8384 84.9638 66.7406C84.8704 66.6117 84.8082 66.5258 84.8009 66.3346C84.8247 66.1863 84.8485 66.0381 84.9775 65.9447C85.1066 65.8513 85.1926 65.789 85.3408 65.8126C85.4891 65.8363 85.5943 65.8911 85.7307 65.9889C85.824 66.1178 85.8862 66.2038 85.8935 66.395C85.8697 66.5432 85.8459 66.6914 85.7169 66.7848C85.5879 66.8783 85.5018 66.9405 85.3536 66.9169Z" fill="white"/>
<path d="M81.3627 72.3613C80.9921 72.3021 80.7194 72.1065 80.5757 71.8176C80.4009 71.4856 80.3863 71.1032 80.4266 70.6155C80.4742 70.3191 80.6078 69.9603 80.8156 69.6134L80.8586 69.5823C81.0379 69.6489 81.1862 69.6726 81.3344 69.6963L81.7362 69.7984L81.7673 69.8414L81.7316 70.0637L81.6886 70.0949C81.4662 70.0594 81.2749 70.0668 81.2438 70.0239C80.9546 70.1677 80.8018 70.4094 80.7423 70.78C80.7066 71.0023 80.7569 71.1624 80.8073 71.3224C80.9006 71.4513 80.9939 71.5803 81.1852 71.5728C81.4076 71.6083 81.5366 71.5149 81.6345 71.3785C81.6464 71.3043 81.7444 71.168 81.8231 70.9145C81.9567 70.5557 82.1095 70.3141 82.2074 70.1777C82.3914 69.979 82.6257 69.9404 82.9222 69.9877C83.2187 70.0351 83.4914 70.2306 83.635 70.5196C83.7787 70.8086 83.8363 71.1598 83.7649 71.6045C83.7054 71.9751 83.5837 72.2597 83.4309 72.5014L83.3879 72.5325C83.2826 72.4777 83.0602 72.4422 82.6585 72.3401L82.6274 72.2971L82.6631 72.0747L82.7061 72.0436C82.8544 72.0673 83.0026 72.0909 83.1197 72.0716C83.2918 71.9471 83.4757 71.7484 83.4803 71.4831C83.5471 71.3037 83.4968 71.1436 83.4035 71.0147C83.3101 70.8858 83.2479 70.7999 83.0997 70.7762C82.9514 70.7525 82.7913 70.803 82.6814 71.0135C82.6265 71.1187 82.6027 71.267 82.481 71.5516C82.3474 71.9103 82.2257 72.195 82.0966 72.2884C81.8935 72.37 81.6592 72.4086 81.3627 72.3613Z" fill="white"/>
<path d="M81.2125 76.1376C81.1814 76.0946 81.1384 76.1257 81.0332 76.0709L81.0021 76.028C81.0186 75.6885 81.0781 75.318 81.2044 74.768C81.2163 74.6939 81.2401 74.5457 81.3069 74.3663C81.3737 74.1869 81.3975 74.0387 81.4094 73.9646C81.0818 73.8743 80.8045 73.9441 80.5583 74.0568C80.2691 74.2007 80.1163 74.4423 80.0257 74.7699C79.99 74.9922 79.9424 75.2887 80.043 75.6088L79.957 75.6711L79.6532 75.4326C79.5645 75.0383 79.5498 74.6559 79.6523 74.2542C79.8098 73.7473 80.0605 73.3692 80.4357 73.1631C80.8109 72.9569 81.2365 72.9108 81.7435 73.0678C82.3246 73.2365 82.7025 73.4869 82.8654 73.893C83.0475 74.4161 83.0932 74.8415 82.9907 75.2432C82.8882 75.6449 82.6493 75.9488 82.3912 76.1357C81.9968 76.2248 81.6143 76.2397 81.2125 76.1376ZM81.5466 75.2407C82.1277 75.4095 82.491 75.2775 82.5935 74.8758C82.696 74.474 82.4783 74.1732 81.8972 74.0045L81.823 73.9926C81.7681 74.0979 81.6894 74.3514 81.5988 74.679C81.532 74.8583 81.5082 75.0066 81.4844 75.1548C81.4725 75.2289 81.5466 75.2407 81.5466 75.2407Z" fill="white"/>
<path d="M77.7098 79.7213C77.8434 79.3626 77.9533 79.1521 77.9652 79.078C77.9771 79.0039 78.032 78.8986 78.0988 78.7192C78.1226 78.571 78.1775 78.4657 78.2324 78.3605L78.2754 78.3293C78.4118 78.4271 78.5911 78.4938 78.7705 78.5604C78.7202 78.4003 78.6506 78.1232 78.5189 77.7601C78.5427 77.6119 78.5354 77.4207 78.6333 77.2843C78.755 76.9997 78.939 76.801 79.1851 76.6882C79.4313 76.5755 79.6537 76.611 79.9383 76.7325C79.9694 76.7754 80.0435 76.7873 80.1488 76.8421C80.254 76.8969 80.3592 76.9517 80.4645 77.0065L80.8543 77.1827C81.2441 77.359 81.4976 77.4375 81.5718 77.4493C81.6148 77.4181 81.6578 77.387 81.7008 77.3559C81.7438 77.3247 81.7557 77.2506 81.8225 77.0712L81.8655 77.0401L82.0449 77.1067L82.076 77.1497C81.9305 77.5826 81.8161 78.0584 81.7758 78.546L81.6898 78.6083C81.374 78.4439 81.0583 78.2795 80.7737 78.158L80.1734 77.8722C79.8888 77.7507 79.7095 77.6841 79.5612 77.6604C79.413 77.6368 79.2958 77.6561 79.2098 77.7184C79.1238 77.7807 79.0377 77.8429 78.9709 78.0223C78.9041 78.2017 78.8803 78.3499 78.9618 78.5529C79.0121 78.713 79.1054 78.8419 79.2107 78.8967C79.3159 78.9515 79.39 78.9634 79.39 78.9634L79.9592 79.2062C80.3491 79.3825 80.6025 79.461 80.6767 79.4728C80.7508 79.4846 80.7627 79.4105 80.8057 79.3794C80.8487 79.3482 80.8606 79.2741 80.9274 79.0948L80.9704 79.0636L81.1498 79.1302L81.1809 79.1732C81.0354 79.6061 80.921 80.0819 80.8807 80.5696L80.7947 80.6318C80.479 80.4674 80.1944 80.346 79.8786 80.1816L78.9196 79.7624C78.4557 79.5743 78.2452 79.4647 78.128 79.484C78.085 79.5152 78.085 79.5152 78.042 79.5463C77.999 79.5775 77.9441 79.6827 77.8773 79.8621L77.8343 79.8932L77.7098 79.7213Z" fill="white"/>
<path d="M78.1653 84.6971C78.2321 84.5177 78.244 84.4436 78.2559 84.3695C78.2248 84.3265 78.2367 84.2524 78.2056 84.2094C78.1434 84.1235 78.0189 83.9516 77.9064 83.7056L76.9849 82.3423C76.9538 82.2993 76.7982 82.0844 76.5182 81.6977L76.8358 81.1403C77.2064 81.1994 77.577 81.2586 77.9907 81.2866C78.6267 81.3501 79.1456 81.4329 79.6333 81.4728C79.8557 81.5083 79.9728 81.489 80.0589 81.4267C80.1019 81.3956 80.1449 81.3644 80.1998 81.2592L80.2428 81.228L80.3792 81.3258L80.4103 81.3688C80.3004 81.5793 80.1476 81.8209 79.8968 82.199C79.7321 82.5148 79.5793 82.7564 79.4694 82.9669L79.4264 82.9981L79.2901 82.9003L79.259 82.8573C79.3569 82.7209 79.4118 82.6157 79.4237 82.5415C79.4356 82.4674 79.4356 82.4674 79.4045 82.4245C79.3734 82.3815 78.9286 82.3105 78.1444 82.2233C77.6996 82.1523 77.4773 82.1168 77.3601 82.1361C77.5779 82.4369 77.7957 82.7377 77.9824 82.9956C78.3246 83.4683 78.5113 83.7261 78.6165 83.7809C78.6476 83.8239 78.6906 83.7928 78.7337 83.7616C78.7767 83.7305 78.8316 83.6252 78.9295 83.4888L78.9725 83.4577L79.1519 83.5243L79.183 83.5673C79.0851 83.7037 78.9752 83.9142 78.8654 84.1247C78.7126 84.3664 78.6028 84.5769 78.5048 84.7133L78.4618 84.7444L78.1653 84.6971Z" fill="white"/>
<path d="M74.3166 84.9947C74.4694 84.753 74.6653 84.4802 74.9041 84.1763C75.186 83.8412 75.3507 83.5255 75.4487 83.3891L75.4917 83.3579L75.6591 83.4987L75.6903 83.5417C75.5493 83.7092 75.4825 83.8886 75.4825 83.8886C75.4706 83.9627 75.5017 84.0057 75.5758 84.0175C75.7744 84.2012 76.0471 84.3968 76.3198 84.5923L76.7289 84.8857C77.0638 85.1672 77.2743 85.2768 77.3795 85.3316C77.4536 85.3434 77.4966 85.3123 77.5397 85.2811C77.5827 85.25 77.5946 85.1759 77.7355 85.0083L77.7785 84.9772L77.9149 85.075L77.946 85.118C77.6952 85.496 77.5067 85.96 77.3612 86.3928L77.2751 86.4551C76.9402 86.1736 76.6675 85.9781 76.4689 85.7943L75.6197 85.1647C75.4834 85.0669 75.3159 84.9262 75.0743 84.7736C74.9691 84.7188 74.9691 84.7188 74.9261 84.7499C74.8831 84.7811 74.754 84.8745 74.6442 85.085L74.6012 85.1161L74.3166 84.9947ZM78.1866 87.1707C78.0502 87.0729 77.988 86.987 77.9807 86.7958C77.9615 86.6787 77.9853 86.5305 78.0832 86.3941C78.1811 86.2577 78.2671 86.1954 78.4273 86.145C78.5874 86.0945 78.6927 86.1493 78.829 86.2471C78.9654 86.3449 79.0276 86.4308 79.0349 86.622C79.0541 86.7391 79.0303 86.8873 78.9324 87.0237C78.8345 87.1601 78.7485 87.2224 78.5883 87.2729C78.397 87.2803 78.2488 87.2567 78.1866 87.1707Z" fill="white"/>
<path d="M71.757 89.3369C71.4962 89.0672 71.3956 88.7471 71.412 88.4077C71.4715 88.0371 71.6363 87.7214 71.9612 87.3551C72.1881 87.1253 72.4892 86.9073 72.8644 86.7012L72.9385 86.713C73.063 86.8849 73.1563 87.0138 73.2616 87.0686L73.5535 87.3813L73.5416 87.4554L73.4006 87.6229L73.3265 87.6111C73.1279 87.4274 73.0227 87.3726 72.9916 87.3296C72.6521 87.3134 72.4059 87.4261 72.179 87.656C72.038 87.8235 71.9401 87.9599 71.9163 88.1081C71.8925 88.2564 71.9428 88.4164 72.0792 88.5142C72.2466 88.6549 72.3949 88.6786 72.598 88.597C72.6841 88.5347 72.8131 88.4413 73.0163 88.3597C73.3604 88.1106 73.6065 87.9979 73.7978 87.9904C74.0321 87.9518 74.2856 88.0302 74.5152 88.2569C74.7449 88.4836 74.8145 88.7608 74.798 89.1002C74.7815 89.4397 74.5737 89.7866 74.2608 90.0787C73.9908 90.3396 73.7327 90.5265 73.4865 90.6392L73.4124 90.6274C73.3502 90.5414 73.1946 90.3265 72.9027 90.0139L72.9146 89.9398L73.0556 89.7722L73.1297 89.7841C73.266 89.8819 73.3283 89.9678 73.4335 90.0226C73.6559 90.0581 73.902 89.9454 74.086 89.7467C74.1839 89.6103 74.2818 89.4739 74.3056 89.3257C74.3294 89.1775 74.3102 89.0604 74.1739 88.9626C74.0375 88.8648 73.8893 88.8411 73.6861 88.9227C73.6001 88.985 73.471 89.0784 73.256 89.2341C72.9119 89.4833 72.6657 89.596 72.5056 89.6464C72.2091 89.5991 71.9556 89.5206 71.757 89.3369Z" fill="white"/>
<path d="M69.4541 92.3141C69.4229 92.2711 69.3918 92.2281 69.3607 92.1852L69.3726 92.111C69.5685 91.8383 69.8815 91.5462 70.2805 91.1918C70.3665 91.1295 70.4525 91.0672 70.5935 90.8997C70.7655 90.7751 70.8515 90.7128 70.9064 90.6076C70.6768 90.3809 70.4352 90.2283 70.1387 90.181C69.8422 90.1336 69.5219 90.2345 69.2638 90.4214C69.0917 90.5459 68.9389 90.7876 68.7742 91.1034L68.6259 91.0797L68.5683 90.7284C68.7019 90.3697 68.9097 90.0228 69.2538 89.7737C69.6528 89.4193 70.0902 89.2991 70.5038 89.3271C70.9175 89.3551 71.2954 89.6055 71.6184 89.9611C72.0348 90.4456 72.1547 90.8828 72.0522 91.2846C71.8947 91.7915 71.6751 92.2125 71.374 92.4305C71.0299 92.6797 70.7407 92.8235 70.4012 92.8073C70.0498 92.8653 69.746 92.6267 69.4541 92.3141ZM70.2594 91.7965C70.6446 92.2381 71.0034 92.3714 71.2733 92.1104C71.6174 91.8613 71.6028 91.4789 71.1864 90.9943L71.1553 90.9514C71.0263 91.0448 70.8543 91.1693 70.5532 91.3873C70.4241 91.4808 70.2832 91.6483 70.1972 91.7106C70.2283 91.7535 70.2283 91.7535 70.2594 91.7965Z" fill="white"/>
<path d="M64.5538 93.2422C64.8549 93.0242 65.1011 92.9115 65.1441 92.8803C65.1871 92.8492 65.3162 92.7558 65.4452 92.6623C65.5742 92.5689 65.6603 92.5066 65.7463 92.4444L65.7774 92.4873C65.8277 92.6474 65.9522 92.8193 66.0455 92.9482C66.1004 92.843 66.191 92.5154 66.2935 92.1136C66.3915 91.9772 66.5205 91.8838 66.6926 91.7593C66.9506 91.5724 67.2279 91.5027 67.4814 91.5811C67.7038 91.6166 67.9454 91.7692 68.089 92.0582C68.1201 92.1012 68.1512 92.1441 68.2446 92.2731C68.3068 92.359 68.4001 92.4879 68.4194 92.605L68.6252 92.9799C68.8311 93.3549 68.9867 93.5697 69.0919 93.6245C69.123 93.6675 69.1661 93.6364 69.2832 93.6171C69.3262 93.5859 69.3692 93.5548 69.5724 93.4732L69.6465 93.485L69.771 93.6569L69.7591 93.731C69.3719 94.0113 69.059 94.3034 68.6911 94.7008L68.6169 94.6889C68.4422 94.357 68.2985 94.068 68.1118 93.8101L67.7815 93.2633C67.5948 93.0055 67.4704 92.8336 67.4081 92.7476C67.3148 92.6187 67.2096 92.5639 67.0924 92.5832C66.9753 92.6025 66.8582 92.6218 66.7291 92.7153C66.5571 92.8398 66.4591 92.9762 66.4353 93.1245C66.3685 93.3038 66.3877 93.4209 66.4811 93.5498C66.5433 93.6358 66.5744 93.6788 66.6055 93.7217L66.9048 94.2256C67.1106 94.6005 67.2662 94.8154 67.3714 94.8702C67.4026 94.9131 67.4456 94.882 67.5627 94.8627C67.6057 94.8316 67.6917 94.7693 67.8519 94.7188L67.926 94.7307L68.0505 94.9025L68.0386 94.9767C67.6515 95.2569 67.3385 95.549 66.9706 95.9464L66.8964 95.9346C66.7528 95.6456 66.578 95.3136 66.3913 95.0558L65.8121 94.1652C65.5751 93.7473 65.4195 93.5324 65.3454 93.5206C65.3143 93.4776 65.2713 93.5087 65.2713 93.5087C65.2283 93.5399 65.1111 93.5592 64.9391 93.6838L64.865 93.6719L64.5538 93.2422Z" fill="white"/>
<path d="M62.0367 97.5534C62.2087 97.4288 62.2517 97.3977 62.2947 97.3665C62.3377 97.3354 62.3496 97.2613 62.3615 97.1872C62.3734 97.1131 62.4091 96.8907 62.3826 96.5824L62.379 94.9476C62.3909 94.8734 62.3525 94.6393 62.3498 94.1828L62.9282 93.895C63.189 94.1647 63.4498 94.4344 63.7847 94.7159C64.2441 95.1693 64.6412 95.5367 65.0072 95.8612C65.1747 96.0019 65.2799 96.0567 65.3541 96.0686C65.4282 96.0804 65.4712 96.0493 65.5572 95.987L65.6313 95.9988L65.7128 96.2019L65.6698 96.233C65.4666 96.3146 65.1774 96.4585 64.7711 96.6216C64.4389 96.7966 64.1927 96.9094 63.9896 96.991L63.9154 96.9791L63.834 96.7761L63.8459 96.702C64.0061 96.6515 64.0921 96.5893 64.1351 96.5581C64.1781 96.527 64.19 96.4529 64.19 96.4529C64.1589 96.4099 63.867 96.0972 63.2713 95.5461C62.9793 95.2334 62.7808 95.0497 62.6755 94.9949C62.6902 95.3773 62.6737 95.7167 62.6883 96.0991C62.7102 96.6727 62.7368 96.981 62.756 97.0981C62.7871 97.1411 62.8182 97.1841 62.8612 97.1529C62.9042 97.1218 63.0214 97.1025 63.1815 97.052L63.2556 97.0638L63.3371 97.2669L63.2941 97.298C63.1339 97.3485 62.9307 97.4301 62.6846 97.5428C62.4384 97.6555 62.2352 97.7371 62.0632 97.8617L61.9891 97.8498L62.0367 97.5534Z" fill="white"/>
<path d="M60.6111 99.5683C60.5608 99.4082 60.5727 99.3341 60.6395 99.1548C60.7374 99.0184 60.8234 98.9561 60.9525 98.8626C61.1126 98.8122 61.2609 98.8359 61.3661 98.8907C61.4713 98.9455 61.6077 99.0433 61.658 99.2033C61.7083 99.3634 61.6845 99.5116 61.6296 99.6169C61.5317 99.7533 61.4457 99.8155 61.3166 99.909C61.1565 99.9594 61.0394 99.9787 60.903 99.8809C60.7236 99.8143 60.6614 99.7284 60.6111 99.5683ZM58.7481 95.5462C58.9942 95.4335 59.3145 95.3326 59.709 95.2435C60.1153 95.0804 60.4356 94.9795 60.6387 94.8979L60.6699 94.9408L60.7513 95.1439L60.7083 95.175C60.5051 95.2566 60.345 95.3071 60.3331 95.3812C60.2901 95.4123 60.2782 95.4864 60.3093 95.5294C60.3788 95.8065 60.4795 96.1267 60.5801 96.4468L60.7311 96.927C60.894 97.333 60.9635 97.6102 61.0376 97.622C61.0687 97.665 61.1429 97.6768 61.1859 97.6457C61.1859 97.6457 61.303 97.6264 61.5062 97.5448L61.5373 97.5878L61.5876 97.7478L61.5446 97.779C61.1383 97.9421 60.7201 98.1794 60.2899 98.4908L60.2158 98.479C60.1271 98.0848 60.0264 97.7647 59.9569 97.4875L59.6238 96.4842C59.5735 96.3241 59.492 96.1211 59.3795 95.8751C59.3173 95.7891 59.2862 95.7461 59.2431 95.7773C59.169 95.7655 59.0519 95.7848 58.8487 95.8664L58.7746 95.8545L58.7481 95.5462Z" fill="white"/>
<path d="M54.157 97.6254C54.0994 97.2741 54.19 96.9465 54.46 96.6855C54.7299 96.4246 55.0621 96.2496 55.5307 96.1723C55.8821 96.1144 56.2216 96.1306 56.6352 96.1586L56.6663 96.2016C56.6737 96.3928 56.681 96.584 56.7002 96.7011L56.7459 97.1265L56.7029 97.1576L56.4686 97.1962L56.4375 97.1533C56.3991 96.9191 56.3488 96.759 56.3177 96.716C56.088 96.4893 55.7915 96.442 55.4401 96.4999C55.2058 96.5386 55.0767 96.632 54.9477 96.7254C54.8498 96.8618 54.7949 96.9671 54.8452 97.1271C54.8525 97.3183 55.02 97.4591 55.2112 97.4516C55.2854 97.4634 55.4766 97.4559 55.699 97.4914C56.1126 97.5195 56.378 97.5238 56.5144 97.6216C56.7248 97.7312 56.8804 97.9461 56.9499 98.2232C57.0076 98.5745 56.9289 98.828 56.7019 99.0578C56.475 99.2876 56.1428 99.4626 55.6742 99.5399C55.3228 99.5978 54.9833 99.5816 54.6868 99.5343L54.6557 99.4913C54.6676 99.4172 54.641 99.1089 54.5523 98.7146L54.5953 98.6835L54.7866 98.676L54.8177 98.719C54.868 98.8791 54.8872 98.9962 54.9494 99.0821C55.1169 99.2229 55.3704 99.3013 55.6477 99.2316C55.8389 99.2241 55.968 99.1307 56.097 99.0372C56.2261 98.9438 56.2499 98.7956 56.2306 98.6785C56.2233 98.4873 56.087 98.3895 55.8646 98.354C55.7905 98.3422 55.5992 98.3497 55.3338 98.3453C54.9202 98.3173 54.6548 98.3129 54.5185 98.2152C54.3391 98.1485 54.2265 97.9025 54.157 97.6254Z" fill="white"/>
<path d="M50.5593 98.7238C50.5282 98.6808 50.5401 98.6067 50.552 98.5326L50.595 98.5014C50.9153 98.4005 51.3097 98.3115 51.8405 98.3202C51.9146 98.332 52.0747 98.2816 52.266 98.2741C52.4573 98.2666 52.5744 98.2473 52.6915 98.228C52.665 97.9197 52.5213 97.6307 52.3228 97.447C52.0931 97.2203 51.8396 97.1418 51.4571 97.1568C51.2228 97.1954 50.9455 97.2652 50.6563 97.409L50.5941 97.3231L50.7277 96.9643C51.0718 96.7152 51.4351 96.5832 51.8177 96.5682C52.3603 96.5028 52.7932 96.6479 53.097 96.8865C53.4319 97.168 53.5948 97.574 53.6286 98.0735C53.6817 98.6901 53.5362 99.123 53.2662 99.3839C52.8672 99.7383 52.4609 99.9015 52.0353 99.9476C51.6098 99.9937 51.2822 99.9034 51.0525 99.6767C50.7368 99.5122 50.5931 99.2233 50.5593 98.7238ZM51.5037 98.7605C51.5567 99.3771 51.7745 99.6779 52.2001 99.6318C52.6256 99.5857 52.8214 99.3129 52.7684 98.6963L52.7803 98.6222C52.632 98.5986 52.3978 98.6372 52.0152 98.6521C51.824 98.6596 51.6638 98.7101 51.5467 98.7294C51.5037 98.7605 51.5037 98.7605 51.5037 98.7605Z" fill="white"/>
<path d="M45.9861 96.6629C46.3686 96.6479 46.591 96.6834 46.7081 96.6641C46.7823 96.676 46.8994 96.6567 47.0476 96.6803C47.1959 96.704 47.313 96.6847 47.3872 96.6965L47.4183 96.7395C47.3945 96.8877 47.3588 97.1101 47.335 97.2583C47.464 97.1649 47.6791 97.0092 48.0232 96.76C48.1833 96.7096 48.3746 96.7021 48.5228 96.7258C48.8623 96.742 49.0728 96.8516 49.2714 97.0353C49.47 97.219 49.5084 97.4532 49.5349 97.7615C49.566 97.8045 49.5541 97.8786 49.4992 97.9838C49.4754 98.1321 49.4635 98.2062 49.4827 98.3233L49.4543 98.7368C49.426 99.1503 49.4214 99.4157 49.4836 99.5016C49.5147 99.5446 49.5458 99.5876 49.6199 99.5994C49.6199 99.5994 49.7682 99.623 49.9164 99.6467L49.9476 99.6897L49.9549 99.8809L49.9119 99.912C49.4552 99.9151 48.9867 99.9924 48.4751 100.101L48.3699 100.046C48.4294 99.6754 48.4459 99.336 48.4623 98.9965L48.4953 98.3177C48.5429 98.0212 48.5045 97.787 48.4853 97.6699C48.4661 97.5529 48.4468 97.4358 48.3105 97.338C48.2483 97.252 48.1 97.2284 47.9518 97.2047C47.7605 97.2122 47.6004 97.2626 47.4713 97.3561C47.3423 97.4495 47.2444 97.5859 47.2206 97.7341C47.2398 97.8512 47.2279 97.9253 47.1849 97.9564L47.1638 98.5612C47.1354 98.9747 47.1308 99.2401 47.193 99.326C47.2242 99.369 47.2553 99.4119 47.3294 99.4238C47.3294 99.4238 47.4776 99.4474 47.6259 99.4711L47.657 99.5141L47.6643 99.7053L47.6213 99.7364C47.1647 99.7395 46.6961 99.8168 46.1845 99.9251L46.0793 99.8703C46.0958 99.5309 46.1864 99.2033 46.1718 98.8209L46.2643 97.7715C46.3045 97.2838 46.3091 97.0185 46.278 96.9755C46.2469 96.9326 46.2469 96.9326 46.2158 96.8896C46.1417 96.8778 46.0364 96.823 45.8452 96.8304L45.8141 96.7875L45.9861 96.6629Z" fill="white"/>
<path d="M41.4691 98.7547C41.6604 98.7472 41.7345 98.759 41.7775 98.7279C41.8205 98.6968 41.8635 98.6656 41.9495 98.6033C42.0356 98.5411 42.1335 98.4047 42.3293 98.1319L43.2656 96.799C43.3086 96.7679 43.4614 96.5263 43.7122 96.1482L44.3363 96.2858C44.3939 96.6371 44.4827 97.0313 44.5714 97.4256C44.6986 98.054 44.8377 98.6083 44.8834 99.0337C44.9219 99.2678 44.9841 99.3538 45.0893 99.4086C45.1204 99.4516 45.1946 99.4634 45.2687 99.4752L45.2998 99.5182L45.2641 99.7405L45.2211 99.7717C44.9987 99.7362 44.6711 99.6459 44.3005 99.5867C43.9298 99.5276 43.6333 99.4802 43.454 99.4136L43.4229 99.3706L43.4586 99.1483L43.5016 99.1171C43.6498 99.1408 43.7981 99.1645 43.8411 99.1333C43.9152 99.1452 43.9271 99.071 43.9271 99.071C43.939 98.9969 43.8503 98.6027 43.7469 97.8261C43.6581 97.4318 43.5886 97.1547 43.5694 97.0376C43.3305 97.3415 43.1347 97.6143 42.9699 97.9301C42.6643 98.4134 42.4684 98.6862 42.4565 98.7603C42.4446 98.8344 42.4446 98.8344 42.5187 98.8462C42.5499 98.8892 42.6981 98.9129 42.8464 98.9365L42.8775 98.9795L42.8418 99.2018L42.7988 99.233C42.6194 99.1663 42.397 99.1308 42.1746 99.0954C41.9212 99.0169 41.6558 99.0125 41.5075 98.9889L41.4764 98.9459L41.4691 98.7547Z" fill="white"/>
<path d="M39.0978 99.5544C39.1216 99.4062 39.2506 99.3128 39.3367 99.2505C39.4657 99.157 39.614 99.1807 39.7622 99.2044C39.9105 99.228 40.0038 99.357 40.0971 99.4859C40.1905 99.6148 40.1667 99.763 40.1429 99.9113C40.1191 100.059 39.99 100.153 39.904 100.215C39.775 100.309 39.6267 100.285 39.4785 100.261C39.3302 100.238 39.2369 100.109 39.1435 99.9798C39.0932 99.8197 39.074 99.7026 39.0978 99.5544ZM39.9481 95.2053C40.2016 95.2838 40.5292 95.3741 40.931 95.4763C41.3327 95.5784 41.6603 95.6687 41.8827 95.7042L41.9138 95.7472L41.847 95.9265L41.804 95.9577C41.5816 95.9222 41.4334 95.8985 41.3592 95.8867C41.3162 95.9178 41.2732 95.949 41.2613 96.0231C41.1396 96.3077 41.092 96.6042 40.9703 96.8888L40.8247 97.3216C40.6792 97.7545 40.6435 97.9768 40.6627 98.0939C40.6938 98.1369 40.725 98.1799 40.7561 98.2228C40.7561 98.2228 40.8613 98.2776 41.0407 98.3443L41.0718 98.3872L41.005 98.5666L40.962 98.5978C40.5172 98.5268 40.0295 98.4869 39.5417 98.4471L39.4795 98.3611C39.6131 98.0024 39.7467 97.6436 39.8254 97.3901L40.1403 96.3762C40.1641 96.228 40.2428 95.9745 40.3215 95.721C40.3334 95.6469 40.3453 95.5728 40.3142 95.5298C40.2831 95.4868 40.1348 95.4632 39.9243 95.3536L39.8932 95.3106L39.9481 95.2053Z" fill="white"/>
<path d="M35.0059 94.2642C35.1706 93.9485 35.3976 93.7186 35.749 93.6607C36.1004 93.6028 36.514 93.6308 36.935 93.85C37.2196 93.9715 37.5234 94.21 37.8153 94.5227L37.8464 94.5656C37.7366 94.7761 37.6817 94.8814 37.6268 94.9867L37.4501 95.3765L37.4071 95.4077L37.2278 95.341L37.1967 95.2981C37.3065 95.0875 37.3303 94.9393 37.3422 94.8652C37.2415 94.5451 37.086 94.3302 36.7703 94.1658C36.5909 94.0992 36.4115 94.0325 36.2514 94.083C36.0912 94.1334 36.0052 94.1957 35.9073 94.3321C35.8405 94.5115 35.8478 94.7027 35.9841 94.8005C36.0464 94.8864 36.1827 94.9842 36.3932 95.0938C36.697 95.3323 36.8956 95.516 37.02 95.6879C37.1326 95.9339 37.1399 96.1251 37.0182 96.4098C36.8964 96.6944 36.6384 96.8812 36.3611 96.951C36.0408 97.0519 35.6702 96.9927 35.2492 96.7735C34.9335 96.6091 34.6608 96.4135 34.4622 96.2298L34.4741 96.1557C34.5601 96.0934 34.6389 95.8399 34.8466 95.493L34.8896 95.4619L35.069 95.5285L35.1001 95.5715C35.0333 95.7509 34.9784 95.8561 34.9665 95.9302C35.0049 96.1644 35.2035 96.3481 35.457 96.4266C35.6363 96.4932 35.7846 96.5169 35.9017 96.4976C36.0188 96.4783 36.1479 96.3849 36.2028 96.2796C36.2696 96.1002 36.2193 95.9402 36.0829 95.8424C36.0207 95.7565 35.8844 95.6587 35.6428 95.5061C35.339 95.2676 35.1404 95.0838 35.047 94.9549C34.8485 94.7712 34.8531 94.5059 35.0059 94.2642Z" fill="white"/>
<path d="M31.3953 93.08C31.4383 93.0489 31.4502 92.9748 31.4932 92.9436L31.5362 92.9125C31.8639 93.0028 32.2107 93.2102 32.6627 93.4724C32.768 93.5272 32.8732 93.582 33.0096 93.6798C33.1459 93.7776 33.3253 93.8442 33.3564 93.8872C33.5211 93.5714 33.5687 93.275 33.4992 92.9978C33.4296 92.7207 33.243 92.4628 32.9703 92.2673C32.7598 92.1576 32.5063 92.0792 32.1357 92.02L32.1165 91.9029L32.4176 91.6849C32.8312 91.713 33.2018 91.7721 33.5798 92.0225C34.0318 92.2847 34.3548 92.6403 34.4436 93.0345C34.6376 93.4836 34.5351 93.8853 34.2294 94.3686C33.9118 94.926 33.5677 95.1751 33.1422 95.2212C32.6425 95.2555 32.1978 95.1845 31.851 94.9771C31.5041 94.7697 31.2433 94.5 31.1857 94.1488C31.085 93.8287 31.1445 93.4581 31.3953 93.08ZM32.1393 93.6549C31.7906 94.1693 31.8482 94.5206 32.1951 94.728C32.5419 94.9354 32.9052 94.8033 33.1797 94.277L33.1917 94.2029C33.0553 94.1052 32.8878 93.9644 32.5721 93.8C32.4358 93.7022 32.2564 93.6356 32.1512 93.5808C32.1823 93.6237 32.1823 93.6237 32.1393 93.6549Z" fill="white"/>
<path d="M28.8575 88.7601C29.1613 88.9987 29.3287 89.1394 29.434 89.1942C29.4651 89.2372 29.6014 89.335 29.7067 89.3898C29.843 89.4876 29.9483 89.5424 29.9794 89.5853L30.0105 89.6283C29.9126 89.7647 29.7405 89.8893 29.6426 90.0257C29.7908 90.0493 30.0992 90.0225 30.4818 90.0076C30.6611 90.0742 30.7664 90.129 30.9338 90.2698C31.2065 90.4653 31.3191 90.7114 31.3575 90.9455C31.3959 91.1797 31.3172 91.4332 31.1214 91.706C31.0783 91.7371 31.0664 91.8112 30.9804 91.8735C30.9255 91.9788 30.8395 92.0411 30.7416 92.1774L30.5457 92.4502C30.2638 92.7853 30.111 93.027 30.0991 93.1011C30.0872 93.1752 30.1183 93.2182 30.1494 93.2611C30.1805 93.3041 30.2117 93.3471 30.3791 93.4878L30.4102 93.5308L30.3123 93.6672L30.2693 93.6983C29.8914 93.448 29.4704 93.2288 29.0064 93.0407L28.9442 92.9547C29.2142 92.6938 29.41 92.421 29.637 92.1912L30.0598 91.6886C30.2557 91.4158 30.3536 91.2794 30.4085 91.1741C30.4634 91.0689 30.4872 90.9206 30.468 90.8035C30.4488 90.6865 30.3866 90.6005 30.2502 90.5027C30.1139 90.4049 29.9345 90.3383 29.7432 90.3458C29.552 90.3533 29.4348 90.3726 29.3369 90.509C29.2509 90.5712 29.239 90.6454 29.196 90.6765L28.8162 91.148C28.5343 91.483 28.3815 91.7247 28.3696 91.7988C28.3577 91.8729 28.3888 91.9159 28.4199 91.9589C28.451 92.0018 28.4821 92.0448 28.6496 92.1856L28.6807 92.2285L28.5828 92.3649L28.5086 92.3531C28.1307 92.1027 27.7098 91.8835 27.2458 91.6954L27.1836 91.6095C27.4105 91.3797 27.6494 91.0757 27.8764 90.8459L28.538 90.0394C28.8629 89.6732 28.9727 89.4627 28.9846 89.3885C29.0277 89.3574 28.9965 89.3144 28.9654 89.2715C28.9343 89.2285 28.8721 89.1425 28.7046 89.0018L28.6735 88.9588L28.8575 88.7601Z" fill="white"/>
<path d="M23.9894 87.8306C24.1257 87.9284 24.2309 87.9832 24.2621 88.0262C24.2932 88.0692 24.3362 88.038 24.4533 88.0187C24.5705 87.9994 24.7306 87.949 25.0509 87.8481L26.6213 87.3006C26.6643 87.2694 26.9416 87.1997 27.3479 87.0365L27.8073 87.4899C27.6425 87.8057 27.4659 88.1955 27.3323 88.5543C27.0888 89.1235 26.8573 89.6187 26.6688 90.0827C26.6019 90.262 26.5781 90.4103 26.5974 90.5273C26.6285 90.5703 26.6596 90.6133 26.7218 90.6992L26.7099 90.7733L26.5379 90.8979L26.4756 90.812C26.3512 90.6401 26.1215 90.4134 25.8296 90.1007C25.5688 89.8311 25.3702 89.6473 25.2458 89.4754L25.2577 89.4013L25.3986 89.2338L25.4727 89.2456C25.6091 89.3434 25.6713 89.4293 25.7024 89.4723C25.7335 89.5153 25.7765 89.4842 25.8195 89.453C25.8626 89.4219 26.0392 89.032 26.3806 88.3264C26.5572 87.9365 26.667 87.726 26.6908 87.5777C26.3275 87.7098 26.0072 87.8107 25.6439 87.9427C25.1204 88.1252 24.8313 88.2691 24.7452 88.3314C24.7022 88.3625 24.7333 88.4055 24.7214 88.4796C24.7525 88.5226 24.8148 88.6085 24.9392 88.7804L24.9273 88.8545L24.7864 89.022L24.7123 89.0102C24.6189 88.8813 24.4203 88.6976 24.2959 88.5257C24.0973 88.3419 23.9729 88.1701 23.8054 88.0293L23.8173 87.9552L23.9894 87.8306Z" fill="white"/>
<path d="M21.5903 87.1437C21.7194 87.0503 21.8365 87.031 21.9847 87.0547C22.133 87.0783 22.2382 87.1331 22.3316 87.2621C22.4249 87.391 22.4441 87.5081 22.4203 87.6563C22.3965 87.8045 22.3416 87.9098 22.2126 88.0032C22.0835 88.0966 21.9664 88.1159 21.8181 88.0923C21.6699 88.0686 21.5647 88.0138 21.4713 87.8849C21.378 87.7559 21.3588 87.6389 21.3826 87.4906C21.4375 87.3854 21.4924 87.2801 21.5903 87.1437ZM24.787 84.0434C24.9856 84.2271 25.1722 84.4849 25.4211 84.8287C25.67 85.1725 25.8997 85.3992 26.0242 85.5711L26.0123 85.6452L25.8402 85.7698L25.7661 85.7579C25.6417 85.586 25.5053 85.4883 25.4742 85.4453C25.4431 85.4023 25.4001 85.4335 25.314 85.4957C25.056 85.6826 24.8409 85.8383 24.5398 86.0563L24.1527 86.3365C23.8086 86.5857 23.6247 86.7843 23.5386 86.8466C23.4956 86.8778 23.5267 86.9207 23.589 87.0067C23.6201 87.0497 23.6823 87.1356 23.7756 87.2645L23.7637 87.3386L23.5917 87.4632L23.5176 87.4514C23.1945 87.0958 22.8596 86.8143 22.4506 86.5209L22.5366 86.4586C22.8807 86.2095 23.1388 86.0227 23.3538 85.867L24.183 85.2012C24.312 85.1077 24.484 84.9832 24.711 84.7534C24.797 84.6911 24.8089 84.617 24.7778 84.574C24.7467 84.531 24.6964 84.371 24.5719 84.1991L24.5838 84.125L24.787 84.0434Z" fill="white"/>
<path d="M99.8804 25.6807C99.7441 25.5829 99.5839 25.6333 99.529 25.7386L94.5733 32.9289C90.8045 38.4084 81.5196 39.8908 75.983 40.7553C74.3431 41.0256 72.9805 41.2262 72.1797 41.4784C69.8516 42.247 69.2832 46.261 68.6955 50.1579C68.3742 52.159 68.1078 54.0548 67.6209 55.1933C67.134 56.3318 66.5272 57.0331 65.8985 57.1608C65.344 57.3003 64.8727 56.921 64.8727 56.921C64.8416 56.878 64.7675 56.8662 64.6933 56.8544L64.6192 56.8425L64.5881 56.7995C64.4206 56.6588 64.2221 56.4751 64.0546 56.3343C63.9805 56.3225 63.9494 56.2795 63.8871 56.1936L63.6941 53.8443C63.5158 51.8775 63.2322 49.8559 62.8863 47.7483L62.5936 46.2573C62.524 45.9802 62.4856 45.746 62.4161 45.4689C62.3776 45.2347 62.3081 44.9575 62.2386 44.6804C62.169 44.4032 62.1306 44.1691 62.0181 43.9231C61.9366 43.72 61.8671 43.4429 61.7545 43.1969C61.685 42.9197 61.5724 42.6737 61.4599 42.4277C61.3473 42.1817 61.2348 41.9357 61.1222 41.6897C60.9978 41.5178 60.8111 41.26 60.5503 40.9903L60.1221 40.5799C59.8686 40.5014 59.6581 40.3918 59.5098 40.3681C59.2564 40.2896 59.0651 40.2971 58.8308 40.3357C58.6396 40.3432 58.4364 40.4248 58.1783 40.6116C57.8031 40.8178 57.5331 41.0788 57.3373 41.3515C57.1964 41.5191 57.0984 41.6555 57.0316 41.8349C56.9648 42.0142 56.9099 42.1195 56.812 42.2559C56.6902 42.5405 56.6426 42.837 56.6262 43.1764C56.5117 43.6522 56.4907 44.257 56.5437 44.8735C56.6087 45.416 56.6736 45.9585 56.8557 46.4816C56.9637 46.9929 57.1147 47.4731 57.3398 47.9651C57.4907 48.4453 57.7158 48.9373 57.9409 49.4293C58.166 49.9213 58.36 50.3704 58.6281 50.8313C58.8532 51.3233 59.0472 51.7723 59.3153 52.2332C59.5834 52.6941 59.8635 53.0808 60.1746 53.5106C60.4857 53.9403 60.7657 54.3271 61.0768 54.7568C61.388 55.1865 61.7421 55.5851 62.1081 55.9096C62.2326 56.0815 62.3689 56.1793 62.4623 56.3082C62.5556 56.4371 62.7231 56.5778 62.8905 56.7186L63.132 59.9497C63.1567 60.9798 63.1502 61.967 63.1008 62.9853C63.0513 64.0036 63.0448 64.9907 62.9954 66.009C62.9432 66.5708 62.9029 67.0584 62.8626 67.5461C62.8223 68.0337 62.7821 68.5214 62.6988 69.0402L62.4177 70.5536L62.1367 72.067C62.058 72.3205 61.9793 72.574 61.9436 72.7963C61.8649 73.0498 61.8292 73.2722 61.7505 73.5257L61.2471 75.0036C61.1373 75.2141 61.0586 75.4676 60.9487 75.6781C60.8389 75.8886 60.7291 76.0991 60.6193 76.3096C60.4664 76.5513 60.3255 76.7188 60.2157 76.9293C60.0747 77.0968 59.8908 77.2955 59.7499 77.4631L59.2026 77.7938L58.691 77.9021C58.4687 77.8666 58.3634 77.8118 58.2582 77.757C58.1218 77.6593 57.9855 77.5615 57.9233 77.4755C57.6313 77.1629 57.4566 76.8309 57.2937 76.4249C57.2242 76.1477 57.1427 75.9447 57.0494 75.8158L56.8481 75.1755C56.7355 74.9295 56.6541 74.7265 56.5727 74.5234C56.4912 74.3204 56.4528 74.0862 56.3714 73.8832C56.1893 73.36 56.0383 72.8799 55.9926 72.4545C55.9541 72.2203 55.8727 72.0173 55.8343 71.7831C55.7528 71.5801 55.7144 71.3459 55.6449 71.0688C55.5369 70.5574 55.4289 70.0461 55.3402 69.6519C55.2322 69.1406 55.1984 68.6411 55.0904 68.1297C55.0136 67.6614 54.9056 67.1501 54.8407 66.6076L54.579 65.1596L54.3603 63.6804L53.6148 57.6704C53.5379 57.202 53.5041 56.7025 53.4702 56.203C53.4364 55.7035 53.4026 55.204 53.3687 54.7046L52.9744 51.7151L53.0174 51.6839C52.9598 51.3327 52.8161 51.0437 52.5123 50.8052C52.2085 50.5666 51.8809 50.4763 51.4554 50.5224C51.0728 50.5374 50.7406 50.7124 50.4277 51.0045C50.1147 51.2966 49.9811 51.6553 49.9957 52.0377L49.9819 52.8337L50.0304 53.7156L50.0596 54.4804L50.0459 55.2763C50.1108 55.8188 50.1447 56.3183 50.1785 56.8178C50.2123 57.3173 50.2462 57.8167 50.3541 58.3281C50.4529 59.37 50.5517 60.412 50.6935 61.4228C50.8353 62.4336 50.9771 63.4444 51.1189 64.4552C51.1455 64.7635 51.1912 65.1889 51.2177 65.4972C51.2708 66.1138 51.2497 66.7185 51.1856 67.3544C51.1407 68.1074 50.0495 76.5607 50.0495 76.5607L49.9781 77.0054L49.7338 76.3963C49.5279 76.0214 47.491 72.8457 47.2302 72.576C47.2302 72.576 40.6837 65.526 40.4037 65.1392C43.1107 62.7208 42.6734 59.7625 42.5032 59.1652C42.0741 57.5764 41.2103 56.5644 40.2942 56.1141C39.9785 55.9497 39.6939 55.8283 39.3974 55.7809C38.4457 55.553 37.4345 55.6956 36.6292 56.2132C36.1679 56.4816 35.8 56.879 35.4943 57.3623C35.2985 57.6351 33.3903 60.523 35.9827 64.7375C34.4242 65.2109 31.5645 64.7924 30.2229 64.3882C14.2102 59.4757 10.1324 60.7251 4.77317 65.4566C14.6184 58.5907 22.2356 65.1276 33.0579 66.8551C34.9851 67.1627 36.4027 66.8569 37.0002 66.6863C37.0002 66.6863 36.4775 71.1256 36.212 74.1998C36.0957 75.3975 36.0966 76.5758 36.1405 77.723C36.2374 79.4868 36.586 82.0509 38.1059 84.4219C38.1059 84.4219 39.8966 87.7103 43.7484 87.8691C45.446 87.95 49.7032 86.7673 50.6744 80.9552C50.6744 80.9552 50.9904 74.9626 51.0663 74.2526L51.2567 73.0668L51.4783 71.9239L51.73 69.6457L51.8298 68.7875C51.9689 69.3418 52.0649 69.9272 52.204 70.4815L52.6139 71.9532L53.055 73.4678C53.1245 73.745 53.2059 73.948 53.2755 74.2252C53.388 74.4712 53.5006 74.7172 53.582 74.9202C53.7641 75.4434 53.9892 75.9354 54.2573 76.3962L54.7121 77.115C54.7432 77.1579 54.8054 77.2439 54.8365 77.2869C54.8677 77.3298 54.9299 77.4158 54.961 77.4587C55.0543 77.5877 55.1477 77.7166 55.2099 77.8025C55.3032 77.9315 55.3655 78.0174 55.4588 78.1463C55.564 78.2011 55.6574 78.33 55.7818 78.5019C55.9374 78.7168 56.2101 78.9124 56.5258 79.0768C56.6621 79.1746 56.8415 79.2412 56.9467 79.296C57.1261 79.3626 57.2744 79.3863 57.4967 79.4218C57.8555 79.5551 58.238 79.5401 58.6324 79.4511C59.0268 79.362 59.359 79.187 59.6482 79.0431L59.9063 78.8563L59.9612 78.751L60.0472 78.6887C60.0902 78.6576 60.2193 78.5642 60.4032 78.3655C60.6302 78.1357 60.8141 77.937 60.967 77.6953C61.1198 77.4537 61.2726 77.212 61.4685 76.9393C61.7311 76.4871 61.9627 75.992 62.132 75.4109C62.5018 74.2917 62.7855 73.2348 62.9283 72.3454C63.0116 71.8266 63.0949 71.3078 63.1782 70.789C63.2615 70.2702 63.3448 69.7514 63.3851 69.2638C63.4684 68.745 63.5087 68.2573 63.5178 67.7267C63.5581 67.239 63.5673 66.7084 63.6506 66.1896C63.7028 65.6278 63.7431 65.1402 63.7523 64.6095C63.7614 64.0789 63.8017 63.5913 63.7679 63.0918C63.8201 62.53 63.8292 61.9994 63.7954 61.4999C63.7616 61.0004 63.7707 60.4698 63.7799 59.9391L63.726 58.1442C64.0847 58.2775 64.4865 58.3796 64.9193 58.5247C65.6486 58.7172 66.2966 58.7066 66.906 58.4618L66.9491 58.4307C67.1833 58.392 67.3124 58.2986 67.4414 58.2052C67.5704 58.1118 67.6995 58.0183 67.7974 57.8819C67.8404 57.8508 67.8953 57.7456 67.9383 57.7144C70.153 55.5215 70.4955 49.8371 70.6677 46.634L70.6769 46.1034C70.7877 43.9927 71.2773 43.3107 71.5354 43.1239C71.7075 42.9993 71.7816 43.0112 71.7816 43.0112C71.8557 43.023 71.9729 43.0037 72.0589 42.9414C72.0589 42.9414 73.3968 41.7107 80.7481 40.9078C88.4077 40.0782 93.2078 35.7515 93.2508 35.7204L93.2938 35.6892L99.7157 25.9964C100.024 25.9696 100.017 25.7784 99.8804 25.6807ZM38.288 62.217C37.3016 60.3112 37.5588 58.946 38.01 58.0299C38.2846 57.5036 39.0258 57.6219 39.1219 58.2074C39.1914 58.4845 39.2179 58.7928 39.2875 59.07C39.7312 61.0411 39.5481 62.4182 38.9487 63.3106C38.805 63.0217 38.4939 62.5919 38.288 62.217ZM48.3253 79.25C48.3253 79.25 49.0838 83.2858 45.8149 85.6525C45.1697 86.1196 44.4861 86.3525 43.7521 86.4254C42.2843 86.5712 40.8182 85.9951 39.775 84.9164C37.3967 82.4464 37.1599 78.95 37.0419 77.7909C36.8142 73.7638 38.4452 67.8671 38.4452 67.8671C40.139 69.3917 42.9621 71.9327 42.9621 71.9327C42.9621 71.9327 47.0004 75.4279 48.3253 79.25ZM62.0039 53.9546C61.798 53.5797 61.5802 53.2789 61.3743 52.9039C60.8692 52.0252 60.3952 51.1894 60.0072 50.2913C59.7821 49.7993 59.5882 49.3502 59.3942 48.9012C59.2002 48.4521 59.0062 48.0031 58.8552 47.5229L58.4645 46.1683L58.234 44.7633C58.2386 44.498 58.2001 44.2638 58.1928 44.0726C58.1855 43.8814 58.1901 43.6161 58.2258 43.3937C58.2542 42.9802 58.3448 42.6526 58.5836 42.3486C58.7676 42.15 58.8966 42.0566 58.9396 42.0254L59.0257 41.9631L59.0568 42.0061C59.0998 41.975 59.0998 41.975 59.1309 42.0179C59.1309 42.0179 59.162 42.0609 59.205 42.0298C59.2361 42.0727 59.2361 42.0727 59.2673 42.1157C59.2984 42.1587 59.2984 42.1587 59.3295 42.2017C59.4969 42.3424 59.6644 42.4832 59.7458 42.6862C59.8703 42.8581 59.9517 43.0611 60.0762 43.233C60.2006 43.4049 60.3132 43.6509 60.3946 43.854C60.4761 44.057 60.5575 44.26 60.67 44.506C60.7515 44.7091 60.821 44.9862 60.9336 45.2322C61.1276 45.6813 61.2474 46.1185 61.3984 46.5986C61.5183 47.0359 61.6262 47.5472 61.7223 48.1326C61.8303 48.6439 61.9071 49.1123 62.0151 49.6236C62.0919 50.092 62.1999 50.6033 62.2648 51.1457L62.6591 54.1352L62.7506 54.986C62.4706 54.5992 62.2217 54.2554 62.0039 53.9546Z" fill="white"/>
</g>
<defs>
<clipPath id="clip0_9_2652">
<rect width="100.376" height="69.3106" fill="white" transform="translate(0 58.8638) rotate(-35.9044)"/>
</clipPath>
</defs>
</svg>
