<svg width="112" height="70" viewBox="0 0 112 70" fill="none" xmlns="http://www.w3.org/2000/svg">
<path d="M13.5544 5.82523C13.5544 7.17554 13.1734 8.2799 12.4115 9.13831C11.6591 9.99672 10.5885 10.5706 9.19965 10.86V10.9757C10.8972 11.1879 12.1559 11.728 12.9757 12.5961C13.7955 13.4641 14.2054 14.6022 14.2054 16.0104C14.2054 18.0262 13.5062 19.5791 12.1076 20.669C10.7091 21.7492 8.72222 22.2894 6.14699 22.2894C5.02816 22.2894 4.00096 22.2025 3.06539 22.0289C2.13947 21.865 1.23765 21.5708 0.359954 21.1464V18.8605C1.27623 19.3139 2.25039 19.6611 3.28241 19.9022C4.32407 20.1337 5.30787 20.2494 6.2338 20.2494C9.88927 20.2494 11.717 18.8171 11.717 15.9525C11.717 13.387 9.7012 12.1042 5.66956 12.1042H3.58623V10.0353H5.6985C7.3478 10.0353 8.65471 9.67361 9.61921 8.95023C10.5837 8.21721 11.066 7.20448 11.066 5.91204C11.066 4.88002 10.7091 4.06983 9.99537 3.48148C9.29128 2.89313 8.3316 2.59896 7.11632 2.59896C6.19039 2.59896 5.31752 2.72434 4.49769 2.97512C3.67785 3.22589 2.74228 3.68885 1.69097 4.364L0.475694 2.74363C1.34375 2.05884 2.34201 1.52353 3.47049 1.13773C4.6086 0.742284 5.80459 0.544561 7.05845 0.544561C9.11285 0.544561 10.7091 1.01717 11.8472 1.96238C12.9853 2.89796 13.5544 4.18557 13.5544 5.82523ZM31.4219 11.3953C31.4219 15.0507 30.8432 17.7803 29.6858 19.5839C28.538 21.3875 26.7778 22.2894 24.4051 22.2894C22.1289 22.2894 20.3976 21.3682 19.2112 19.526C18.0249 17.6742 17.4317 14.9639 17.4317 11.3953C17.4317 7.71084 18.0056 4.97647 19.1534 3.19213C20.3011 1.40779 22.0517 0.515625 24.4051 0.515625C26.7006 0.515625 28.4416 1.44637 29.6279 3.30787C30.8239 5.16937 31.4219 7.86516 31.4219 11.3953ZM19.8623 11.3953C19.8623 14.472 20.224 16.7145 20.9473 18.1227C21.6707 19.5212 22.8233 20.2205 24.4051 20.2205C26.0062 20.2205 27.1636 19.5116 27.8773 18.0938C28.6007 16.6663 28.9624 14.4334 28.9624 11.3953C28.9624 8.35706 28.6007 6.13387 27.8773 4.72569C27.1636 3.30787 26.0062 2.59896 24.4051 2.59896C22.8233 2.59896 21.6707 3.29823 20.9473 4.69676C20.224 6.08565 19.8623 8.31848 19.8623 11.3953ZM50.0561 10.5561H56.0168V12.5527H50.0561V18.7159H48.0451V12.5527H42.1134V10.5561H48.0451V4.364H50.0561V10.5561ZM15.6233 55.8368C15.6233 57.9394 14.9963 59.4923 13.7425 60.4954C12.4983 61.4985 10.6175 62 8.10012 62H1.90799V40.8484H14.3791V43.033H4.36748V49.8762H7.65162C9.51312 49.8762 11.0274 50.0932 12.1944 50.5272C13.3615 50.9516 14.2247 51.5833 14.7841 52.4225C15.3436 53.2616 15.6233 54.3997 15.6233 55.8368ZM4.36748 59.8733H7.82523C9.65779 59.8733 10.9888 59.5598 11.8183 58.9329C12.6574 58.3059 13.077 57.2739 13.077 55.8368C13.077 54.4672 12.6526 53.4931 11.8038 52.9144C10.9551 52.3356 9.47454 52.0463 7.36227 52.0463H4.36748V59.8733ZM27.0961 62.2894C26.064 62.2894 25.1188 62.1013 24.2604 61.7251C23.4117 61.3393 22.6979 60.751 22.1192 59.9601H21.9456C22.0613 60.886 22.1192 61.7637 22.1192 62.5932V69.1181H19.7176V46.1435H21.6707L22.0035 48.3137H22.1192C22.7365 47.4456 23.4551 46.8187 24.2749 46.4329C25.0947 46.0471 26.0351 45.8542 27.0961 45.8542C29.1987 45.8542 30.8191 46.5727 31.9572 48.0098C33.1049 49.447 33.6788 51.4628 33.6788 54.0573C33.6788 56.6615 33.0953 58.6869 31.9282 60.1337C30.7708 61.5708 29.1601 62.2894 27.0961 62.2894ZM26.7488 47.8941C25.1285 47.8941 23.9566 48.3426 23.2332 49.2396C22.5098 50.1366 22.1385 51.564 22.1192 53.522V54.0573C22.1192 56.2853 22.4905 57.8816 23.2332 58.8461C23.9759 59.8009 25.1671 60.2784 26.8067 60.2784C28.1763 60.2784 29.2469 59.7238 30.0185 58.6146C30.7998 57.5054 31.1904 55.9767 31.1904 54.0284C31.1904 52.0511 30.7998 50.5368 30.0185 49.4855C29.2469 48.4246 28.157 47.8941 26.7488 47.8941ZM44.5874 62.2894C42.2436 62.2894 40.3918 61.5756 39.0318 60.1481C37.6815 58.7207 37.0064 56.7386 37.0064 54.202C37.0064 51.646 37.6333 49.6157 38.8872 48.1111C40.1507 46.6065 41.8434 45.8542 43.9653 45.8542C45.9522 45.8542 47.5243 46.51 48.6817 47.8218C49.8391 49.1238 50.4178 50.8455 50.4178 52.9867V54.5058H39.4948C39.543 56.3673 40.0108 57.7803 40.8981 58.7448C41.7951 59.7093 43.0538 60.1916 44.6742 60.1916C46.3814 60.1916 48.0692 59.8347 49.7378 59.1209V61.2622C48.8891 61.6287 48.0837 61.8891 47.3218 62.0434C46.5694 62.2074 45.658 62.2894 44.5874 62.2894ZM43.9363 47.8652C42.6632 47.8652 41.6456 48.2799 40.8837 49.1094C40.1314 49.9389 39.6877 51.0866 39.5527 52.5527H47.8426C47.8426 51.0384 47.505 49.881 46.8299 49.0804C46.1547 48.2703 45.1902 47.8652 43.9363 47.8652ZM56.9282 46.1435V52.7841H65.8113V46.1435H68.213V62H65.8113V54.853H56.9282V62H54.5266V46.1435H56.9282ZM87.0787 67.4832H84.7494V62H73.6672V67.4832H71.3524V59.9311H72.5966C73.8891 58.1757 74.9018 56.1165 75.6348 53.7535C76.3679 51.3904 76.7488 48.8538 76.7778 46.1435H84.8073V59.9311H87.0787V67.4832ZM82.4925 59.9311V48.0388H78.9334C78.8081 50.18 78.3933 52.3501 77.6892 54.5492C76.9948 56.7386 76.1267 58.5326 75.0851 59.9311H82.4925ZM92.6632 62H90.2616V46.1435H92.6632V62ZM90.059 41.8466C90.059 41.2969 90.1941 40.8966 90.4641 40.6458C90.7342 40.3854 91.0718 40.2552 91.4768 40.2552C91.8626 40.2552 92.1954 40.3854 92.4751 40.6458C92.7548 40.9063 92.8947 41.3065 92.8947 41.8466C92.8947 42.3868 92.7548 42.7919 92.4751 43.0619C92.1954 43.3223 91.8626 43.4525 91.4768 43.4525C91.0718 43.4525 90.7342 43.3223 90.4641 43.0619C90.1941 42.7919 90.059 42.3868 90.059 41.8466ZM110.617 50.1221C110.617 51.1541 110.318 51.9402 109.72 52.4803C109.132 53.0108 108.303 53.3677 107.232 53.5509V53.6811C108.582 53.8644 109.566 54.2598 110.183 54.8675C110.81 55.4751 111.124 56.3142 111.124 57.3848C111.124 58.8605 110.579 59.9986 109.489 60.7992C108.409 61.5997 106.827 62 104.744 62H97.7558V46.1435H104.715C108.65 46.1435 110.617 47.4697 110.617 50.1221ZM108.722 57.2257C108.722 56.3673 108.394 55.7452 107.738 55.3594C107.092 54.9639 106.017 54.7662 104.512 54.7662H100.157V59.989H104.57C107.338 59.989 108.722 59.0679 108.722 57.2257ZM108.274 50.3536C108.274 49.582 107.975 49.037 107.377 48.7188C106.788 48.3908 105.891 48.2269 104.686 48.2269H100.157V52.6973H104.223C105.708 52.6973 106.755 52.5141 107.362 52.1476C107.97 51.7811 108.274 51.1831 108.274 50.3536Z" fill="#1F1F1F"/>
<path d="M-1 24.9659H57.5503V26.4416H-1V24.9659ZM-1 64.9659H112.064V66.4416H-1V64.9659Z" fill="#1F1F1F"/>
</svg>
