<svg width="111" height="47" viewBox="0 0 111 47" fill="none" xmlns="http://www.w3.org/2000/svg">
<g clip-path="url(#clip0_1_497)" filter="url(#filter0_d_1_497)">
<path fill-rule="evenodd" clip-rule="evenodd" d="M87.5869 0.398591C87.3975 0.626735 87.3665 1.2068 87.4686 2.60058L87.6075 4.49273L86.7909 4.41491C85.726 4.3134 84.8859 4.90123 84.2209 6.21331C83.8046 7.0352 83.7441 7.37466 83.8514 8.28908C84.0863 10.293 85.8448 11.3793 87.0264 10.2503C87.2909 9.99741 87.3416 9.9204 87.1387 10.0789C86.5323 10.5528 86.5595 10.2452 87.1912 9.48311L87.7827 8.76947L87.7882 9.31971C87.7938 9.87445 88.7964 11.2658 88.8085 10.736C88.814 10.5021 88.8693 10.5007 89.1416 10.7266C89.4398 10.9741 89.4576 10.5664 89.3467 6.01928C89.2498 2.05116 89.1618 0.944542 88.9132 0.56505C88.5562 0.0203219 87.9627 -0.0542258 87.5869 0.398591ZM104.608 3.28073C104.291 3.43963 103.74 3.90777 103.385 4.32096L102.738 5.07239L102.597 4.32402C102.416 3.35957 102.08 3.06872 101.573 3.43943C101.213 3.70229 101.207 3.80462 101.472 5.121C101.627 5.89203 101.747 7.30399 101.737 8.25885C101.724 9.56461 101.799 10.0836 102.039 10.3524C102.782 11.1827 103.164 10.6575 103.405 8.47617C103.484 7.75293 103.691 6.87977 103.865 6.53582C104.354 5.5636 105.384 4.5824 105.916 4.5824C106.178 4.5824 106.451 4.43207 106.521 4.24825C106.841 3.41492 105.596 2.78543 104.608 3.28073ZM91.4218 3.47231C90.7341 3.84547 90.3289 4.5971 90.1414 5.84628C89.7899 8.19125 91.5503 10.5056 93.6855 10.5056C94.3095 10.5056 95.449 9.49986 95.0049 9.34096C94.8709 9.29296 94.8117 9.1218 94.8736 8.96044C95.0055 8.6169 94.6698 8.58034 94.114 8.87772C93.6209 9.14161 92.805 8.65427 92.3871 7.84586C92.0335 7.16245 92.1473 7.03337 93.1026 7.03337C94.6718 7.03337 95.3379 5.18431 94.1502 4.1259C92.99 3.09221 92.3881 2.94801 91.4218 3.47231ZM96.5831 3.93146C95.5746 4.94003 95.2531 8.06992 95.999 9.61996C96.3673 10.3855 97.4118 10.6085 98.0983 10.0685C98.5764 9.69226 98.5983 9.69206 98.8601 10.0587C99.2905 10.6618 100.059 10.7607 100.486 10.2682C100.828 9.87424 100.83 9.80358 100.521 9.20677C100.314 8.80603 100.154 7.843 100.094 6.62589C100.04 5.55809 99.9197 4.53562 99.8254 4.35364C99.6021 3.92227 98.3991 3.35691 97.7043 3.35691C97.3775 3.35691 96.9267 3.58792 96.5831 3.93146ZM98.1516 6.49824C98.0482 7.18104 97.8387 7.91837 97.6857 8.13671C97.4277 8.50476 97.3977 8.50783 97.2713 8.17817C97.0523 7.60751 97.3358 5.61977 97.7198 5.03378C98.04 4.54502 98.0848 4.53052 98.2059 4.8761C98.2794 5.08546 98.2549 5.81544 98.1516 6.49824ZM93.1042 5.30931C93.1042 5.49171 92.8979 5.60363 92.5619 5.60363C92.0348 5.60363 92.0299 5.5924 92.385 5.20004C92.7727 4.77133 93.1042 4.82178 93.1042 5.30931ZM87.4706 5.72761C87.7017 5.81625 87.7929 6.12181 87.7909 6.79991C87.7868 8.23066 87.642 8.52907 86.7394 8.96616C85.9263 9.36015 85.9065 9.36036 85.6271 8.97821C85.0362 8.17 85.5164 6.28746 86.4259 5.84812C86.977 5.58178 87.0644 5.57177 87.4706 5.72761ZM68.1239 7.08524C67.0157 7.77335 66.5549 8.56767 66.5541 9.79071C66.553 11.6408 67.8249 12.9543 69.619 12.9557C71.5424 12.9574 73.0193 11.3685 72.82 9.51211C72.5759 7.23782 70.012 5.91286 68.1239 7.08524ZM35.0622 8.19145C33.8628 8.5544 32.14 8.968 31.2333 9.11056L29.5848 9.36996L29.4515 10.0809C29.3675 10.5287 29.4014 10.8195 29.543 10.8667C30.1733 11.0767 31.1322 11.91 31.3032 12.3959C31.4441 12.7966 31.3169 14.0971 30.8342 17.1894C29.0172 28.8294 28.3581 33.4556 28.3622 34.5402C28.3733 37.4758 30.209 38.8935 33.1994 38.2757C35.7229 37.7544 38.2198 35.937 37.8254 34.9091C37.6794 34.5286 37.1005 34.5576 35.4529 35.0279C34.5311 35.291 34.4568 35.282 34.0291 34.8543L33.5777 34.4029L33.9157 31.7986C34.1014 30.3662 34.9523 24.3789 35.8064 18.4935C36.6606 12.6081 37.3332 7.73393 37.3009 7.66224C37.2688 7.59035 36.2613 7.8285 35.0622 8.19145ZM12.7328 8.07054C11.7064 8.39488 8.74384 9.08156 6.9628 9.40795C6.56717 9.48046 6.50324 9.61934 6.50324 10.4073C6.50324 11.2419 6.54736 11.3226 7.00242 11.3226C7.27714 11.3226 7.7418 11.5293 8.0351 11.7821L8.56839 12.2417L6.71239 24.5987C5.69156 31.395 4.80594 37.2085 4.74447 37.5173L4.63254 38.079H7.40213C10.1082 38.079 10.1742 38.0684 10.2734 37.6194C10.3292 37.3666 10.6531 35.1909 10.9934 32.7845C11.3335 30.378 11.6433 28.3772 11.6821 28.3386C11.7209 28.2998 12.0868 29.0739 12.495 30.0588C14.0383 33.7804 16.3782 36.9699 18.2191 37.8611C20.3798 38.907 25.0226 37.8647 25.8402 36.1505C26.2816 35.2246 26.0816 34.7214 25.3426 34.8984C23.4964 35.3406 22.9662 35.2892 22.0336 34.5774C21.2969 34.0153 20.7013 33.1205 18.7223 29.6027C17.3954 27.2437 16.309 25.2065 16.3083 25.0756C16.3063 24.6546 19.3277 21.7721 20.4393 21.1346C21.4074 20.5795 21.6923 20.5174 23.2777 20.5155L25.0401 20.5137L25.3855 19.1389C25.5755 18.3828 25.8293 17.6452 25.9501 17.5C26.2599 17.1267 26.0642 17.0053 24.8387 16.8113C23.505 16.6003 21.6118 16.8848 20.7379 17.4277C20.1394 17.7995 16.8159 21.1062 13.3766 24.7518C12.6082 25.5664 11.9632 26.2326 11.9434 26.2326C11.9234 26.2326 12.5083 22.0507 13.2434 16.9394C14.3707 9.10055 14.5312 7.64897 14.2691 7.6647C14.0982 7.67491 13.4068 7.85771 12.7328 8.07054ZM105.255 8.95003C104.985 9.14692 104.829 9.59708 104.739 10.4308C104.667 11.0897 104.571 11.7668 104.524 11.9353C104.423 12.3015 105.282 12.2462 105.666 11.8616C106.37 11.1577 106.646 9.42327 106.135 8.91244C105.823 8.60056 105.727 8.60464 105.255 8.95003ZM68.5951 17.1647C67.3036 17.5464 65.5343 17.971 64.6633 18.1081L63.0798 18.3573V19.1291C63.0798 19.7002 63.1648 19.901 63.4064 19.901C63.9828 19.901 65.1033 20.5407 65.2309 20.9426C65.299 21.1569 65.2132 22.228 65.0406 23.3229C64.8678 24.4177 64.4854 27.2437 64.1909 29.6027C63.8964 31.9618 63.6066 34.2763 63.5469 34.7461C63.3296 36.4558 64.5812 38.0465 66.398 38.3696C68.1672 38.6842 71.4472 37.5467 72.5502 36.2359C73.523 35.0798 73.1756 34.6899 71.6167 35.1885C70.8547 35.4321 70.5436 35.4469 70.1302 35.2585C69.3284 34.8931 69.1498 34.1552 69.2804 31.7473C69.3731 30.0406 70.736 20.4982 71.3696 17.1207C71.5287 16.2729 71.6163 16.2715 68.5951 17.1647ZM97.9812 16.8869C93.624 18.4153 91.3264 22.7369 93.1853 25.9087C93.8832 27.0997 95.6971 28.721 97.3566 29.637C100.299 31.2612 101.274 32.2287 101.274 33.523C101.274 35.5414 97.2065 36.0108 93.7376 34.3925C93.0186 34.0571 92.4104 33.8074 92.3859 33.8374C92.3614 33.8674 91.8769 34.6454 91.3095 35.5663L90.2778 37.241L91.1293 37.5571C93.958 38.6078 97.7406 38.8384 100.063 38.1021C103.764 36.9289 105.97 34.3729 105.714 31.5537C105.476 28.9322 103.693 26.5511 100.317 24.3503C98.248 23.001 97.665 22.2147 97.9093 21.1019C98.2982 19.3313 102.071 19.1661 104.562 20.8107L105.298 21.2958L106.039 19.7494C106.917 17.9159 106.953 17.9743 104.44 17.1324C102.09 16.3448 99.7776 16.257 97.9812 16.8869ZM81.7685 17.0754C80.9821 17.3027 79.3761 17.693 78.1996 17.9428C76.0988 18.3891 76.0581 18.4085 75.9302 19.0339C75.8161 19.5928 75.8692 19.6994 76.3643 19.9044C77.3606 20.3172 77.8459 21.0233 77.9396 22.1971C77.9938 22.8746 77.6369 25.779 76.9737 30.0629C76.3953 33.7984 75.9047 37.0923 75.8837 37.3827L75.8453 37.9109L78.5971 37.8823C80.1106 37.8664 81.4012 37.7691 81.465 37.666C81.5287 37.5629 81.9298 34.607 82.3563 31.0976C83.1751 24.3597 83.3187 23.7878 84.4559 22.7326C85.5301 21.7365 86.3352 21.4547 88.141 21.4434C89.0619 21.4375 89.9145 21.334 90.0354 21.2132C90.3438 20.9048 91.3031 17.229 91.1675 16.8754C90.9717 16.3648 88.8546 16.661 87.3279 17.4126C86.2774 17.93 85.755 18.3679 84.8444 19.4949C84.2102 20.2798 83.6723 20.9224 83.649 20.9224C83.6257 20.9226 83.6379 19.9575 83.6763 18.7778C83.7558 16.3297 83.9006 16.459 81.7685 17.0754ZM50.5266 17.0644C47.5911 17.4921 46.3103 18.2274 43.7686 20.9436C40.3215 24.6279 38.9418 29.1589 39.8959 33.6621C40.6675 37.3037 43.0229 39.0628 46.3131 38.4548C48.2012 38.1057 50.5321 36.6891 51.4598 35.327C51.7285 34.9324 51.9943 34.6094 52.0504 34.6094C52.1066 34.6092 52.1597 35.1062 52.1683 35.7134C52.1873 37.0359 52.6205 37.7924 53.5917 38.1983C55.0312 38.7996 57.6158 38.427 59.1433 37.3976C60.0733 36.771 61.0128 35.5353 60.7551 35.2777C60.6854 35.2079 60.1946 35.2502 59.6644 35.3715C58.8978 35.5467 58.5858 35.5324 58.1389 35.3014C56.8827 34.6519 56.8793 34.0753 58.0737 24.4965C58.578 20.4524 58.9914 17.0748 58.9926 16.9904C58.9957 16.7823 52.0457 16.8432 50.5266 17.0644ZM52.8595 19.2839C53.6709 19.7182 53.6826 20.4351 52.9497 24.827C52.1989 29.3276 51.4342 32.3741 50.857 33.1644C49.5776 34.9164 47.0588 35.2238 45.8411 33.7767C44.7402 32.4683 44.6767 30.4283 45.6211 26.7057C46.5817 22.9185 48.519 20.3724 51.185 19.3932C52.1277 19.0468 52.385 19.03 52.8595 19.2839Z" fill="black" fill-opacity="0.4"/>
</g>
<defs>
<filter id="filter0_d_1_497" x="0.632538" y="0.102295" width="109.949" height="46.4707" filterUnits="userSpaceOnUse" color-interpolation-filters="sRGB">
<feFlood flood-opacity="0" result="BackgroundImageFix"/>
<feColorMatrix in="SourceAlpha" type="matrix" values="0 0 0 0 0 0 0 0 0 0 0 0 0 0 0 0 0 0 127 0" result="hardAlpha"/>
<feOffset dy="4"/>
<feGaussianBlur stdDeviation="2"/>
<feComposite in2="hardAlpha" operator="out"/>
<feColorMatrix type="matrix" values="0 0 0 0 0 0 0 0 0 0 0 0 0 0 0 0 0 0 0.25 0"/>
<feBlend mode="normal" in2="BackgroundImageFix" result="effect1_dropShadow_1_497"/>
<feBlend mode="normal" in="SourceGraphic" in2="effect1_dropShadow_1_497" result="shape"/>
</filter>
<clipPath id="clip0_1_497">
<rect width="101.949" height="38.4707" fill="white" transform="translate(4.63254 0.102295)"/>
</clipPath>
</defs>
</svg>
